<mxfile host="Electron" modified="2024-11-20T06:25:42.723Z" agent="Mozilla/5.0 (X11; Linux x86_64) AppleWebKit/537.36 (KHTML, like Gecko) draw.io/24.6.4 Chrome/124.0.6367.207 Electron/30.0.6 Safari/537.36" etag="BOWXop3M5YHG0l6H6ZNG" version="24.6.4" type="device">
  <diagram name="Страница — 1" id="jmNPyKJLJRrGTlgYc3e5">
    <mxGraphModel dx="2049" dy="1250" grid="1" gridSize="10" guides="1" tooltips="1" connect="1" arrows="1" fold="1" page="1" pageScale="1" pageWidth="1169" pageHeight="827" math="0" shadow="0">
      <root>
        <mxCell id="0" />
        <mxCell id="1" parent="0" />
        <mxCell id="ZFrBuDhP7MVDR-RA8Mfw-1" value="" style="rounded=0;whiteSpace=wrap;html=1;strokeColor=none;" parent="1" vertex="1">
          <mxGeometry width="1210" height="830" as="geometry" />
        </mxCell>
        <mxCell id="ZFrBuDhP7MVDR-RA8Mfw-2" value="&lt;b&gt;REST clients (Browser)&lt;/b&gt;" style="rounded=1;whiteSpace=wrap;html=1;verticalAlign=top;strokeWidth=2;" parent="1" vertex="1">
          <mxGeometry x="10" y="40" width="170" height="720" as="geometry" />
        </mxCell>
        <mxCell id="ZFrBuDhP7MVDR-RA8Mfw-3" value="&lt;b&gt;REST (Rust-Actix-Web)&lt;/b&gt;" style="rounded=1;whiteSpace=wrap;html=1;verticalAlign=top;strokeWidth=2;" parent="1" vertex="1">
          <mxGeometry x="640" y="40" width="180" height="720" as="geometry" />
        </mxCell>
        <mxCell id="ZFrBuDhP7MVDR-RA8Mfw-4" value="&lt;b&gt;REST request&lt;/b&gt;" style="text;html=1;align=center;verticalAlign=middle;whiteSpace=wrap;rounded=0;" parent="1" vertex="1">
          <mxGeometry x="200" y="10" width="120" height="30" as="geometry" />
        </mxCell>
        <mxCell id="ZFrBuDhP7MVDR-RA8Mfw-5" value="REST response" style="text;html=1;align=center;verticalAlign=middle;whiteSpace=wrap;rounded=0;fontStyle=1" parent="1" vertex="1">
          <mxGeometry x="480" y="730" width="120" height="30" as="geometry" />
        </mxCell>
        <mxCell id="ZFrBuDhP7MVDR-RA8Mfw-6" value="HTML/JSON format" style="rounded=1;whiteSpace=wrap;html=1;fillColor=#1ba1e2;fontColor=#ffffff;strokeColor=#006EAF;fontStyle=1" parent="1" vertex="1">
          <mxGeometry x="480" y="770" width="160" height="40" as="geometry" />
        </mxCell>
        <mxCell id="ZFrBuDhP7MVDR-RA8Mfw-7" value="Redis Status Main Page" style="rounded=1;whiteSpace=wrap;html=1;fontStyle=1" parent="1" vertex="1">
          <mxGeometry x="414" y="80" width="200" height="40" as="geometry" />
        </mxCell>
        <mxCell id="ZFrBuDhP7MVDR-RA8Mfw-8" value="Redis Read Data" style="rounded=1;whiteSpace=wrap;html=1;fontStyle=1" parent="1" vertex="1">
          <mxGeometry x="414" y="230" width="200" height="40" as="geometry" />
        </mxCell>
        <mxCell id="ZFrBuDhP7MVDR-RA8Mfw-9" value="Redis Status Json" style="rounded=1;whiteSpace=wrap;html=1;fontStyle=1" parent="1" vertex="1">
          <mxGeometry x="414" y="180" width="200" height="40" as="geometry" />
        </mxCell>
        <mxCell id="ZFrBuDhP7MVDR-RA8Mfw-10" value="Redis Change TTL" style="rounded=1;whiteSpace=wrap;html=1;fontStyle=1" parent="1" vertex="1">
          <mxGeometry x="414" y="530" width="200" height="40" as="geometry" />
        </mxCell>
        <mxCell id="ZFrBuDhP7MVDR-RA8Mfw-11" value="Redis Rename Key" style="rounded=1;whiteSpace=wrap;html=1;fontStyle=1" parent="1" vertex="1">
          <mxGeometry x="414" y="580" width="200" height="40" as="geometry" />
        </mxCell>
        <mxCell id="ZFrBuDhP7MVDR-RA8Mfw-12" value="Redis Add Data" style="rounded=1;whiteSpace=wrap;html=1;fontStyle=1" parent="1" vertex="1">
          <mxGeometry x="414" y="380" width="200" height="40" as="geometry" />
        </mxCell>
        <mxCell id="ZFrBuDhP7MVDR-RA8Mfw-13" value="Redis Reset Key" style="rounded=1;whiteSpace=wrap;html=1;fontStyle=1" parent="1" vertex="1">
          <mxGeometry x="414" y="630" width="200" height="40" as="geometry" />
        </mxCell>
        <mxCell id="ZFrBuDhP7MVDR-RA8Mfw-14" value="Redis Reset All Keys" style="rounded=1;whiteSpace=wrap;html=1;fontStyle=1" parent="1" vertex="1">
          <mxGeometry x="414" y="680" width="200" height="40" as="geometry" />
        </mxCell>
        <mxCell id="ZFrBuDhP7MVDR-RA8Mfw-15" value="Redis Download Dump Key" style="rounded=1;whiteSpace=wrap;html=1;fontStyle=1" parent="1" vertex="1">
          <mxGeometry x="414" y="280" width="200" height="40" as="geometry" />
        </mxCell>
        <mxCell id="ZFrBuDhP7MVDR-RA8Mfw-16" value="Redis Download Dump All Keys" style="rounded=1;whiteSpace=wrap;html=1;fontStyle=1" parent="1" vertex="1">
          <mxGeometry x="414" y="330" width="200" height="40" as="geometry" />
        </mxCell>
        <mxCell id="ZFrBuDhP7MVDR-RA8Mfw-17" value="Redis Upload Dump Key" style="rounded=1;whiteSpace=wrap;html=1;fontStyle=1" parent="1" vertex="1">
          <mxGeometry x="414" y="430" width="200" height="40" as="geometry" />
        </mxCell>
        <mxCell id="ZFrBuDhP7MVDR-RA8Mfw-18" value="Redis Upload Dump All Keys" style="rounded=1;whiteSpace=wrap;html=1;fontStyle=1" parent="1" vertex="1">
          <mxGeometry x="414" y="480" width="200" height="40" as="geometry" />
        </mxCell>
        <mxCell id="ZFrBuDhP7MVDR-RA8Mfw-19" value="" style="endArrow=classic;html=1;rounded=0;exitX=1;exitY=0.5;exitDx=0;exitDy=0;entryX=0;entryY=0.5;entryDx=0;entryDy=0;fillColor=#60a917;strokeColor=#2D7600;strokeWidth=2;" parent="1" source="ZFrBuDhP7MVDR-RA8Mfw-38" target="ZFrBuDhP7MVDR-RA8Mfw-7" edge="1">
          <mxGeometry width="50" height="50" relative="1" as="geometry">
            <mxPoint x="350" y="410" as="sourcePoint" />
            <mxPoint x="400" y="360" as="targetPoint" />
          </mxGeometry>
        </mxCell>
        <mxCell id="ZFrBuDhP7MVDR-RA8Mfw-20" value="" style="endArrow=classic;html=1;rounded=0;exitX=1;exitY=0.5;exitDx=0;exitDy=0;entryX=0;entryY=0.5;entryDx=0;entryDy=0;fillColor=#60a917;strokeColor=#2D7600;strokeWidth=2;" parent="1" source="ZFrBuDhP7MVDR-RA8Mfw-38" target="ZFrBuDhP7MVDR-RA8Mfw-9" edge="1">
          <mxGeometry width="50" height="50" relative="1" as="geometry">
            <mxPoint x="360" y="380" as="sourcePoint" />
            <mxPoint x="410" y="330" as="targetPoint" />
          </mxGeometry>
        </mxCell>
        <mxCell id="ZFrBuDhP7MVDR-RA8Mfw-21" value="" style="endArrow=classic;html=1;rounded=0;exitX=1;exitY=0.5;exitDx=0;exitDy=0;entryX=0;entryY=0.5;entryDx=0;entryDy=0;fillColor=#60a917;strokeColor=#2D7600;strokeWidth=2;" parent="1" source="ZFrBuDhP7MVDR-RA8Mfw-38" target="ZFrBuDhP7MVDR-RA8Mfw-8" edge="1">
          <mxGeometry width="50" height="50" relative="1" as="geometry">
            <mxPoint x="350" y="380" as="sourcePoint" />
            <mxPoint x="400" y="330" as="targetPoint" />
          </mxGeometry>
        </mxCell>
        <mxCell id="ZFrBuDhP7MVDR-RA8Mfw-22" value="" style="endArrow=classic;html=1;rounded=0;entryX=0;entryY=0.5;entryDx=0;entryDy=0;exitX=1;exitY=0.5;exitDx=0;exitDy=0;strokeWidth=2;fillColor=#60a917;strokeColor=#2D7600;" parent="1" source="ZFrBuDhP7MVDR-RA8Mfw-38" target="ZFrBuDhP7MVDR-RA8Mfw-16" edge="1">
          <mxGeometry width="50" height="50" relative="1" as="geometry">
            <mxPoint x="370" y="420" as="sourcePoint" />
            <mxPoint x="410" y="860" as="targetPoint" />
          </mxGeometry>
        </mxCell>
        <mxCell id="ZFrBuDhP7MVDR-RA8Mfw-23" value="" style="endArrow=classic;html=1;rounded=0;entryX=0;entryY=0.5;entryDx=0;entryDy=0;exitX=1;exitY=0.5;exitDx=0;exitDy=0;strokeWidth=2;fillColor=#60a917;strokeColor=#2D7600;" parent="1" source="ZFrBuDhP7MVDR-RA8Mfw-38" target="ZFrBuDhP7MVDR-RA8Mfw-15" edge="1">
          <mxGeometry width="50" height="50" relative="1" as="geometry">
            <mxPoint x="310" y="680" as="sourcePoint" />
            <mxPoint x="360" y="630" as="targetPoint" />
          </mxGeometry>
        </mxCell>
        <mxCell id="ZFrBuDhP7MVDR-RA8Mfw-24" value="" style="endArrow=classic;html=1;rounded=0;exitX=1;exitY=0.5;exitDx=0;exitDy=0;entryX=0;entryY=0.5;entryDx=0;entryDy=0;fillColor=#e3c800;strokeColor=#B09500;strokeWidth=2;" parent="1" source="ZFrBuDhP7MVDR-RA8Mfw-39" target="ZFrBuDhP7MVDR-RA8Mfw-12" edge="1">
          <mxGeometry width="50" height="50" relative="1" as="geometry">
            <mxPoint x="370" y="510" as="sourcePoint" />
            <mxPoint x="420" y="460" as="targetPoint" />
          </mxGeometry>
        </mxCell>
        <mxCell id="ZFrBuDhP7MVDR-RA8Mfw-25" value="" style="endArrow=classic;html=1;rounded=0;exitX=1;exitY=0.5;exitDx=0;exitDy=0;entryX=0;entryY=0.5;entryDx=0;entryDy=0;fillColor=#e3c800;strokeColor=#B09500;strokeWidth=2;" parent="1" source="ZFrBuDhP7MVDR-RA8Mfw-39" target="ZFrBuDhP7MVDR-RA8Mfw-17" edge="1">
          <mxGeometry width="50" height="50" relative="1" as="geometry">
            <mxPoint x="310" y="700" as="sourcePoint" />
            <mxPoint x="360" y="650" as="targetPoint" />
          </mxGeometry>
        </mxCell>
        <mxCell id="ZFrBuDhP7MVDR-RA8Mfw-26" value="" style="endArrow=classic;html=1;rounded=0;exitX=1;exitY=0.5;exitDx=0;exitDy=0;entryX=0;entryY=0.5;entryDx=0;entryDy=0;fillColor=#e3c800;strokeColor=#B09500;strokeWidth=2;" parent="1" source="ZFrBuDhP7MVDR-RA8Mfw-39" target="ZFrBuDhP7MVDR-RA8Mfw-18" edge="1">
          <mxGeometry width="50" height="50" relative="1" as="geometry">
            <mxPoint x="310" y="770" as="sourcePoint" />
            <mxPoint x="360" y="720" as="targetPoint" />
          </mxGeometry>
        </mxCell>
        <mxCell id="ZFrBuDhP7MVDR-RA8Mfw-27" value="" style="endArrow=classic;html=1;rounded=0;entryX=0;entryY=0.5;entryDx=0;entryDy=0;exitX=1;exitY=0.5;exitDx=0;exitDy=0;strokeWidth=2;fillColor=#6a00ff;strokeColor=#3700CC;" parent="1" source="ZFrBuDhP7MVDR-RA8Mfw-40" target="ZFrBuDhP7MVDR-RA8Mfw-10" edge="1">
          <mxGeometry width="50" height="50" relative="1" as="geometry">
            <mxPoint x="370" y="490" as="sourcePoint" />
            <mxPoint x="420" y="440" as="targetPoint" />
          </mxGeometry>
        </mxCell>
        <mxCell id="ZFrBuDhP7MVDR-RA8Mfw-28" value="" style="endArrow=classic;html=1;rounded=0;entryX=0;entryY=0.5;entryDx=0;entryDy=0;exitX=1;exitY=0.5;exitDx=0;exitDy=0;strokeWidth=2;fillColor=#6a00ff;strokeColor=#3700CC;" parent="1" source="ZFrBuDhP7MVDR-RA8Mfw-40" target="ZFrBuDhP7MVDR-RA8Mfw-11" edge="1">
          <mxGeometry width="50" height="50" relative="1" as="geometry">
            <mxPoint x="250" y="730" as="sourcePoint" />
            <mxPoint x="300" y="680" as="targetPoint" />
          </mxGeometry>
        </mxCell>
        <mxCell id="ZFrBuDhP7MVDR-RA8Mfw-29" value="" style="endArrow=classic;html=1;rounded=0;exitX=1;exitY=0.5;exitDx=0;exitDy=0;entryX=0;entryY=0.5;entryDx=0;entryDy=0;fillColor=#d80073;strokeColor=#A50040;strokeWidth=2;" parent="1" source="ZFrBuDhP7MVDR-RA8Mfw-41" target="ZFrBuDhP7MVDR-RA8Mfw-13" edge="1">
          <mxGeometry width="50" height="50" relative="1" as="geometry">
            <mxPoint x="290" y="700" as="sourcePoint" />
            <mxPoint x="340" y="650" as="targetPoint" />
          </mxGeometry>
        </mxCell>
        <mxCell id="ZFrBuDhP7MVDR-RA8Mfw-30" value="" style="endArrow=classic;html=1;rounded=0;exitX=1;exitY=0.5;exitDx=0;exitDy=0;entryX=0;entryY=0.5;entryDx=0;entryDy=0;fillColor=#d80073;strokeColor=#A50040;strokeWidth=2;" parent="1" source="ZFrBuDhP7MVDR-RA8Mfw-41" target="ZFrBuDhP7MVDR-RA8Mfw-14" edge="1">
          <mxGeometry width="50" height="50" relative="1" as="geometry">
            <mxPoint x="290" y="740" as="sourcePoint" />
            <mxPoint x="340" y="690" as="targetPoint" />
          </mxGeometry>
        </mxCell>
        <mxCell id="ZFrBuDhP7MVDR-RA8Mfw-31" value="" style="endArrow=classic;html=1;rounded=0;entryX=0.25;entryY=0;entryDx=0;entryDy=0;exitX=0.75;exitY=0;exitDx=0;exitDy=0;fontStyle=0;strokeWidth=2;" parent="1" source="ZFrBuDhP7MVDR-RA8Mfw-2" target="ZFrBuDhP7MVDR-RA8Mfw-3" edge="1">
          <mxGeometry width="50" height="50" relative="1" as="geometry">
            <mxPoint x="310" y="100" as="sourcePoint" />
            <mxPoint x="510" y="70" as="targetPoint" />
          </mxGeometry>
        </mxCell>
        <mxCell id="ZFrBuDhP7MVDR-RA8Mfw-32" value="" style="endArrow=classic;html=1;rounded=0;entryX=0.75;entryY=1;entryDx=0;entryDy=0;exitX=0.25;exitY=1;exitDx=0;exitDy=0;strokeWidth=2;" parent="1" source="ZFrBuDhP7MVDR-RA8Mfw-3" target="ZFrBuDhP7MVDR-RA8Mfw-2" edge="1">
          <mxGeometry width="50" height="50" relative="1" as="geometry">
            <mxPoint x="520" y="1120" as="sourcePoint" />
            <mxPoint x="570" y="1070" as="targetPoint" />
          </mxGeometry>
        </mxCell>
        <mxCell id="GXvS0G71m_cW6vkP2CwH-4" style="edgeStyle=orthogonalEdgeStyle;rounded=0;orthogonalLoop=1;jettySize=auto;html=1;entryX=0;entryY=0.5;entryDx=0;entryDy=0;strokeWidth=2;" edge="1" parent="1" source="ZFrBuDhP7MVDR-RA8Mfw-37" target="ZFrBuDhP7MVDR-RA8Mfw-38">
          <mxGeometry relative="1" as="geometry">
            <Array as="points">
              <mxPoint x="210" y="230" />
            </Array>
          </mxGeometry>
        </mxCell>
        <mxCell id="GXvS0G71m_cW6vkP2CwH-5" style="edgeStyle=orthogonalEdgeStyle;rounded=0;orthogonalLoop=1;jettySize=auto;html=1;entryX=0;entryY=0.5;entryDx=0;entryDy=0;strokeWidth=2;" edge="1" parent="1" source="ZFrBuDhP7MVDR-RA8Mfw-37" target="ZFrBuDhP7MVDR-RA8Mfw-39">
          <mxGeometry relative="1" as="geometry">
            <Array as="points">
              <mxPoint x="210" y="450" />
            </Array>
          </mxGeometry>
        </mxCell>
        <mxCell id="GXvS0G71m_cW6vkP2CwH-6" style="edgeStyle=orthogonalEdgeStyle;rounded=0;orthogonalLoop=1;jettySize=auto;html=1;entryX=0;entryY=0.5;entryDx=0;entryDy=0;strokeWidth=2;" edge="1" parent="1" source="ZFrBuDhP7MVDR-RA8Mfw-37" target="ZFrBuDhP7MVDR-RA8Mfw-40">
          <mxGeometry relative="1" as="geometry">
            <Array as="points">
              <mxPoint x="210" y="573" />
            </Array>
          </mxGeometry>
        </mxCell>
        <mxCell id="GXvS0G71m_cW6vkP2CwH-7" style="edgeStyle=orthogonalEdgeStyle;rounded=0;orthogonalLoop=1;jettySize=auto;html=1;entryX=0;entryY=0.5;entryDx=0;entryDy=0;strokeWidth=2;" edge="1" parent="1" source="ZFrBuDhP7MVDR-RA8Mfw-37" target="ZFrBuDhP7MVDR-RA8Mfw-41">
          <mxGeometry relative="1" as="geometry">
            <Array as="points">
              <mxPoint x="210" y="675" />
            </Array>
          </mxGeometry>
        </mxCell>
        <mxCell id="ZFrBuDhP7MVDR-RA8Mfw-37" value="Methods" style="rounded=1;whiteSpace=wrap;html=1;fillColor=#1ba1e2;fontColor=#ffffff;strokeColor=#006EAF;fontStyle=1" parent="1" vertex="1">
          <mxGeometry x="200" y="50" width="160" height="40" as="geometry" />
        </mxCell>
        <mxCell id="ZFrBuDhP7MVDR-RA8Mfw-38" value="&lt;span style=&quot;font-weight: 700;&quot;&gt;GET&lt;/span&gt;" style="rounded=1;whiteSpace=wrap;html=1;" parent="1" vertex="1">
          <mxGeometry x="250" y="210" width="120" height="40" as="geometry" />
        </mxCell>
        <mxCell id="ZFrBuDhP7MVDR-RA8Mfw-39" value="&lt;span style=&quot;font-weight: 700;&quot;&gt;POST&lt;/span&gt;" style="rounded=1;whiteSpace=wrap;html=1;" parent="1" vertex="1">
          <mxGeometry x="250" y="430" width="120" height="40" as="geometry" />
        </mxCell>
        <mxCell id="ZFrBuDhP7MVDR-RA8Mfw-40" value="PATCH" style="rounded=1;whiteSpace=wrap;html=1;fontStyle=1" parent="1" vertex="1">
          <mxGeometry x="251" y="553" width="120" height="40" as="geometry" />
        </mxCell>
        <mxCell id="ZFrBuDhP7MVDR-RA8Mfw-41" value="&lt;span style=&quot;font-weight: 700;&quot;&gt;DELETE&lt;/span&gt;" style="rounded=1;whiteSpace=wrap;html=1;" parent="1" vertex="1">
          <mxGeometry x="250" y="655" width="120" height="40" as="geometry" />
        </mxCell>
        <mxCell id="ZFrBuDhP7MVDR-RA8Mfw-42" value="" style="shape=image;verticalLabelPosition=bottom;labelBackgroundColor=default;verticalAlign=top;aspect=fixed;imageAspect=0;image=https://cdn-icons-png.flaticon.com/512/126/126580.png;" parent="1" vertex="1">
          <mxGeometry x="30" y="60" width="130" height="130" as="geometry" />
        </mxCell>
        <mxCell id="ZFrBuDhP7MVDR-RA8Mfw-43" value="" style="shape=image;verticalLabelPosition=bottom;labelBackgroundColor=default;verticalAlign=top;aspect=fixed;imageAspect=0;image=https://cdn-icons-png.flaticon.com/512/266/266141.png;" parent="1" vertex="1">
          <mxGeometry x="665" y="70" width="130" height="130" as="geometry" />
        </mxCell>
        <mxCell id="ZFrBuDhP7MVDR-RA8Mfw-44" value="" style="shape=image;verticalLabelPosition=bottom;labelBackgroundColor=default;verticalAlign=top;aspect=fixed;imageAspect=0;image=https://cdn-icons-png.flaticon.com/512/136/136489.png;" parent="1" vertex="1">
          <mxGeometry x="665" y="220" width="130" height="130" as="geometry" />
        </mxCell>
        <mxCell id="ZFrBuDhP7MVDR-RA8Mfw-45" value="" style="shape=image;verticalLabelPosition=bottom;labelBackgroundColor=default;verticalAlign=top;aspect=fixed;imageAspect=0;image=https://cdn-icons-png.flaticon.com/512/28/28982.png;" parent="1" vertex="1">
          <mxGeometry x="675" y="370" width="110" height="110" as="geometry" />
        </mxCell>
        <mxCell id="ZFrBuDhP7MVDR-RA8Mfw-46" value="" style="shape=image;verticalLabelPosition=bottom;labelBackgroundColor=default;verticalAlign=top;aspect=fixed;imageAspect=0;image=https://cdn-icons-png.flaticon.com/512/5639/5639854.png;" parent="1" vertex="1">
          <mxGeometry x="675" y="500" width="110" height="110" as="geometry" />
        </mxCell>
        <mxCell id="ZFrBuDhP7MVDR-RA8Mfw-47" value="" style="shape=image;verticalLabelPosition=bottom;labelBackgroundColor=default;verticalAlign=top;aspect=fixed;imageAspect=0;image=https://cdn-icons-png.flaticon.com/512/136/136484.png;" parent="1" vertex="1">
          <mxGeometry x="670" y="630" width="120" height="120" as="geometry" />
        </mxCell>
        <mxCell id="ZFrBuDhP7MVDR-RA8Mfw-48" value="&lt;b&gt;NoSQL database (Redis)&lt;/b&gt;" style="rounded=1;whiteSpace=wrap;html=1;verticalAlign=top;strokeWidth=2;" parent="1" vertex="1">
          <mxGeometry x="1020" y="40" width="180" height="720" as="geometry" />
        </mxCell>
        <mxCell id="ZFrBuDhP7MVDR-RA8Mfw-49" value="" style="shape=image;verticalLabelPosition=bottom;labelBackgroundColor=default;verticalAlign=top;aspect=fixed;imageAspect=0;image=data:image/png,iVBORw0KGgoAAAANSUhEUgAAA9QAAANICAYAAAAmcKe8AAAABGdBTUEAALGPC/xhBQAAAAFzUkdCAK7OHOkAAAAgY0hSTQAAeiYAAICEAAD6AAAAgOgAAHUwAADqYAAAOpgAABdwnLpRPAAAAAZiS0dEAP8A/wD/oL2nkwAAAAlwSFlzAAAASAAAAEgARslrPgAAgABJREFUeNrs3XdYVGf+NvB7hq7S7CL2jgWVFA3GqGASDXaxAENRGAUFNGXNpm42yW6STYwNhKEpqNhrTGJsiYKp2Htv2BVEepnn/WN/+JqNFWGeMzP357q+V7KJa+4ZOec895wz56iEECAiIiLjoNfrxeXLl3H27FmcPXsWFy9exK1bt5Cbm3t3bt++fXeKi4vv+/tYW1ujdu3aqFu37p/G2dkZdevWRcOGDdG6dWu0bt0ajRs3Vsl+3UREREqkYqEmIiJSnuzsbHHgwAHs378fx44dw9mzZ3Hu3DlcuHABpaWlBs1Sq1atu+W6devWaNu2Ldzd3eHu7g57e3uWbSIiMlss1ERERBKVlpaKffv2Yd++fThw4AAqS/TNmzdlR3sktVqNdu3aoUePHujRowd69uyJnj17om7duizZRERkFlioiYiIDCgvL0/89ttvyMjIQGZmJjIzM1FUVCQ7VrVq3bo1PD090adPH3h7e6N169Ys2EREZJJYqImIiGrQqVOnxE8//YSMjAz8/PPPOHr0qOxIBteyZUv07dsXL730Evr27Yu2bduyYBMRkUlgoSYiIqpG+fn54pdffsGGDRvwzTff4PTp07IjKU6rVq0wcOBAeHt7Y9CgQahTpw4LNhERGSUWaiIioqdQXl4u9u3bhy1btmDLli346aefUFZWJjuW0bCzs4Onpyd8fHwwfPhwtGjRguWaiIiMBgs1ERHRE7p+/br45ptvsGHDBvzwww8oKCiQHclkdO3aFUOHDsWoUaPQo0cPlmsiIlI0FmoiIqLHcPr0aVF5GfePP/6I8vJy2ZFMXosWLTBs2DD4+vrC09MTKpWKBZuIiBSFhZqIiOg+KioqREZGBjZs2IB169bh5MmTsiOZtebNm2PkyJEYPXo0evfuDbVazXJNRETSsVATERH9n/LycrF9+3asXLkSa9aswfXr12VHovtwcXHBmDFj4O/vj2eeeYbFmoiIpGGhJiIis1ZRUSF+/vlnrFixAsuWLcPVq1dlR6In0LJlS4wdOxYTJ05Eu3btWK6JiMigWKiJiMjs3Fuily5dimvXrsmORNXAzc0NgYGBCAoKQuPGjVmuiYioxrFQExGRWaioqBDbtm3DkiVLsHbtWuTm5sqORDXE0tISAwcOhEajwYgRI2Bra8tyTURENYKFmoiITNqhQ4dEWloaUlNTcfnyZdlxyMAcHR0xdOhQBAYGwtvbm8WaiIiqFQs1ERGZnCNHjohly5ZhyZIlOHHihOw4pBAdO3ZEcHAwLwknIqJqw0JNREQm4eLFi2LVqlVYsWIFMjMzZcchBbOwsED//v2h1WoxbNgwWFtbs1wTEVGVsFATEZHRunPnjli1ahUWLFiAnTt3Qq/Xy45ERqZBgwbw9/dHSEgIunXrxmJNRERPhIWaiIiMil6vF7t27UJaWhqWLFmC/Px82ZHIRFTeJXzChAlo0KAByzURET0SCzURERmFY8eOifT0dKSmpuLMmTOy45AJs7GxwcCBAxEYGIgRI0bA0tKS5ZqIiO6LhZqIiBQrNzdXrF+/Hmlpadi6dSt4zCJDa9KkCXx9fREaGoquXbuyWBMR0Z+wUBMRkaJUVFSI7du3IzU1FatWrUJhYaHsSEQAAA8PD2g0Gmg0GtStW5flmoiIWKiJiEgZKp8XvXDhQly5ckV2HKIHsrW1xZAhQ6DVauHl5QWVSsVyTURkplioiYhImlu3bomVK1dCp9MhKytLdhyiJ+bq6gp/f39otVq0bt2axZqIyMywUBMRkUGVlJSI9evXIzU1Fd9//z3Ky8tlRyJ6amq1Gv3798eECRMwcuRI2NraslwTEZkBFmoiIjKIrKwskZqaiiVLluDGjRuy4xDVGEdHR4wdOxaTJk1Cz549WayJiEwYCzUREdWY7OxssXLlSiQnJ2P//v2y4xAZXOWzrUNDQ1GvXj2WayIiE8NCTURE1aq4uFhs2LCBl3QT3YM3MiMiMk0s1ERE9NT0er3YtWsX0tLSkJ6ejjt37siORKRY7dq1g5+fHyZMmIDmzZuzWBMRGTEWaiIiqrKzZ8+KhQsXYsGCBTh79qzsOERGxdLSEq+99homTpyIQYMGwdLSkuWaiMjIsFATEdETufcu3d999x0qKipkRyIyeo0bN0ZQUBBCQ0PRtm1bFmsiIiPBQk1ERI+l8i7dixcvxs2bN2XHITJZHh4e0Gq18Pf3R+3atVmuiYgUjIWaiIgeKCcnR6xYsQLz58/H3r17ZcchMiuVj9/SaDTo06cPizURkQKxUBMR0Z/o9Xqxbds26HQ6rFu3DqWlpbIjEZm9ysdvTZw4EfXr12e5JiJSCBZqIiICABw7dkykp6cjJSUF58+flx2HiO7DxsYGQ4cO5eO3iIgUgoWaiMiM3blzR6xZswZpaWnYunUreEwgMh7NmjWDn58fwsPD0aJFCxZrIiIJWKiJiMxQVlaW0Ol0WLJkCfLz82XHIaKnoFarMWDAAGi1WgwfPhxWVlYs10REBsJCTURkJi5duiTS0tKQmJiIkydPyo5DRDWgcePGGDNmDEJDQ9G1a1cWayKiGsZCTURkwkpKSsQPP/yAtLQ0rFmzBuXl5bIjEZGBVD5+y8/PD3Xq1GG5JiKqASzUREQm6NChQyItLQ3Jycm4fv267DhEJJGDgwOGDRuGwMBAeHt7s1gTEVUjFmoiIhORm5srli9fDp1Oh6ysLNlxiEiBOnXqhKCgIEyYMAENGjRguSYiekos1ERERqyiokL88MMPSElJwfr161FSUiI7EhEZAVtbW4wYMQKhoaHo378/H79FRFRFLNREREbowoULYsmSJYiLi8PZs2dlxyEiI+bq6gp/f39ERESgefPmLNZERE+AhZqIyEgUFxeLDRs2QKfT8ZnRRFTt+PgtIqInx0JNRKRwlc+MTk9Px507d2THISIz0KRJEwQGBiIsLAxt2rRhsSYiegAWaiIiBbp8+bJYvnw5kpOTsX//ftlxiMhMqdVq9O7dG4GBgdBoNLCzs2O5JiK6Bws1EZFCVFRUiO3bt0On02Ht2rUoKyuTHYmI6C4nJyeMGTMGERERcHd3Z7EmIgILNRGRdAcPHhRJSUlYvHgxnxlNREbB09MToaGhGDNmDGrVqsVyTURmi4WaiEiCO3fuiDVr1iAtLQ1btmyRHYeIqEocHBwwbtw4aDQa9OnTh8WaiMwOCzURkQFV3mBsyZIlyM/Plx2HiKjauLm5ITAwEKGhoahXrx7LNRGZBRZqIqIaduXKFbFs2TIkJSXhwIEDsuMQEdUoW1tbDBkyBFqtFl5eXlCpVCzXRGSyWKiJiGqAXq8X27Zt4w3GiMistW/fHhMmTEBISAgaNmzIYk1EJoeFmoioGl24cEEsWbIE8+fPx7lz52THMStqtRrx8fH4/fffeUk9kcJYWFigf//+0Gq1GDFiBCwtLVmuicgksFATET2lkpISsX79euh0OmzduhXcr8ozaNAgfPvtt6q8vDyxdOlSpKamIjMzU3YsIrpH06ZNERAQgMmTJ6Nly5Ys1kRk1FioiYiq6NChQyItLQ2JiYm4efOm7Dj0f7Zs2QIvL6+7i/TDhw+L1NRUJCUl4caNG7LjEdH/UavVGDBgALRaLYYPHw4rKyuWayIyOizURERP4Pbt22LZsmWIj4/H7t27Zceh++jevTuysrKgVqv/tDjnlQREytW4cWOMGTMGYWFh6NKlC4s1ERkNFmoiokfQ6/Vi165dSEtLw6JFi1BYWCg7Ej3C0qVLMXbs2Acuyiu/6x4bG4vz58/LjktE9/Dw8IBWq0VAQABq1arFck1EisZCTUT0ABcvXhQpKSlISUnBmTNnZMehJ9CmTRscPnwY1tbWD12Ml5eXi40bNyIpKQnffvstKioqZEenamJpaYmuXbtiz549sqNQFTk7O0Oj0SA0NBRdu3ZlsSYiRWKhJiK6R0VFhdi+fTt0Oh3WrFmD8vJy2ZGoiubMmYPIyMjHXoRfvnxZpKamIiEhAadOnZIdn6rAwsICvXr1gq+vL8aNG4fExES89957smNRNag8az1+/HjY29uzXBORYrBQExEBOHbs2N2z0deuXZMdh6pB/fr1cerUKTg4ODzx4jsrK0vodDpe4m8EbG1t4e3tjSFDhmDEiBFo0KCBCvjvh2Nt2rTh4+tMjK2tLYYMGQKtVgtvb28WayKSjoWaiMxWUVGR+Oabb3iTKhP23nvv4eOPP67yorvyJnRxcXG8dFhB7Ozs4OXlBV9fXwwfPvy+H5qsXbtWjBgxQnZUqkEdO3ZEcHAwJkyYcPeDFCIiQ2OhJiKzU3n2MT09HXfu3JEdh2qQnZ0djh8/DldX16debGdlZYnU1FQsWrQIt27dkv3SzE6tWrUwYMAA+Pr6YsSIEY+87HfgwIFiy5YtsmOTAdjY2GDo0KHQarXw8vKCSqViuSYig2GhJiKzkJOTI1asWIHY2Fjs27dPdhwyoLCwMOh0umpbYBcXF4sNGzbwygYDcHJywsCBA+Hj44NRo0ahdu3aj/XneOLECdGhQwf+2ZihZs2awc/PDxEREWjevDmLNRHVOBZqIjJZer1ebNu2DTqdDuvWrUNpaansSCSBhYUF9u3bh86dO1f74prfva9+devWxWuvvQZfX1+88sorj7xT+/1ER0eLOXPmyH4pJJGFhQX69+8PrVaLESNGwNLSkuWaiGoECzURmZyLFy+KxYsXIy4uDmfPnpUdhxRg2LBhWLt2bY0tqEtLS8WmTZuQlpaG1atX8/FbT6hevXoYPHgwfH198eqrr8LKyqrKf1aFhYXC1dUVOTk5sl8WKUSTJk0QGBgIrVaL1q1bs1gTUbVioSYik1BSUiLWr1/Py3DpgXbu3Ik+ffrU+GI6OztbLFq0CPHx8Xx++UM0aNAAr776Knx9fTFo0KBqO4MYHx8vJk+eLPvlkQKp1WoMGDAAGo0Gvr6+sLOzY7kmoqfGQk1ERu3w4cMiNTUVSUlJuHHjhuw4pGDPP/88fv75Z4PdsIhfOfir5s2bY/jw4fD19cULL7wAtVpd7X8W7u7uYv/+/bJfKimcs7MzfH19MWXKFHTr1o3FmoiqjIWaiIxO5aOMUlNTkZmZKTsOGZHVq1djxIgRBl88V94Ub968eThw4IDst8GgWrZsiaFDh8LX1xeenp41+oHGzp07Rd++fWW/ZDIyHh4e0Gq18Pf3f+wb3xERVWKhJiKjUfm4q8WLF6OgoEB2HDJC7du3x8GDB5/qO7pPq/LneMmSJcjPz5f9ltSI1q1bw8fHB76+vga5zL7SuHHjxLJly2S/fDJSDg4OGDduHDQajUF/bonIuLFQE5GiXb58WaSmpiIxMREnT56UHYdMQFxcHCZNmiR9sZyXlyeWLl1qMldauLm5wdfXF2PGjIGbm5vB398rV66IFi1a8NJ6qhZubm4IDAxEaGgo6tWrJ31/QUTKxUJNRIpTUVEhtm/fDp1OhzVr1qC8vFx2JDIhDRs2xMmTJ2Fvb6+YRbKx3gugskSPGzcOHTt2lPp+/vOf/xQffvih7LeETIytrS2GDBkCrVYLLy8vg92DgYiMBws1ESnG8ePHRXJyMhYsWICrV6/KjkMm7J///Cfef/99xS2MjeFu9ZUl2t/fH+3atVPEe1heXi5atWqFixcvyo5CJqx9+/aYMGECQkJC0LBhQ0X87BORfCzURCRVcXGx2LBhg6ILBJmeOnXq4OTJk2jUqJFiF8UnTpwQixcvRkpKCs6fPy8th1qtRu/eveHr64tRo0bB1dVVce/ZypUrha+vr+wYZCasra3x8ssvIzAwECNHjoSFhYXitgkiMhwWaiKSIisrS6SmpmLRokW4deuW7DhkhqZOnYq5c+cqfiEs4ysQFhYW6NWrF3x9feHr6wsXFxdFv08DBgwQ27dvlx2DzFDTpk0REBCAyZMno2XLloreToioZrBQE5HBVD46aP78+di7d6/sOGTmrKyscOjQIcVctvw4Km/Sl5CQgFOnTlXr731viR43bpyiz97f68iRI6Jz5868uoWkUqvVGDBgALRaLYYPHy71SQJEZFgs1ERUo/R6vdi2bRtSU1OxcuVKFBUVyY5EdNeYMWOwbNkyo1v4CiFEZmYm0tLSsGjRIhQWFlbp97GxscHAgQMxZMgQjBgxAg0aNDC692Lq1KkiJiZGdgyiuxo3boygoCCEhoaibdu2RrdNEdGTYaEmohqRnZ0tFi1ahPj4eJw5c0Z2HKL7UqlUyMzMRO/evY120ZubmyuWL1/+2Fd+2NrawtvbG76+vhg+fDgcHByM9rXn5+eLpk2bIi8vT3YUovvy8PCAVqtFQEAAatWqZbTbGhE9GAs1EVWbyjsUp6am4rvvvkNFRYXsSESP1LdvX/z0008msdDNysoSOp0O6enpuHPnzt1/bmdnBy8vL/j6+mLEiBGKemTY04iNjRVTpkyRHYPokRwdHTF27FiEh4eje/fuJrH9EdF/sVAT0VPbv3+/SEpK4g3GyGh98803eO2110xmkZufny+WLVuG3377Da+99hpefvll2Nramszrq9S1a1dx8OBB2TGInkivXr0QGhqKsWPHok6dOia3XRKZGxZqIqqSvLw8sXTpUqSmpiIzM1N2HKKn0qlTJ+zfvx+WlpZc3BqJH3/8UfTv3192DKIqs7Ozg4+PD7RaLby9vbnvITJSLNRE9EQqLyldvHgxCgoKZMchqjbJyckICQnhotZI+Pr6ipUrV8qOQVQtOnXqhKCgIEycOBH169fnfojIiLBQE9EjXblyRSxbtgyJiYng5ZVkqpo2bYrjx4/zxkFG4PLly6JFixYoKyuTHYWoWtnY2GDo0KHQarXw8vKCSqXi/ohI4dSyAxCRMlVUVIgtW7aIMWPGiObNm2PatGks02TSsrOzMXfuXNkx6DHExcWxTJNJKikpwYoVKzBw4EB06NAB//jHP8SFCxd49otIwXiGmoj+5MSJE2Lx4sVISUnB+fPnZcchMignJyecPHkS9erV41khhSorKxOtWrVCdna27ChEBmFhYYH+/ftDq9VixIgRvNcDkcKwUBMRiouLxYYNG6DT6bB161Zwv0Dm7PXXX8dXX33FBatCLVu2TIwbN052DCIpXFxcoNFooNVq0bp1a+6niBSAhZrIjGVlZYnU1FQ+7oroHtbW1jhy5AgXqwrVt29fsXPnTtkxiKRSq9UYMGAANBoNfH19YWdnx/0VkSQs1ERmJjc3VyxfvhxxcXHYs2eP7DhEihQQEIC0tDQuUBXm8OHDokuXLryKhugezs7O8PX1xdSpU9G1a1fut4gMjIWayAzo9Xqxa9cupKWlYdGiRSgsLJQdiUjR1Go1fv/9d/Ts2ZOLUwUJDw8XcXFxsmMQKZaHhwe0Wi38/f1Ru3Zt7r+IDICFmsiEZWdni0WLFkGn0+H06dOy4xAZlZdffhmbNm3iglQh7ty5I1xdXZGXlyc7CpHiOTg4YNy4cZg0aRI/GCSqYSzURCamtLRUbNq0CWlpaVizZg3Ky8tlRyIyWj/88AMGDhzIxagCzJ07V0RFRcmOQWR03NzcEBgYiLCwMNStW5f7M6JqxkJNZCKOHj0qFixYgOTkZFy/fl12HCKT4O7ujt27d0OtVnMRKlmXLl3EoUOHZMcgMlq2trYYMmQItFotvLy8oFKpuF8jqgYs1ERGLC8vT6xduxZpaWnYsmWL7DhEJmnx4sXw8/PjwlOirVu3Cm9vb9kxiExGhw4dEBISgpCQEDRs2JD7N6KnoJYdgIieXEZGhggJCREuLi4ICgpimSaqIbVr18aBAwdkxzB7sbGxsiMQmZRjx47h7bffRvPmzTFu3DixZcsWodfreZaNqAp4hprISFy5ckUsW7YMSUlJXOAT1SC1Wo3evXsjMDAQ48ePh729Pc/eSHTp0iXRsmVLlJWVyY5CZNJcXV3h7++P8PBwtGjRgvs9osfEQk2kYBUVFeLbb79FUlISvv32Wy4oiWpQjx49EBAQgPHjx6NJkyZcTCrE+++/Lz755BPZMYjMhoWFBQYPHozQ0FAMHjwYlpaW3B8SPQQLNZECXbx4USxevBjz58/HuXPnZMchMllNmzbFqFGjEBwcjB49enDRqDClpaWiefPmuHr1quwoRGapcePGCAoKQlhYGNq0acN9JNF9sFATKURJSYlYv349dDodtm7dCm6bRDXD0dERQ4cOha+vLwYPHgwLCwsuEhVqyZIlwt/fX3YMIgLg4eEBrVaLgIAA1KpVi/tNov/DQk0k2ZEjR8TChQuRlJSEGzduyI5DZJIsLCzQv39/aDQajBo1CrVr1+Zi0Ah4enqKXbt2yY5BRPdwcnLCmDFjEBERAXd3d+5LyeyxUBNJcOfOHbFmzRo+7oqohnl4eECj0WD8+PF8NIyR2bdvn+jevbvsGET0EJVnrf38/FCnTh3uY8kssVATGdCuXbtEUlISli9fjvz8fNlxiExSu3bt4O/vj4CAAH7nz4itWbNGTJ06FZcuXZIdhYgewcHBAePGjUNoaCieffZZ7nfJrLBQE9Ww3NxcsXz5csTGxmLfvn2y4xCZJGdnZ/j6+kKj0cDT0xMqlYoLOhOg1+vFtm3bkJqaitWrV6OgoEB2JCJ6hE6dOiEoKAgTJ05E/fr1uS8mk8dCTVQD7l0Erly5EkVFRbIjEZkcW1tbeHt7IzAwEMOGDYO1tTUXbibs9u3bYt26dUhLS+ONG4mMgI2NDYYOHQqtVgsvLy9+0Ekmi4WaqBpdunRJpKWlQafT4fTp07LjEJkctVqN3r17IzAwEOPGjYODgwMXaGbo2LFjIj09HampqThz5ozsOET0CO3atcPEiRMRHByMRo0acb9NJoWFmugpVVRUiO3bt0On02HNmjUoLy+XHYnI5Li5ucHX1xdBQUFo1aoVF2ME4L9XA+3atQtpaWlYsmQJ701BpHCVT1zQarUYMWIELC0tuT8no8dCTVRFx48fF8nJyViwYAGuXr0qOw6RyXFxccHo0aPh6+uLPn36cNFFD5WXlyfWrl3LS8KJjISLiws0Gg0mTZrED0rJqLFQEz2B4uJisWHDBuh0Oi7YiGqAnZ0dfHx8oNFoMGjQIJ69oCq5cOGCWLJkCRISEnDq1CnZcYjoIdRqNQYMGACtVsv7YZBRYqEmegyHDh0SaWlpSExMxM2bN2XHITIplZcAajQajBw5ks8ypWrDS8KJjEvlExsiIyPRpUsXHgvIKLBQEz1AXl6eWLp0KXQ6HbKysmTHITI5bm5uCAwM5E1qyCCKiorEN998wyuMiIyEh4cHtFot/P39Ubt2bR4jSLFYqIn+R1ZWltDpdFi8eDGfeUpUzZo1awY/Pz+EhISgQ4cOXCCRFBcvXhSLFy9GYmIiTp48KTsOET2Eo6Mjxo4di8mTJ6NHjx48bpDisFATAbh69apYunQpEhMTcfDgQdlxiEyKk5MThgwZgsDAQD6LlBSn8kPU9PR03LlzR3YcInoIDw8PaDQaaDQa1K1bl8cSUgQWajJber1ebNu2DTqdDmvXrkVZWZnsSEQmw8bGBgMHDoSvry98fX1hZ2fHhQ8pWuVNJ1NTU/Hdd9+hoqJCdiQiegBbW1sMGTIEWq2WH9SSdCzUZHays7PFokWLEBcXh7Nnz8qOQ2RSKs8e+Pv7o379+lzgkFGqPE4kJyfj+PHjsuMQ0UN07NgRwcHBmDBhAho0aMDjDhkcCzWZhdLSUrFu3TqeeSCqAR07dsTYsWOh0WjQpk0bLmbIpGRlZYnU1FQsXryYT3kgUjAbGxsMHTqUZ63J4FioyaQdPXpULFiwAMnJybh+/brsOEQmo27duhg9ejQ0Gg369OnDRQuZvJKSErF+/Xqkpqbi+++/R3l5uexIRPQArq6u8Pf3R0REBJo3b85jFNUoFmoyOZXfg+OjUYiqV+V31jQaDV599VVYWVlxkUJm6dKlS2LFihVISUnBvn37ZMchogdQq9UYMGAAtFothg8fzuMW1QgWajIZvFMrUfVTq9Xo3bs3AgMDMX78eNjb23MxQnSPykvClyxZghs3bsiOQ0QP0KRJEwQGBiIsLIxfT6JqxUJNRi03N1csX74c8+fPx969e2XHITIZbm5uCAwMRGBgIJo0acKFB9EjlJSUiB9++AFpaWl8cgSRgt37QbFGo+FTKOipsVCT0RFCiMzMTKSlpWHRokUoLCyUHYnIJLi6umLkyJEIDg5Gjx49uMAgqqLLly+L5cuXY+HChdizZ4/sOET0AE5OThgzZgwiIiLg7u7O4x5VCQs1GY3s7Oy7Nxg7ffq07DhEJsHGxgajR49GWFgYXnzxRajVai4oiKrRH3/8IRYuXIj09HTeJZxIwTw9PREaGgpfX1/Url2bx0J6bCzUpGgVFRVi+/bt0Ol0vISOqAbZ2trC2dkZLi4uaNKkyZ/+/t5/1rRpUzg5OXGhQfSESktLxaZNm3hJOJHCOTg4YNy4cXyKBT02FmpSpBMnTojFixcjJSUF58+flx2HiO7xsPL9v3/fpEkTPguU6H/cunVLrFy5EjqdDllZWbLjENEDVN5PJDQ0FPXq1eOxjO6LhZoUo/IZn3zcFZHpqCzfj1PAGzduzEvOyewcOnRIpKWlYcGCBbh69arsOER0HzY2Nhg6dCi0Wi28vLz4QTH9CQs1SXf48GGRmpqKpKQkPnKEyIzZ2Nigbt26j1W+GzVqBAsLCy5oyGTc+xWndevWobS0VHYkIrqP9u3bY8KECQgJCUHDhg15HCIWapIjLy9PLF26FKmpqcjMzJQdh4iMUOUl5Y8q4M2bN4elpSUXPWQ0cnJyxIoVK3iMJFIwCwsL9O/fH1qtFiNGjOBxxoyxUJNBZWRkiKSkJKxYsQIFBQWy4xCRGVCr1WjQoAEaNmyIxo0bo1GjRmjQoMHdM92Vf9+wYUM0aNAAVlZWXBSRQQghxNWrV3H58mVkZ2fj0qVLuHTpEi5evIgrV67gwoULOHbsGEpKSmRHJaKHaNGiBSZMmIAJEybA1dWVxxAzw0JNNa7yk/aYmBjs379fdhwiooeytbV9rBuuNW/eHPb29lw40X0VFRWJy5cv49KlS7jfX0+fPo0LFy7wbt9EJkStVmPAgAHQarUYPnw4P6A1EyzUVCP0er3Ytm0bvwtGRCbtf+94/qDy7erqCkdHRy6sTEBpaam4ceMGHlWWc3JyZEclIokaN26MMWPGICwsDF26dOH+34SxUFO1On/+vEhJSUFycjIfd0VEdI86dercvbS8YcOGf/r7Dh06YMCAAVxwSXb16lVx5coVXLx4EZcuXbrvZdi8EzcRPQmVSoWXXnoJoaGhGDVqFGxtbbmvNzEs1PTUSktLxaZNm5CWloY1a9agvLxcdiQiIqOiVqvxyy+/4Nlnn+VCqwYUFxeLymL8oDPL586d4709iKhGOTo6YuzYsZg8eTJ69OjB/b2JYKGmKjt27JhISUlBSkoKrl27JjsOEZFRe/bZZ/HLL7/wWdxPKCcnR5w+ffqhZfny5cuyYxIR/YmHhwe0Wi3Gjx/P+3EYORZqeiIFBQVixYoVSEpKQkZGhuw4REQmJSkpCRMmTODCCsC1a9dE5Z2u770Mu/JS7MuXL+Pq1avgOoaIjFmdOnUwduxYhIaGolevXtz/GyEWanosWVlZIjU1FYsWLcKtW7dkxyEiMkn16tXDsWPHUK9ePZNdVD3O5dfnz59Hfn6+7KhERAbVsWNHBAcHIyQkBA0bNjTZ44CpYaGmB8rJyRGLFy9GYmIi9u3bJzsOEZFZCA8PR2xsrFEupK5fvy5OnTp19xnK93u+cl5enuyYRESKZm1tjWHDhmHixIkYOHAgvwqkcCzU9BdZWVlCp9Nh0aJFKCwslB2HiMisqNVq/Pzzz3juueeMagElhBCdOnXCsWPHZEchIjIZTZs2RUBAALRaLVq3bm1UxwVzwUJNAIArV66IhQsXIjExESdPnpQdh4jIrD3zzDP49ddfjeqsxObNm8XLL78sOwYRkUlSq9UYMGAANBoNfH19YWdnZzTHB1PHQm3G9Hq92LZtG3Q6HdauXYuysjLZkYiI6P/odDqEhYUZzYJp5MiRYs2aNbJjEBGZPCcnJ4wZMwbh4eHo3r270RwnTBULtRk6ffq0SE5OxoIFC5CdnS07DhER3Uf9+vVx9OhRo7hB2cWLF0WrVq1QXl4uOwpRjVGr1ejfvz9Onz6NM2fOyI5DBADo1asXJk6ciLFjx/LxW5KoZQcgwygpKRErVqwQAwcOFG3btsWnn37KMk1EpGA3btzAu+++KzvGY4mPj2eZJpPVpEkTzJgxAydOnMCWLVtUJ0+exObNm+Hr6wtra2vZ8cjM/fLLLwgLC0PDhg0xZswYsWXLFiF4xtSgeIbaxB05ckQsXLgQycnJuH79uuw4RET0BNRqNXbt2oXnn39esWcdysrKRMuWLXHp0iXZUYiqTeX3VbVaLUaMGAFLS8v7boM5OTlixYoVmDt3Lg4ePCg7NhEAoEOHDggJCeHjtwyEhdoE3blzR6xZswZpaWnYsmWL7DhERPQUPDw88Ouvv8LCwkKRi6KlS5eK8ePHy45BVC0q76gcHh6OFi1aPNE2x6ekkNJYWFigf//+j/xgiJ6SEIJjIvPHH38IrVYr6tSpIwBwOBwOx0QmLi5OyD7GPGj69u0r/f3hcJ5mLCwshLe3t1i+fLkoLy9/6m0tJydHxMfHi27dukl/bRxO5bi4uIgZM2aIU6dOKfZ4YqzDM9RG7saNGyItLQ1JSUk4dOiQ7DhERFQD6tati2PHjqF+/fqKOrtw8OBB0bVrV9kxiKqkXbt2mDhxIoKDg9GoUaMa2bYyMjJEQkICVqxYgaKiItkvmQhqtRpeXl6YOHEihg8fDhsbG0UdV4yS7EbPefKpqKgQO3fuFFqtVtjZ2Un/xIvD4XA4NT9hYWGKO6sQHh4u/X3hcJ5kbGxshK+vr9i8ebPQ6/UG26Zyc3NFfHy86NGjh/T3gMOpHCcnJ6HVasXu3bsVd3wxpuEZaiNy+fJlkZqaioSEBJw6dUp2HCIiMiC1Wo3MzEz06tVLEWcT7ty5I1xdXZGXlyc7CtEjVd6kacKECWjQoIHUbajyu9ZLlixBfn6+7LeGCMB/79eh0Wig0WhQt25dRRxnjIbsRs959NnozZs3C19fX2FpaSn9kywOh8PhyJuePXtWy3c8q2PmzZsn/f3gcB42tra2Us5GP+7k5eWJ+Ph44enpKf294nCMZbtR4vAMtUJduHBBLFmyBLGxsTh//rzsOEREpBAxMTGIiIiQfvagW7du4sCBA7JjEP1Fp06dEBQUhNDQUNSrV0/6tvI4Dh8+fPcqxFu3bsmOQwQAaN++PSZMmFCj9xkwBSzUClJSUiLWr18PnU6HrVu3gn82RET0v5ydnXH06FGpzxb96aefRL9+/WS/FUR32draYsiQIdBqtfD29jbahX9xcbHYsGEDdDodH31KisHHbz2C7FPkHIEDBw6I6OhoUbduXemXeXA4HA5H+RMSEiL1MryxY8dKfw84HADi2WefFTqdTuTl5Zncpan79+8XkZGRwtnZWfr7zOFUjqurq3jvvffEiRMnTG6b4yXfRoafQBIRUVWpVCpkZmaid+/eBj9LcOXKFdG8eXOUlZXJfhvITDk4OGDcuHGYPHkyevToYfJnyngFIymVh4cHtFotxo8fD3t7e5PfFh+EhdrAfvvtN5GYmIilS5fizp07suMQVRsHBwc4OjrC1tYWDg4Od/+5vb09LC0tAQDW1taoXbv23X/n5OQEleq/+9+CggKUlpYCAMrLy/+0feTl5aGiogIAUFJSgsLCQuTm5uL27dt3/zmRuenRowd+//13WFhYGHQR8/HHH4sPPvhA9ssnM+Tp6YmwsDD4+vqiVq1aZrl4P3LkiEhMTERqaipu3LghOw4RAKBOnTrw9fXFhAkT4OnpCVXl4s5MsFAbQE5OjkhLS0NiYiJ4AxdSuvr166Nx48Zo2rQpGjdujIYNG8LZ2fluYb53HBwc4OTkVFmMpew8CwoKxO3bt1E5eXl5uH37NnJycu7+s9zcXFy8eBFXr169+1eeXSNTMHfuXEydOtVg2155eblo1aoVLl68KPulk5moV68eNBoNwsLC4ObmZlaL9IcpKSkRa9asQUJCArZv386z1qQY7dq1Q3BwMAIDA+Hq6moW2ywLdQ0RQogff/wRiYmJWL16NYqLi2VHIjNnaWmJFi1aoE2bNnBxcYGrqysaNWp0tzg3bdoUjRo1go2NjVns/K5evSquXbv2l6J98eJFnDt3DidPnuRVJKR4Tk5OOHr0qMHuvrpmzRoxcuRI2S+bTJxKpUK/fv0QFhaGkSNHms1xqapOnDghkpKSsGDBAly9elV2HCIA/72R2cCBAxEcHIxhw4bB1tbWZLdjFupqduXKFbFw4UIkJibi5MmTsuOQmbG0tETz5s3RunXrv4ybmxvs7OxMdmdWE3JycsTp06dx7xw6dAiHDh1Cbm6u7HhEAIDg4GCkpKQYZNv29vYWW7dulf2SyUQ5OzvD19cXkZGR6NKlC49XT6iiokJs374dOp0Oq1ev5leiSDEcHR0xduxYaDQa9OnTx+S2bRbqalBRUSG+//57JCYm4ptvvkF5ebnsSGTiLCws0K5dO7i7u6N79+7o1q0b2rVrh5YtW8LKysrkdlRKdOPGDXHy5EkcOnQI+/btw969e7F//37cvn1bdjQyMyqVCjt27KjxRcqxY8dEp06deGkpVSu1Wo2BAwciNDQUw4YN4zGsmpw9e1YkJSUhOTkZly5dkh2H6K6uXbsiJCQEAQEBaNCggUls7yzUTyE7O1ssWrQIcXFxOHv2rOw4ZKKsra3Rtm1beHh43J0ePXqgdu3aJrETMjWXLl0SWVlZOHz4MA4dOoSsrCwcOXKEJYRqVJcuXbBnz54afTbotGnTxOzZs2W/VDIRTZo0QWBgILRaLVq3bs3jWQ3R6/Vi27Zt0Ol0WLNmDU/6kGLc+2zr4cOHG/WHaSzUT6i0tFSsW7cOiYmJ2LJlC/R6vexIZELUajU6d+6MF198EZ6ennj22WfRpk0bqNVqo93J0H8vHd+7dy927dqFzMxMZGZmIi8vT3YsMjGzZs1CdHR0jewrCgoKhKurK7/qQE/FwsICgwYNQlhYGAYPHlyjHwDRX128ePHuWevz58/LjkN0V+PGjREQEICQkBCjvPkgC/VjOnbsmEhJSUFKSgquXbsmOw6ZCEtLS7i7u8PT0xN9+vTBgAEDUK9ePaPbkdCT0ev14siRI8jMzERGRgYyMjJw5swZ2bHIyDk4OODIkSNwcXGp9n1IQkKC0Gq1sl8iGammTZsiICAA4eHhaNGiBY9xkt171nrt2rV86gUpioeHBzQaDQICAoxmTcxC/RCFhYVi+fLlSExMRGZmpuw4ZAJsbGzw0ksvoV+/fujTpw+effZZk77rIT2+s2fPioyMDOzcuRObNm3CuXPnZEciIxQQEIC0tLRq36f07NlT7NmzR/bLIyNiZWWFIUOGICwsDC+//DKvtFKoy5cvi5SUFCQlJeH06dOy4xDdZWdnhxEjRiA4OBheXl6K3oewUN9HVlaWSExMRHp6Om8wRE+tefPmGDRoEAYPHgwvLy9+95key6FDh8S3336L7777DhkZGTyDQI9FpVLhxx9/RN++fattP/Pzzz+LF154QfZLIyPRtm1bhIaGIigoCI0bN+bxzkjo9XqxdetWJCQkYN26dSgtLZUdieiu5s2bIzg4GCEhIWjZsqXi9iss1P8nLy9PLF26FPHx8di9e7fsOGTELCws0L17d/j4+GDIkCHo2bMnVCqV4jZ+Mh4FBQVi27Zt+Oabb/Dtt9/i4sWLsiORgnXu3Bl79uypthu8aDQasWjRItkvixTM2toaw4YNg1arhZeXF495Ri4nJ0esWLECc+fOxcGDB2XHIbpLrVajd+/eCAwMREBAAGrVqqWMfY0Qwqxnx44dIjAwUNjZ2QkAHE6VxsbGRowcOVIsX75c5ObmCtk/1xzTHb1eL7KyssS7774rWrVqJf1nn6PMmTlzZrXsh65duyZsbGykvx6OMqdTp05i5syZ4vr16zzumeDo9Xqxfft24efnJ2xtbaX/vHE4907dunVFZGSk2Lt3r/T9j/SNVcZcvXpV/Oc//xEdOnSQ/sPAMd5Rq9ViwIABIikpSeTk5EjfmDnmN3q9XuzatUtERkaKRo0aSd8mOMoZBwcHcenSpafeL3322WfSXwtHWWNnZycCAwPFzp07edwzo7l586b4+uuvhZubm/SfQQ7nf8fDw0PExMRIO6klfQM11FRUVIjNmzcLX19fYW1tLf0PnmO84+bmJj788ENx5swZLiY4ipmKigqxc+dOodVqhYODg/TthCN//P39n2ofVVFRwasgOHenU6dO4rPPPhM3btzgsc/M548//hBarVbUrl1b+s8lh3Pv1KlTR2i1WnH48GGD7qekb5Q1PefPnxf/+Mc/RPPmzaX/IXOMd+rXry/efvttcfToUS4kOIqfwsJCsWzZMvHSSy9J33Y48kalUont27dXeZ+1YcMG6a+BI3fq1KkjQkNDxa+//spjH+cvk5OTI+bNmyfc3d2l/6xyOPeOWq0WQ4cOFdu2bTPIvkv6xlgTU15efvdstKWlpfQ/VI7xTo8ePUR8fLwoKCjgYoJjlHP06FERFRXFMwlmOm5ubqK0tLRK+69BgwZJz8+RMx4eHmLWrFni1q1bPPZxHmsqz1rb29tL//nlcO4dd3d3ER8fLwoLC2tsfyZ9A6zOOXbsmPjb3/7G7xJynmqsrKzE2LFjRUZGBhcSHJOZmzdvii+++IKX8Jrh/Oc//3nifdmpU6eEWq2Wnp1juHF0dBQRERFiz549PPZxqjx5eXkiPj5ePPPMM9J/pjmce6dhw4bis88+E/n5+dW+j5O+4T3tFBYWitTUVPHSSy8JlUol/Q+LY7xTv3598f7774vs7GwuJjgmO+Xl5WLt2rWiX79+0rc5jmHG3t5eXLx48Yn2a2+99Zb03BzDzAsvvCBSUlJ4JRan2mf37t0iPDxcODo6Sv8553Aqp2HDhmLmzJnVesZa+sZW1Tl06JCYMWOGqFevnvQ/GI5xT4MGDcSHH37Ix11xzG4yMzOFj4+P9G2QU/Mzbty4x96/FRcXiwYNGkjPzKm5cXJyElqtVhGPm+GY/hQVFYnly5cLb29vnvziKGYqz1gXFRU99X5Q+kb2JHP79m0RFxfHy0g41TL169cXM2fO5KfyHLOfn3/+WXh5eUnfJjk1O1u3bn2sfd3ChQulZ+VU/6hUKtGvXz+xePHiallAcjhVmQMHDoioqCjh7OwsfZvgcACI5s2bC51OJ8rLy6u8X5S+YT3OVN7ooE6dOtLfdI7xj52dnZgxYwafHc3h/M9s3rxZ9OjRQ/o2yqmZad++vSguLn7kfu+5556TnpVTfePs7Cy0Wq04cOAAj3kcxUxxcTHPWnMUNe7u7mLHjh1V2k9K36AeNNevXxczZ87kA+Q51TYqlUr4+fmJCxcucFHB4TxgKioqRFJSEi/5NdH5/PPPH7r/++OPP6Rn5Dz9qNVq8fLLL4sVK1aIkpISHvM4ip4jR46IN954g8cdjvRRqVRCo9GI69evP9F+U/pG9L/z448/inHjxgkbGxvpbyrHdKZz585P9TxWDsfc5tatWyI8PFxYWFhI33451Td16tR56IeKEyZMkJ6RU/VxcXER7777rjh9+jSPdxyjm+LiYrF06VLh5eXFs9YcqdOwYUOxfPnyx96PSt94hBDIzc0Vc+bM4dloTrWPtbW1+OSTT6r8HFYOx9znt99+477ZxMbX1/e++8Nbt26JWrVqSc/HebKxsLAQPj4+Yt26daKsrIzHOo5JzMmTJ8Xbb78tGjduLH0b45jv+Pn5iby8vEfuV6VuLH/88YcIDQ0VtWvXlv6GcUxvunfvLvbt28fFBYfzlFNUVCT+9re/8Wy1Cc0PP/zwl33jzJkzpefiPP60aNFCfPTRR/waE8ekp7S0VKxatUq8+uqrQq1WS9/uOOY37du3f+QTEQy+YRQWFork5GTBm55wampUKpV48803eVaaw6nm2blzp3B1dZW+jXOefjp06PCn79bq9XrRrl076bk4Dx8rKysxcuRI8e2334qKigoe4zhmNWfPnhXvv/++aNq0qfRtkWNeU7t2bbF+/foH7nMNthHcunVLfPzxx7zhAKdGp27dug/9gedwOE83169fF6+++qr0bZ3z9POvf/3r7r5y06ZN0vNwHjxt27YV//73v8Xly5d5fOOY/ZSXl4v169eLIUOG8MopjsHGwsJCzJ8//7774Br/oc/OzhZvvvmmsLe3l/5GcEx7OnfuzBuxcDgGmIqKCvHuu+9K3+Y5Tze1a9cW586dE0IIDBs2THoezp/HxsZGjBs3TmzZskXo9Xoe2zic+8zFixfFP//5T9GiRQvp2yzH9EelUon4+Pi/7I9r7Af8+PHjIiwsjHfr5hhkvL29RW5uLhccHI4BJyUlRVhbW0vf/jlVn5EjR4pz587xLI+CpmPHjuKrr7564se2cDjmPBUVFeK7774TI0eOFFZWVtK3Y47pjlqtFitXrvzT/lklhEB1Onz4sPjoo4+watUqVFRUVOvvTXQ/AQEBSE5OhpWVlUp2FiJzs2XLFjFs2DAUFhbKjkJV9NJLL+Gnn36SHcOs2dnZYfTo0QgLC8OLL77IYxnRU7hy5YpYsGABEhMTcerUKdlxyATVqVMHv/zyCzp37qwCUH2F+sqVK+If//gHkpKSUF5eLvt1kpkICQlBYmIi1Go1FyBEkvz000/Cx8cH+fn5sqMQGZVu3bohLCwMAQEBcHJy4nGMqBoJIcS2bduQkJCAtWvXoqSkRHYkMiHdu3fH77//DktLS9VTF+qCggLx1Vdf4T//+Q8XU2RQwcHBSEpKYpkmUoAdO3aIV155BcXFxbKjEClanTp1MHbsWISFheH555/n8YvIAK5fvy5SU1ORkJCAY8eOyY5DJmL27NmIioqqeqHW6/Vi1apVeOutt3Du3DnZr4fMTP/+/fH999/D2tqaixEihVi5cqUYO3Ys9Hq97ChEiuPh4QGNRoPAwEA4Ozvz2EUkSVZWltDpdFi0aBG/rkRPxcXFBWfOnKnaJd+///670Gq12Lt3r+zXQWaoa9euyMzMhL29PRckRArzxRdfiBkzZsiOQaQIjo6O8PPzQ1hYGHr06MFjFpGC5OTkiLS0NCQkJODgwYOy45CRWrZs2ZMV6oKCAvH+++9jzpw5vOEYSVG7dm388ccf6NixIxcmRAokhBBDhw7FN998IzsKkTQvvPACwsLCMGbMGNSqVYvHKyKF+/nnn0VCQgKWLVvGs9b0REJCQh6/UP/xxx/C398fx48fl52bzFhKSgqCg4O5OCFSsBs3boju3bsjOztbdhQig6lbty40Gg3CwsLu3vmViIzL7du3xZIlS5CQkIA9e/bIjkNGoFOnTo8u1EII8eWXX+K9995DaWmp7Mxkxry9vbF582YuUoiMwMqVK4Wvr6/sGEQ1SqVSoW/fvggLC8OoUaNga2vLYxSRifjjjz9EQkIC0tPTcefOHdlxSKGcnJweXqgLCgpEcHAwVq5cKTsrmTkrKyvs27cPnTp14mKFyEgMHDhQbNmyRXYMomrXsGFDBAUFITQ0FO3bt+dxiciE5efni6VLlyIhIQG//fab7DikQA8s1NnZ2WLw4MHYv3+/7IxEmDRpEuLi4rhoITIie/bsET179pQdg6haqNVqeHl5ISwsDMOGDeNTJojM0L59+0RCQgIWLVqE27dvy45DCnHfQn3mzBkxcOBAnDp1SnY+IlhYWODIkSNo164dFy9ERubll18Wmzdvlh2DqMoaN26MoKAgaLVatG7dmschIkJxcbHYsGEDdDodtm7diqo+hphMw18K9enTp0WfPn1w+fJl2dmIAADDhg3D2rVruYghMkLffvuteO2112THIHoiFhYWePXVVxEWFobXXnsNlpaWPAYR0X0dOnRIzJs3D/Hx8SzWZsry3v9x48YNMXjwYJZpUpRx48bJjkBEVTRw4EDUrVsXt27dkh2F6JFcXFyg0WgwefJktGzZkiWaiB7q6NGjIi0tDStXrmSZNmN3z1Dr9Xrh7e2N7du3y85EdJeNjQ2uX78Oe3t7LmyIjFRISIhYsGCB7BhE92VlZQUfHx+EhYXhlVdegVqt5vGGiB6ooKBALFu2DImJifj5559lxyEFuHuG+t///jfLNClO9+7dWaaJjFyfPn3AQk1K06ZNG0ycOBEhISFo3LgxjzNE9FBZWVkiMTERS5YsQV5enuw4pCCWwH9vQvbxxx/LzkL0Fx4eHrIjENFT4p2+SSmsra0xbNgwaLVaeHl5QaVSsUgT0QPl5eWJpUuXQqfTISsrS3YcUihLAPj73/+OkpIS2VmI/qJ9+/ayIxDRU+rQoYPsCGTmOnbsiNDQUAQFBaF+/fos0UT0ULt27RKJiYlYvnw5CgoKZMchhbO8dOmSWLVqlewcRPfl7OwsOwIRPaVatWqpbGxsBD+4JRlGjBgBnU7HIk1ED3Xr1i2RlpaGhIQEHDp0SHYcMiLqJUuWoLy8XHYOovuyt7eXHYGIqoGDg4PsCGSm1qxZA1dXV/j5+Ynt27cLwVvxEtH/EUKIH3/8Ufj7+4umTZti2rRpLNP0xCx//PFH2RmIHqiwsFB2BCKqBvn5+bIjkBkrKSlBeno60tPT0bZtW/j7+4uJEyeiWbNmPGtNZIauXr0qli5disTERBw8eFB2HDJy6n379snOQPRAubm5siMQ0VMqKSkRRUVFsmMQAQBOnjyJjz76CG3atMHo0aPFpk2bhF6v51lrIhOn1+vFpk2bxOjRo0WzZs0wbdo0lmmqFpY3b96UnYHogc6ePSs7AhE9pVOnTsmOQPQXZWVlWLVqFVatWoWmTZsiICBAhIeHo0WLFjxrTWRCLl++LFJTUxEfH48zZ87IjkMmSM2zBqRkfEQBkfHbs2eP7AhED5WdnY3PP/8cbdq0wbBhw8SGDRtERUUFz1oTGany8nKxfv16MWTIENGsWTO8/fbbLNNUY1QAeMAgxXJ0dMT169dhZWXFMwZERioyMlLMmzdPdgyiJ9K0aVNMmDABEydO5FlrIiNx5swZkZSUhJSUFFy6dEl2HDITLNSkeN9//z1eeeUVLmaIjJAQQrRo0QIXLlyQHYWoStRqNQYMGACtVovhw4fzA14ihSktLRWbNm1CWloaVq9ejYqKCtmRyMywUJPihYaGIiEhgQsYIiOUmZkp+vTpIzsGUbVo3LgxgoODMXHiRLRt25bHJSKJjh07JhITE5Gamopr167JjkNmjIWaFK9WrVo4d+4c6tevz8ULkZEZN26cWLZsmewYRNXOw8MDWq0WGo0GdnZ2PD4RGUBJSYlYv349dDodtm7dCj5WnpSAhZqMwkcffYQPPviACxYiI3LmzBnRvn17lJeXy45CVGOcnJwwZswYTJkyBd26deNxiqgGHD16VCxYsABJSUm4ceOG7DhEf8JCTUahbt26OHbsGM9SExkRjUYjFi1aJDsGkcG8+OKLCAsLw+jRo3nWmugp5efni2XLliExMRG//PKL7DhED8RCTUZj0qRJiIuL4wKFyAhkZGSIvn378nI8MkuOjo4YO3YswsPD0b17dx63iJ5AVlaWSE1NxaJFi3Dr1i3ZcYgeiYWajIZarcaOHTvg6enJxQmRghUVFYlnnnkGhw8flh2FSLpevXohLCwMY8eORe3atXn8IrqP27dvi8WLFyMxMRF79uyRHYfoibBQk1Fp1qwZ9u7di7p163JRQqRQkyZNEjqdTnYMIkWxt7fH+PHjodFo0KdPHx7DiPDfs9E6nQ6LFy9GQUGB7DhEVcJCTUZnxIgRWLVqFVQqFRckRAqTnp4u/Pz8ZMcgUrSePXsiLCwMfn5+cHBw4LGMzMrNmzdFWloaEhISeCUTmQQWajJKM2bMwGeffcZFCJGC/Prrr2LAgAEoLCyUHYXIKNja2mLIkCHQarXw9vbmMY1MWuXZ6EWLFvE4QSaFhZqMVkxMDCIiIrgAIVKAI0eOiBdffBE3b96UHYXIKHXt2hWhoaHQaDRwdnbmsY1MwpUrV8TChQuRmJiIkydPyo5DVCNYqMloqVQqzJ07F1OmTOHCg0iiY8eOiQEDBuDSpUuyoxAZPRsbGwwdOhRarRZeXl78ehMZHb1eL7Zt2wadToe1a9eirKxMdiSiGsVCTUZNpVIhJiYG4eHhXHAQSXDo0CHh5eWFq1evyo5CZHI6duyI0NBQBAYGokGDBjzOkaJdvHhRJCcnIykpCefPn5cdh8hgWKjJJERFReHrr7+GWq3mgoPIQDIyMsSIESNw48YN2VGITJq1tTWGDRvGs9akOPeejV6zZg3Ky8tlRyIyOBZqMhnjx49HSkoKbGxsuNAgqmFJSUkiPDycl/IRGVibNm0QGhqK4OBgNG7cmMc7kuL06dMiKSkJKSkpuHz5suw4RFKxUJNJ6dmzJ5YvX442bdpwkUFUA0pKSsTf/vY3zJkzR3YUIrNmYWGB/v37Q6vVYsSIEbC0tORxj2pUaWmpWLduHVJTU/Hdd9+hoqJCdiQiRWChJpPj4OCApKQkjB49mosLomp07tw5MWbMGPz222+yoxDRPZo2bYqAgABMnjwZLVu25LGPqtXx48dFcnIyUlJScO3aNdlxiBSHhZpMkkqlQlhYGL788kvY29tzcUH0FIQQIiEhAW+++Sbu3LkjOw4RPYBarcaAAQOg1WoxfPhwWFlZ8fhHVVJSUiLWr18PnU6HrVu3QgjWBaIHYaEmk9aqVSskJSWhf//+XFQQVcH58+dFaGgoNm/eLDsKET0BFxcXTJgwARMnTuRZa3ps+/fvFwkJCVi8eDFycnJkxyEyCizUZPJUKhUCAgLw5ZdfomHDhlxUED2G8vJyERMTgw8++AB5eXmy4xBRFd171nrYsGGwtrbmcZD+pLi4WGzYsAE6nQ5btmyRHYfI6LBQk9lwdnbGp59+Cq1WCwsLCy4oiB7gxx9/FFOnTsWhQ4dkRyGiatSoUSMEBQUhNDQU7dq143HQzP3+++8iMTER6enp/DoP0VNgoSaz06lTJ3z00Ufw9fXlYoLoHkePHhUffPABVq5cye/LEZk4Dw8PaLVaBAQEoFatWjwemom8vDyxdOlSxMfHY/fu3bLjEJkEFmoyW/3798dnn32G5557jgsJMmsXLlwQ//znP5GSksLHoBCZmXr16kGj0SAsLAxubm48HpqojIwMkZiYiBUrVqCwsFB2HCKTwkJNZs/T0xMff/wxb1xGZuf8+fPiq6++gk6nQ3Fxsew4RCRZ5Vlrf39/1K5dm8dEI5ebmyuWL1+OmJgY7N+/X3YcIpPFQk30fwYOHIi33noL3t7eUKlUXEiQyTp48KCYNWsW0tLSUFpaKjsOESmMk5MT/P39ERYWBnd3dx4PjYgQQmzfvh0JCQlYs2YNSkpKZEciMnks1ET/o127dpg4cSImTZoEJycnLiTIJOj1erFt2zbMnj0bGzdu5HekieixVJ61Hj9+POzt7XlMVKgrV66IhQsXIjExESdPnpQdh8issFATPYC9vT3Gjx+P6Ohofq+MjNbt27fFggULMGvWLJw9e1Z2HCIyUnZ2dvDx8YFWq4W3tzePiQpQ+UGpTqfD2rVrUVZWJjsSkVlioSZ6BJVKhVdeeQVTp07Fq6++ykdukVHYu3eviI2NxeLFi3kDGiKqVt27d0dYWBj8/f3h6OjIY6KBXbhwQSQnJyM5ORnnz5+XHYfI7LFQEz2BevXqYdSoUdBoNPD09OR3rUlRLly4IFavXo3U1FQ+DoWIapytrS2GDBkCrVYLLy8vHhNrUEVFhdi+fTt0Oh3WrFmD8vJy2ZGI6P+wUBNVUYsWLTBu3DgEBwejY8eOXESQFLdu3RLffPMN0tLSsHXrVn43moik6NChA0JCQjBx4kTUr1+fx8RqcvHiRbF48WLExsbybDSRQrFQE1WDnj17ws/PD2PHjoWrqysXElSjbt++LdatW4f09HRs2bKFZyqISDFsbW0xatQohIWFoW/fvjxrXQUlJSVi7dq1SEhIwLZt2/hBKZHCsVATVbPWrVvDx8cHQ4YMwUsvvQQrKysuJuipnT59WmzYsAHffPMNduzYwcddEZHiVT41IyQkBA0bNuSx8BGOHz8ukpOTkZKSgmvXrsmOQ0SPiYWaqAbVqVMH/fr1w5AhQ+Dj4wMXFxcuKOixFBUViczMTGzYsAHr1q3DuXPnZEciIqoSa2trvPzyywgMDMTIkSN5c897lJSUiPXr10On0/FrO0RGioWayEDUajWeeeYZDBo0CP3798dzzz0HOzs7LioIAFBeXi727duHnTt34vvvv8dPP/2E4uJi2bGIiKpV69at7561btKkidkeA/ft2ycSExOxaNEi5Obmyo5DRE+BhZpIEktLS7i7u8PT0xN9+vRBv3790KBBA7NdXJibwsJCsXv3bmRmZiIjIwOZmZnIycmRHYuIyCDUajUGDBgArVaLESNGwNLS0uSPf0VFReKbb76BTqfDli1bZMchomrCQk2kECqVCh07dkSfPn3Qp08feHp6ok2bNia/wDAXV69eFbt27cLOnTuRmZmJ3bt382ZiREQAmjVrhgkTJmDixIlo1qyZyR33fvvtN5GYmIilS5fizp07suMQUTVjoSZSMEdHR3Tp0gWdO3eGm5sbPDw84OHhwUvFFe7SpUsiKysLlXP48GGcPn1adiwiIkW796z18OHDjfqmnrdv3xbLli1DXFwc9uzZIzsOEdUgFmoiI2NlZQU3Nzd0794d7u7ud6devXpGu/AwVvn5+eLw4cPYu3fv3Tlw4ADy8/NlRyMiMmpNmjS5+1zr1q1bG83xLSMjQyQkJGDFihUoKiqSHYeIDICFmshEODs7o3Xr1vedVq1a8VmgVVRcXCxOnTp19yzzvXP27Fno9XrZEYmITJZarUbv3r0RGBgIjUajyCu0cnNzxfLlyxETE4P9+/fLjkNEBsZCTWQGHB0d0bZtW7Rt2xZt2rSBi4sLXF1d0bBhQ7i6uqJRo0awtrZW3CKlpun1enH16lVcvnwZly5dujtnz57FiRMncPLkST4LlIhIIRo2bIjAwECEhoaiQ4cOUo9ZQgixbds2JCQkYO3atSgpKZH99hCRJCzURATgvwuVRo0a3S3YTZs2RaNGjdCoUSM4OzvDwcEBjo6Od6dWrVqKK+ClpaXi9u3bqJycnJy7f83Ozr5bnCv/evXqVVRUVMiOTURET0ClUqFv374ICwvDqFGjYGtra7Dj0eXLl8WCBQuQlJSEU6dOyX4riEgBWKiJqEosLS3vlmtnZ2c4OjrCwcEBtWvXRu3ate/+OicnJ1RebW5nZwdbW1sA/72Mz9HR8e6vKywsvPsJf3l5+Z/uhJqbmwsh/rurKigoQGlp6d2yfO/wuc1EROalbt260Gg0CAsLQ+fOnWukWFdUVIjvv/8eCQkJ2LhxI5/QQER/wkJNREREREbPw8MDWq0Wfn5+qFOnzlOX6+zsbLFo0SLExcXh7Nmzsl8eESkUCzURERGZDZVKhWbNmqFDhw5wcnLCihUrZEeiaubo6Ag/Pz+EhYWhR48eT1SsS0tLxfr165GYmIjNmzfzxpNE9Egs1ERERGRybGxs0KZNG3Tu3PnuEw/c3Nzg7u4Oe3t7FQD4+vqKlStXyo5KNcjDwwMajQaBgYFwdnZ+YLk+fvy4SE5ORkpKCm9GSURPhIWaiIiIjJazszPc3NzuFufKv2/ZsiXUavUDC1RqaqoICgqSHZ8MxNbWFkOGDIFWq4W3t7cKAEpKSsT69euh0+mwdevWu/fqICJ6EizUREREpGh16tRB+/bt0aFDB3Ts2BEdOnS4+7+r8sSBixcviq5duyI3N1f2SyMJ3N3d4eHhgdWrV/NngIieGgs1ERERKUJVzzY/CSGEeO211/Ddd9/JfrlERGQCLGUHICIiIvPxv99trizNHTp0qJY7Mz/K/PnzWaaJiKja8Aw1ERERVTtDnG1+UmfOnBHu7u5/es49ERHR0+AZaiIiIqoS2Webn4RerxfBwcEs00REVK1YqImIiOihmjRp8pfHT8k+2/ykvvrqK+zYsUN2DCIiMjG85JuIiIiM6mzzkzpy5Ijo2bMniouLZUchIiITwzPUREREZuRBZ5tbtWoFlUpl1MX5fsrLy0VQUBDLNBER1QgWaiIiIhPzoLPNHTt2RO3atU2uND/Mxx9/jN9//112DCIiMlG85JuIiMhI3Xu2+d47apvq2eYntWfPHvH888+jrKxMdhQiIjJRLNREREQKxrPNVVNSUiKeeeYZHDx4UHYUIiIyYbzkm4iISAF4trl6vfvuuyzTRERU43iGmoiIyEAcHR3Rtm3bv9wQjGebq1dmZqZ46aWXUFFRITsKERGZOBZqIiKiasazzfIUFBSI7t274+TJk7KjEBGRGeAl30RERFXAs83K9MYbb7BMExGRwfAMNRER0UPwbLPx2Lx5s3jllVcgBJc2RERkGCzURERk9h50trlTp06oVasWS7MRuH37tujatSsuXLggOwoREZkRXvJNRERmg2ebTdeUKVNYpomIyOB4hpqIiEyKk5MT2rRp85fSzLPNpmvdunVi+PDhsmMQEZEZYqEmIiKjxLPNBADXr18XXbt2xdWrV2VHISIiM8RLvomISLF4tpkeJTw8nGWaiIikYaEmIiKpLC0t0bx587/cEIxnm+lRUlNTxapVq2THICIiM8ZLvomIyCB4tpmqU3Z2tujatStycnJkRyEiIjPGM9RERFRtHna2uXXr1izNVC2EECI0NJRlmoiIpGOhJiKiJ/ags81ubm6ws7NjcaYaNX/+fHz//feyYxAREfGSbyIiuj+ebSYlOnPmjOjWrRvy8/NlRyEiIuIZaiIic+fs7Hzf0syzzaQ0er1eBAcHs0wTEZFisFATEZmBe882/8+ZZp5tJqPx5ZdfYseOHbJjEBER3cVLvomITAjPNpOpOnLkiOjZsyeKi4tlRyEiIrqLZ6iJiIwMzzaTuSkvLxdBQUEs00REpDgs1ERECsWzzUT/9fHHH+P333+XHYOIiOgveMk3EZFEDzrb3LlzZzRp0oSlmcze7t27Ra9evVBWViY7ChER0V+wUBMRSTB27Fi8++676NixI6ysrFicie6juLhYeHh44PDhw7KjEBER3ZdadgAiInO0bNkyeHt74/3338fZs2f5wSbRfbz77rss00REpGg8Q01EJJlarcaAAQOg1WoxcuRIWFhY8Iw1mb3MzEzx0ksvoaKiQnYUIiKiB2KhJiJSkLZt22Ly5MkICQlB3bp1WazJLOXn5wt3d3ecPn1adhQiIqKHYqEmIlIgGxsbDB06FFqtFt7e3izWZFYmTZokdDqd7BhEREQPZW9vz0JNRKR0zz77LMLDwzFu3Dg+LotM3qZNm8SgQYMgBJcnRESkbC1btmShJiIyFo6Ojhg7diyio6Ph5ubGYk0mJzc3V3Tr1g0XLlyQHYWIiOiRRowYwbt8ExEZi9u3b0On06Fr16549dVXxfr160VFRQU/FCWTERkZyTJNRERGw9PTk2eoiYiMmYuLCzQaDaZOnQpXV1eetSajtW7dOjF8+HDZMYiIiB6LWq3GmTNnWKiJiEyBtbU1Ro8ejYiICHh6erJYk1G5du2a6NKlC65fvy47ChER0WN59dVX8d1336lYqImITEzHjh0xefJkTJw4EXXq1GG5JsUbPXq0WLVqlewYREREj23Hjh148cUXWaiJiEyVo6MjNBoNIiIi0KlTJxZrUqTU1FQRFBQkOwYREdFjGzZsGNauXasC+BxqIiKz4OHhgaioKIwfPx5WVlYs16QI2dnZomvXrsjJyZEdhYiI6LE4Ojri4MGDd+9dw0JNRGRGXFxcEBYWBq1WCxcXFxZrkkYIIV555RVs3rxZdhQiIqLHlpqaCo1Gc3cNxUJNRGSG1Go1Bg8ejOjoaHh5eUGlUrFck0HFxMSIqVOnyo5BRET02KZOnYq5c+f+ac3EQk1EZOY6duyIiIgIBAYGwtHRkcWaatzJkydF9+7dUVBQIDsKERHRY+nfvz82bdr0l6/OsVATEREAwNbWFr6+vnj99dfRvXt3FmuqEXq9XvTv3x87duyQHYWIiOixuLu748cff4STk9Nf1kdq2eGIiEgZiouLkZaWhh49esDT01MsXrxYlJSU8ENXqlZfffUVyzQRERmNLl26YPPmzfct0wDPUBMR0UM4OTkhMDAQ06ZNQ6tWrXjWmp7KkSNHRM+ePVFcXCw7ChER0SP17NkTmzZtQv369R+4BlLZ2dmJoqIi2VmJiEjBLCwsMHjwYERERODll1+GWq1muaYnUlZWJnr16oXdu3fLjkJERPRIffv2xfr16x95fxl1gwYNZGclIiKFq6iowIYNGzBo0CC0b98eX375pbh58yavcKLH9sknn7BMExGRUQgMDMQPP/zwWDdrVb322mti48aNsjMTEZGRsbW1xbhx4xAeHo7nnnuOZ6zpgf744w/Ru3dvlJeXy45CRET0QGq1Gh9//DH+/ve/P/YjRdX9+/eXnZuIiIxQcXExFixYgOeffx7PPvusSE5OFkVFRTxrTX9SXFwsgoKCWKaJiEjR6tWrh40bN+Kdd95RPW6ZBgDVxYsXRcuWLXmgIyKip+bs7IyQkBBMnjwZ7dq141lrwhtvvCFmzpwpOwYREdEDPfPMM1ixYgVatmz5xGsXlRACY8aMEStWrJD9OoiIyESoVCoMHDgQERER8PHxgYWFBcu1Gdq5c6fo168f9Hq97ChERER/YWFhgRkzZuDDDz+EtbV1ldYqKiEETp48Kbp06YKSkhLZr4mIiEyMi4sLNBoNpk6dCldXVxZrM1FQUCC6d++OkydPyo5CRET0F61atcKCBQvQt2/fp1qbqAGgbdu2qsjISNmviYiITNClS5fw+eefo02bNvDz8xMZGRn8nrUZeOONN1imiYhIcVQqFcLDw3HgwIGnLtPA/52hBoCSkhLRu3dv7NmzR/ZrJCIiE9exY0cEBwdj0qRJcHJy4llrE7N582bxyiuvoHKNQUREpASNGzdGQkICfHx8qm3tobr3YHfs2DHx/PPP4/bt27JfKxERmQEHBwdoNBpERETAzc2NxdoE5OTkiK5duyI7O1t2FCIiIgD/PSsdFBSEmTNnwtnZuVrXG6r//fT4xx9/FK+++iq/T01ERAbl4eGBqKgojB8/HlZWVizXRsrf318sWbJEdgwiIiIAQLdu3RATE4M+ffrUyNpCdb/LsZYsWSICAwNRUVEh+/UTEZGZadKkCcLCwqDVatG0aVMWayOyatUqMXr0aNkxiIiI4ODggH/+85+YMmUKLC0ta2w9oXrQ95uWL18uAgICUFZWJvu9ICIiM6RWqzFgwABERUXBx8cHKpWK5VrBrl+/Lrp27YqrV6/KjkJERGbOx8cHsbGxaNasWY2vHVQPu2HI6tWrhb+/P4qLi2W/J0REZMY6duyIyZMnIygoiDcxU6gRI0aItWvXyo5BRERmzM3NDTExMejXr5/B1gqqR92Bc9euXWL48OG4fv267PeHiIjMXO3ateHn54eIiAh0796dxVohUlNTRVBQkOwYRERkpurXr4/33nsPERERBr8PyyMLNQCcOnVKDBs2DIcOHZL2JhEREd2rd+/eiIiIgK+vL2xsbFiuJblw4YLo1q0bcnNzZUchIiIzY2dnh+joaLz99ttwdHSUshZ4rEINAEVFRWLq1KlITk6WkZOIiOi+nJycEBgYiGnTpqFVq1Ys1gYkhBCDBw/G999/LzsKERGZEbVajVGjRuGLL75Ay5Yt5R77hRBPNDExMcLOzk4A4HA4HA5HMaNWq4WPj4/49ttvRUVFhXjS4xvnyScmJkb6nzuHw+FwzGteffVVsW/fPsUc5x/7DPW9jhw5IgICArB79+4n/v8SERHVtKZNmyI0NBRTpkxBgwYNeNa6Bpw+fVq4u7sjPz9fdhQiIjIDnTt3xueff47XXntNUcf1KhVqACgtLRUffPABvvrqK5SXl8t+HURERH9ha2uLMWPGICIiAs8//7yiDsDGrKKiQrz00kvIzMyUHYWIiEycm5sb3nvvPYwdOxZqtVp5x/KnPcW9b98+0atXL+mn/jkcDofDedj07NlTxMfHi/z8fMVcJmas89lnn0n/8+RwOByOaU/nzp3FwoULRXl5uaKP21U+Q30vvV4vEhMT8dZbbyEvL++pfz8iIqKa4uDggHHjxiEqKgqdO3dW3ifdCnf48GHh4eGB4uJi2VGIiMgEdenSBW+99Rb8/f1hYWGh+ON0tRTqSpcvXxYzZsxAWlqa7NdFRET0SJ6enoiOjsaIESNgaWmp+IO2bOXl5aJ37974448/ZEchIiIT07VrV7z55psICAhQ5qXdD1ITp73Xr18vWrRoIf0yAQ6Hw+FwHmeaNWsmPvnkE3H58mVFX1Ymez744APpf1YcDofDMa159tlnxfr164VerzfKY3C1nqG+V2lpqZg/fz4+/PBD3L59u0b+G0RERNXJ2toaw4YNg1arhZeXF1QqlfF8Ql7Ddu/eLXr16oWysjLZUYiIyAR0794d77zzDkaPHm3Ux9saK9SVrl+/Lj766CPodDoehImIyGh06dIFERERCAgIgL29vdEe6KtDcXGx6NmzJ44cOSI7ChERGbn+/fvj7bffxssvv2wax1ZDnQo/duyY8PX1FSqVSvplBRwOh8PhPO7Y29sLrVYr9u3bZ5SXolXHTJ8+XfqfA4fD4XCMd9RqtfDx8RG7du0yuWNpjZ+h/l+//vqrePPNN5GRkWHQ/y4REdHT8vDwQFRUFMaPHw8rKyvT+GT9ETIzM8VLL72EiooK2VGIiMjIWFtbY+zYsfj73/+OTp06meRx0+CFGgCEEGLVqlX4xz/+gUOHDsl+D4iIiJ5IkyZNEBoaCq1WC1dXV5NcIABAfn6+cHd3x+nTp2VHISIiI+Lg4IDJkydj2rRpaNKkickeJwFA6ulxvV4v1q9fL3r06CH9MgQOh8PhcJ501Gq18Pb2Nuq7kz5swsLCpL/HHA6HwzGeadiwofjwww/FrVu3TO6YqJhLvu9Hr9eLjRs34oMPPsDevXtlxyEiInpibdu2RWhoKEJDQ1GvXj2j/zR+8+bN4pVXXoES1glERKRsrVu3RlRUFLRaLezs7Iz+GPgkFFGoK7FYExGRsbO1tcWQIUMwbdo0vPDCC0a5qMjNzRXdunXDhQsXZEchIiIF6969O6ZPnw5/f39YWFgY5THvqck+RX6/qaioEEuWLBFubm7SL1vgcDgcDqeq06tXL5GamiqKioqM6tI3f39/6e8dh8PhcJQ7L7/8sti6datRHdtM+pLvB9Hr9WLDhg344osvsGvXLtlxiIiIqqR+/fqYMGECJk+ejFatWin6E/xVq1aJ0aNHy45BREQKY2VlhbFjx+KNN95A9+7dFX0sMyRFF+p7ZWVlidmzZ2PJkiV8dAcRERkltVqNAQMGQKvVYuTIkYq7PO769euiS5cuuHbtmuwoRESkEA4ODggODsabb76JZs2aKeq4pQRGU6grnTp1SsyZMwcJCQkoKiqSHYeIiKhKmjZtitDQUEyZMgUNGjRQxAJl9OjRYtWqVbJjEBGRArRs2RKTJ0/GpEmT4OTkpIjjlBIZXaGudO3aNREbG4u5c+fi1q1bsuMQERFViY2NDYYOHQqtVgtvb29pC5YFCxaIkJAQ2W8HERFJ1rNnT0RHR8PPzw+WlpYs0o9gtIW6Un5+vkhKSsLMmTNx/vx52XGIiIiqrEePHpg8eTL8/f1Ru3Ztgy1isrOzRdeuXZGTkyP7LSAiIgnUajUGDx6M6OhoqR/uGiOjL9SVysrKxNKlSzFz5kw+couIiIyak5MTgoODER4ejvbt29fowkYIIV5++WVs2bJF9ssmIiIDq1WrFoKCgjB9+nS0a9eORboKTKZQ3ysjI0PMmTMHq1ev5g3MiIjIqHl6eiI6OhrDhw+HlZVVtS925s2bJyIjI2W/TCIiMqCGDRsiPDwcU6dORf369Vmkn4JJFupKp0+fFjqdDvHx8cjNzZUdh4iIqMqaNGmCwMBATJkypdrusnr69Gnh7u6O/Px82S+PiIgMoF27dpgyZQq0Wi3s7OxYpKuBSRfqSnfu3BHJycmYNWsWzp49KzsOERFRlVlYWGDQoEGIjo6Gl5cXVCpVlRZEer1e9OvXDzt37pT9koiIqIZ5enpixowZ8PHxqfJxg+7PLAp1pYqKCrFmzRrMmjULmZmZsuMQERE9lc6dOyMiIgIajQb29vZPtED64osvxIwZM2S/BCIiqiHW1tYYO3Yspk+fjh49erBE1xCzKtT32r17t4iPj0dqaiqKi4tlxyEiIqoye3t7jB8/HhEREXB3d3/kounw4cPCw8ODxz8iIhPk6OiIoKAgvPnmm9X2FSF6MLMt1JWuXLki4uLiEBMTgxs3bsiOQ0RE9FQ8PDyg1WoRGBgIW1vbvyykysvLRe/evfHHH3/IjkpERNWo8vvRYWFhqFWrFou0gZh9oa5UUlIili1bhv/85z84ePCg7DhERERPpVGjRggODsbkyZPRsmXLuwur999/X3zyySey4xERUTXh96PlYqH+H0II8cMPP2Du3Ln47rvvoNfrZUciIiKqMgsLCwwZMgQRERFwdHSEp6cnysvLZcciIqKnYGtri4CAAEybNg2dO3dmiZaIhfohTp06JWJiYpCSksLHbhERkdGztLRkmSYiMmKNGzdGREQEJk+ejAYNGrBIKwAL9WMoLi4Wy5cvx5dffokDBw7IjkNERERERGbE3d397lMd+PxoZWGhfkIZGRlizpw5WLNmDT/lJyIiIiKiGqFWqzFgwABERUXx+9EKxkJdRZcuXRI6nY53ByciIiIiompja2sLX19fvP3223Bzc2OJVjgW6qdUeXfwmTNnYt++fbLjEBERERGREWrcuDEmTZqEyMhI1KtXj0XaSLBQV6MdO3aIuXPnYu3atbwcnIiIiIiIHum5557D9OnTMWrUKFhZWbFIGxkW6hpw+fJlER8fj9jYWFy/fl12HCIiIiIiUhC1Wo3BgwcjOjoa3t7eLNFGjIW6BpWWlop169Zh1qxZ2LVrl+w4REREREQkkaOjI4KCgvDGG2+gefPmLNImgIXaQH7++Wcxd+5crFy5EmVlZbLjEBERERGRgXTp0gVRUVEICAjgY69MyLlz5wQLtYFVXg4eHx+PK1euyI5DREREREQ1QK1W47XXXkNUVBS8vLz42CsTtHnzZhZqWSovB9fpdNiyZYvsOEREREREVA3s7e0xfvx4TJs2DZ06dWKJNmGffPIJC7US/P7772Lu3LlYvnw5SkpKZMchIiIiIqIn1KZNG0RGRiIkJAQODg4s0mbA09OThVpJrl27JlJSUhAbG4vz58/LjkNERERERI/g6emJ6OhojBw5EhYWFizSZuLgwYOiW7duvCmZEpWVlYk1a9Zg7ty5yMjIkB2HiIiIiIjuYWdnB39/f0RFRaFr164s0WYoODhYLFy4kIVa6fbu3Svmz5+PRYsWobCwUHYcIiIiIiKz1bhxY0yaNAlTp05F/fr1WaTN1J49e8QzzzwDvV7PQm0sbt68KRITE3k5OBERERGRgfXq1QvR0dEYNWoUrKysWKTNWHl5uejTpw9+/fVXAHwOtdHR6/Vi27ZtmD17NjZu3Aj++RERERERVT8rKysMHz4c0dHR8PT0ZIkmAMDf//538dlnn9393yzURuzgwYNi7ty5WLx4MQoKCmTHISIiIiIyeg0aNIBWq0VERARcXFxYpOmuDRs2iOHDh0Ov19/9ZyzUJiAnJ0ckJycjNjYWp0+flh2HiIiIiMjouLu7IyoqCn5+frC1tWWRpj/ZvXu36Nu3719OZLJQmxC9Xi++++47xMTEYNOmTX/65ISIiIiIiP5MrVZj6NChiIqKQv/+/Vmi6b6OHj0q+vfvjytXrvzl37FQm6hTp06JhIQEJCUl4caNG7LjEBEREREphr29PcaPH4/XX38dHTp0YJGmBzp+/Ljo378/Ll26dN9/z0Jt4oqKikR6ejpiYmKwe/du2XGIiIiIiKRp3749IiMjERwcjDp16rBI00Pt3btXDBo06L5npiupcnNzhaOjI3+YzEBWVpbQ6XRIS0tDUVGR7DhERERERAbh6emJ6OhojBw5EhYWFuw+9Eg//vijGD58OG7fvv3QX6fat2+f6NatG3+ozMi1a9dEUlIS4uLi+ExrIiIiIjJJtWrVgkajQVRUFNzc3Nh36LHFxcWJadOmoaSk5JG/Vv3zzz/LzksG1rBhQ9Xf//531ZkzZ7B582b4+PhApeI+hoiIiIiMX5MmTfDhhx/i/PnziIuLU7FM0+MqLi4WoaGhIjw8/LHKNACohg4dKtatW8cfMjN37NgxERsbi4ULFz7ysgYiIiIiIqXp06cPoqOjMXz4cFhaWrLf0BM5efKkGDVqFPbv3/9E/z+VpaWlOH36NJo1a8YfOkJxcbFYvnw5Zs6ciX379smOQ0RERET0QNbW1hg2bBimT5+O3r17s89QlXzzzTciMDAQOTk5T/z/VZeXl2Pu3LmyXwMphK2trSowMFC1d+9e1Y4dOzB27FhYWVnJjkVEREREdFejRo3w4Ycf4ty5c1i+fLmKZZqqoqioSEybNk0MHTq0SmUaAFQAhI2NDQ4cOIB27drxB5H+4urVq2LBggWIjY3lTcyIiIiISJoePXpg8uTJ0Gg0sLOzY3ehKvv5559FSEgIjh079lS/jwqAAIBBgwZh48aNUPHuVPQA5eXlYu3atYiJicGPP/4oOw4RERERmQFLS0sMHz4cUVFRePHFF9lV6KkUFRWJ999/H19//TX0ev1T/353CzUAzJo1C9HR0fwhpUc6fvy4SE5Ohk6nq/LlEURERERED+Lo6IigoCC8/vrraNGiBTsKPbVffvlFhISE4OjRo9X2e/6pUFtbW2P79u144YUX+ANLjyUvL0+kpaUhJiYGR44ckR2HiIiIiIxc165dERkZiYCAAF7WTdWisLBQ/OMf/8DMmTNRUVFRrb/3nwo1ANSrVw+ZmZno0KEDf3jpiWRkZIg5c+Zg7dq1KCsrkx2HiIiIiIyEWq3GgAEDEBUVBR8fH34NlarNhg0bRFRUFM6ePVsjv/9fCjUAtGrVCj/99BMfpUVVcvHiRREfH4/ExERcuXJFdhwiIiIiUihnZ2dMnDgRERERaNWqFbsHVZujR4+KyMhIbNmypUb/O/ct1ADQokULbNu2Da1bt+YPNlVJaWmpWLduHXQ6XY3/IBMRERGR8WjXrh2mTJmC0NBQ1K5dm32Dqk1hYaH44osv8Nlnn6GkpKTG/3sPLNQA0Lx5c3z//ffo1KkTf8jpqezdu1fExsZiyZIlKCgokB2HiIiIiAxMrVbjtddeQ1RUFLy8vHhZN1W79PR08dZbbyE7O9tg/82HFmoAcHJywurVq9G/f3/+wNNTy83NFSkpKZg/fz5OnDghOw4RERER1TBHR0eEhIRg6tSpaNOmDTsFVbvffvtNvPXWW9ixY4fB/9uPLNTAf+/+PW/ePISFhXEDoGohhBA//PADYmNjsXHjxmq/2x4RERERydWhQwdERkYiKCgIderUYY+ganfq1CnxzjvvYMWKFRDikbW2RjxWoa6k0WgQFxeHWrVqcYOganPp0iWh0+kQGxuL69evy45DRERERFWkUqng5eXFu3VTjbp586b4z3/+g1mzZhnke9IP80SFGgB69OiB9PR0PlaLql1xcbFYvnw5YmJi8Ntvv8mOQ0RERESPyd7eHsHBwZg6dSrat2/PnkA1orCwUMyaNQuff/458vLyZMcBUIVCDQB2dnb497//jaioKH7qRDUiKytL6HQ6LFq0CIWFhbLjEBEREdF9tGnTBmFhYdBqtXB2dmYvoBqh1+vFqlWr8NZbb+HcuXOy4/xJlQp1paFDh2L+/PlwcXHhxkM14ubNmyI5ORnz58/HmTNnZMchIiIiMnsqlQoDBw5EVFQUBg0aBLVazS5ANaKiokIsXboUn376KY4cOSI7zn09VaEG/nvXvn/961+YPHkyNyaqMXq9Xnz33XeIiYnBpk2boNfrZUciIiIiMit16tRBYGAgIiMj0bFjR677qcaUl5eLJUuW4NNPP8Xx48dlx3mopy7UlXr27ImEhAT07NmTGxfVqFOnTomEhAQkJSXhxo0bsuMQERERmbTWrVtDq9UiLCwMdevW5Vqfakzlpd3vvfee4ot0pWor1ABgaWmJiIgI/Otf/0Lt2rW5sVGNKikpEevXr4dOp8OWLVtkxyEiIiIyKZ6enoiOjsaIESNgaWnJtT3VmLKyMpGeno5PPvkEJ06ckB3niVRroa7Utm1bxMTE4OWXX+aGRwbxxx9/iNjYWCxduhRFRUWy4xAREREZpVq1akGj0SAyMhKdO3fmWp5qVGlpqUhJScG///1vxd1s7HHVSKGu5O3tja+++grdunXjxkgGcfv2bbFs2TLMnj0bhw8flh2HiIiIyCi4uLggLCwMkZGRqFevHtfuVKNKS0vF0qVL8c9//hOnTp2SHeep1GihBgALCwtMmDABH330EZo0acKNkwxCr9eLH374AbGxsfj2229RUVEhOxIRERGR4vTr1w9RUVEYOnQoLCwsuFanGnXnzh2h0+nw9ddfIzs7W3acalHjhbpSrVq1EBkZiXfeeQcODg7cWMlgLl26JHQ6HebPn49r167JjkNEREQklY2NDcaMGYM33ngD7u7uXJdTjbt+/bqIiYnB3LlzcevWLdlxqpXBCnWl+vXr47333sOUKVN4cwMyqNLSUrFu3TrexIyIiIjMUpMmTaDVajF16lTUr1+f63CqcWfOnBGzZs1CYmIiCgsLZcepEQYv1JXc3Nzw/vvvY8yYMXx+NRnc3r17RWxsLJYsWYKCggLZcYiIiIhqzIsvvojIyEjerZsMZvfu3eLzzz/HqlWrTP6rl9IKdSU3NzfMmDED/v7+/N4GGVxeXp5YunQp5s6di4MHD8qOQ0RERFQtbGxsMHToULz++uvo1asX19hkEBkZGeLzzz/Hxo0bIYTUmmkw0gt1pU6dOuHtt99msSZpMjIyxJw5c7B27VqUlZXJjkNERET0xBo3boygoCBERUXBxcWFa2qqcXq9XmzcuBGffvopfv31V9lxDE4xhboSizXJdvnyZZGamoqYmBhcuHBBdhwiIiKiR/Lw8EBUVBTGjx8PKysrrqGpxlU++upf//oXjh07JjuONIor1JU6deqEd999F2PHjuV3PUiK0tJSsWbNGsTGxmLHjh2y4xARERH9SeXduqOiovDMM89wvUwGkZubK+bPn4/Zs2fj6tWrsuNIp9hCXally5Z4/fXXMWHCBNSuXZs7CpLi4MGDIjY2FosWLcKdO3dkxyEiIiIz1qRJE0yePBmTJk1Co0aNuD4mgzh79qyYPXs2kpKSuB6+h+ILdSUHBwcEBwdjxowZ/D4ISXPnzh2Rnp6OmJgY7N+/X3YcIiIiMiMeHh7QarUIDAyEra0t18NkELt37xazZs1Ceno6ysvLZcdRHKMp1JUqL21555130LFjR+5ISJqsrCwxe/ZsLF26lDcxIyIiohphbW2NYcOGQavVwtvbm2tfMojKG43NmTMHW7ZskR1H0YyuUFdSq9UYPHgw3nnnHfTu3Zs7F5LmypUrYuHChZg/fz7OnTsnOw4RERGZgIYNGyIkJARTpkxBs2bNuNYlgygpKRHLli3DZ599hiNHjsiOYxSMtlDfy9PTEzNmzICPjw9UKhV3OCSFXq8X27Ztw+zZs83q2XtERERUfXr06IHJkydDo9HAzs6O61oyiGvXronY2FjExMTgxo0bsuMYFZMo1JU6d+6M119/HX5+fvxeCUl19OhRMX/+fCxcuBC3b9+WHYeIiIgUzMrKCiNHjkRkZCQ8PT25hiWDOXz4sPj666+RlpaGkpIS2XGMkkkV6koNGjTAhAkTMHXqVLi6unKnRNIUFxeL5cuX4+uvv8bevXtlxyEiIiIFcXJyQmBgIN544w00b96ca1YymIyMDPH555/zqspqYJKFulLlTRzeeOMNPP/889xJkVRZWVlCp9MhLS0NRUVFsuMQERGRJN27d0d4eDgCAgJQq1YtrlHJIMrKysTatWvx1Vdf4ddff5Udx2SYdKG+l6enJ6KjozFy5EhYWFhwx0XSXLt2TaSkpCAuLg5nz56VHYeIiIgMoPKGutHR0bxbNxnUnTt3RHJyMmbOnInz58/LjmNyzKZQV2rTpg2ioqIQEhICe3t77sxImoqKCvHNN99g/vz5+OGHH3i5DRERkQmqV68eQkNDERERwcu6yaBOnz4t5syZg+TkZNy5c0d2HJNldoW6kr29PUJCQjB9+nS0bNmSOzeS6tSpUyIhIQFJSUm8syIREZEJ6NChA8LDwxEaGoratWtzrUkGk5WVJWbPno309HSUl5fLjmPyzLZQV+LlN6QkJSUlYv369Zg9ezYyMzNlxyEiIqInoFarMWDAAERFRfFxrmRQld+P/vrrr/Hzzz/LjmNWzL5Q3+uZZ57BtGnTMGbMGFhZWXEHSFL9+uuvIjY2FsuXL0dxcbHsOERERPQAzs7OmDhxIiIiItCqVSuuIclgbt26JeLj4xETE4Ps7GzZccwSC/V9NGnSBJMnT4ZWq0Xjxo25UySpbty4cfcmZqdPn5Ydh4iIiP6Pm5sbIiMjodFoeFk3GdSxY8fErFmzkJqaisLCQtlxzBoL9UNUPnZLq9XycnCSTq/Xi23btkGn02HNmjX8TgwREZEEvKybZMrIyBBz5szB6tWrUVFRITsOgYX6sXl4eECr1UKj0cDOzo47TpIqOztbJCQkIDY2FtevX5cdh4iIyOTZ29tj/PjxmDZtGjp16sS1IBlMaWmpWLp0Kb766ivs379fdhz6HyzUT6hhw4YICQnhow9IEUpLS8W6deug0+mwZcsW2XGIiIhMTtu2bREaGopJkybBycmJaz8ymGvXromUlBTMnTuX349WMBbqKrKwsMCgQYN4d3BSjCNHjoi4uDgkJSWhoKBAdhwiIiKjpVKp4OXlxcu6SYrjx4+LmJgYJCQkoKioSHYcegQW6mrQo0cPTJ48GQEBAahVqxZ3uCRVXl6eWLp0KebOnYuDBw/KjkNERGQ0Ki/rjo6OhpubG9d0ZDBCCLF161bMnj0bGzduhBCsaMaChboa1a9fH6GhoQgPD+fl4CRd5Y45NjYWGzZs4E3MiIiIHqBdu3aYMmUKQkJC4ODgwDUcGUxBQYFIS0vDrFmzcOzYMdlxqApYqGuAWq3G4MGDER0dDS8vL14mRNJdvnxZpKamIiYmBhcuXJAdh4iISBE8PT0RHR2NkSNHwsLCgus1MpjLly+L+Ph4zJs3Dzdv3pQdh54CC3UN69ChA8LDwxEaGsrnE5J0FRUV4ttvv8WcOXOwdetWXk5ERERmp06dOvDz80NkZCS6dOnCtRkZVFZWlpg9ezbS09N59aCJYKE2EAcHB4wbNw7Tp09Hx44dufMm6Y4dOyZSUlKg0+mQk5MjOw4REVGNat26NbRaLcLCwlC3bl2uxchgKp/K8vXXX+Pnn3+WHYeqGQu1ganVagwYMIB3jSTFuHPnjkhPT0dMTAyfbUhERCan8rLuESNGwNLSkusuMpjKx17NmzcPFy9elB2HaggLtUTt2rXDxIkT+VxDUoysrCyh0+mQmpqK4uJi2XGIiIiqxMbGBmPGjMFbb72Frl27co1FBrVnzx4RFxeHtLQ0PvbKDLBQKwAf0UBKc/XqVbFgwQLMnz8f586dkx2HiIjosbi4uCAsLAyRkZGoV68e11RkMHq9XmzcuBFz5szBli1bZMchA2KhVhC1Wo1XXnkFkZGReOWVV6BWq3kgIKnKy8vFhg0bEBsby5uYERGRYvXr1w+RkZEYNmwY79ZNBpWTkyMSExMRExPDkxBmioVaodq0aYOwsDDeOIMU4+TJkyIxMRGJiYl8vAMREUlnbW2NYcOG4Y033sDzzz/PtRIZ1IkTJ8S8efOQlJSEgoIC2XFIIhZqheOjHUhpiouLxYYNG3inSiIikqJRo0YIDg5GZGQkmjZtyrURGYwQQmzduhWzZ8/Gxo0beeUeAWChNiq8SyUpTeVNzBYtWoTCwkLZcYiIyIT16NEDkydPRmBgIGxtbbkOIoPJz88XS5YswezZs3H48GHZcUhhWKiNUKtWrTBp0iSEhobyhhukCLm5uWLhwoWYPXs2zpw5IzsOERGZCLVajcGDByM6Ohre3t5c85BBnTlzRsTHxyMhIQG3bt2SHYcUioXaiFU+EuLNN99Et27deJAh6fR6vdi2bRt0Oh1Wr16NiooK2ZGIiMgIOTg4IDg4GK+//jpatGjBNQ4ZVEZGhpgzZw7WrFmD8vJy2XFI4VioTUS/fv0wdepUDBs2jJeDkyKcPn1axMXFISUlBTdu3JAdh4iIjECnTp0QFRUFjUaD2rVrcz1DBlNcXCzS09Mxe/Zs7Nu3T3YcMiIs1CamSZMmCAwMxNSpU+Hq6soDEUlXUlIi1q9fD51Ox+cyEhHRX6hUKnh5eSEqKgo+Pj5QqVRcv5DBXL16VSxYsABz5szBpUuXZMchI8RCbaIqHyWh1Wr5nSNSjN27d4v4+HgsXryYj5ggIjJztra28PX1xYwZM9C5c2euVcigKtckqampKC4ulh2HjBgLtRno2LEjJk+ejNDQUF4+RYpw+/ZtsWzZMsyZMweHDh2SHYeIiAzIxcUFYWFhiIqKQt26dbkuIYPR6/Vi48aNmDNnDq+ao2rDQm1GHBwcMG7cOERFRfGTYFIM3viDiMg8eHh4ICoqCn5+frzfCxnU7du3xYIFCzBz5kycP39edhwyMSzUZqjyu0parZbPtCbFuHz5skhNTcW8efNw8eJF2XGIiKgaVH4F7fXXX0evXr243iCDOn78uIiJiUFiYiIKCwtlxyETxUJt5iovu5oyZQoaNGjAAx1JV1paKtatWwedToetW7dCCO6iiIiMTcOGDRESEsKbpJLBVT7Cc/bs2di4cSPXEVTjWKgJwH9vDDJmzBhMmTIFzz33HA98pAgHDhwQsbGxWLRoEfLz82XHISKiR+jRoweio6Mxbtw42NjYcD1BBpOXlydSUlIwb948nDx5UnYcMiMs1PQXPXv2xKRJkxAQEIBatWrxYEjS3blzR6Snp2Pu3Lk4ePCg7DhERHQPtVqNwYMHIzo6mk8WIYM7ffq00Ol00Ol0yMnJkR2HzBALNT2Qo6MjgoKCEB0djdatW/MASYpQeROztWvXoqysTHYcIiKz5eDggODgYEyfPh0tW7bkOoEMqnI9sHr1alRUVMiOQ2aMhZoeSa1WY8CAAdBqtRg5ciQsLCx40CTpeBMzIiI52rZti9DQUEyaNAlOTk5cE5DBlJSUiGXLluHLL7/EgQMHZMchAsBCTU+oTZs2CA8Px4QJE+Ds7MyDKElXWloqVq9ejZiYGGRkZMiOQ0RkklQqFQYOHIjo6Gi8+uqrUKvVXAOQwVy8eFHExsZCp9Ph5s2bsuMQ/QkLNVWJjY0Nhg4diunTp6N37948qJIiHD16VMyfPx/Jycm8iRkRUTWwsbHBmDFj8Le//Q1dunTh8Z4MKisrS8yePRtLly7l17xIsVio6al5eHhAq9VCo9HAzs6OB1uSLi8vTyxdupQ3MSMiqqImTZpAq9UiMjIS9erV47GdDKby8ZkzZ87EL7/8IjsO0SOxUFO1qXzm5OTJk3lzElKMypuWrFmzBuXl5bLjEBEpmoeHB6KiojB+/HhYWVnxWE4Gc+XKFbFw4ULMnTsX2dnZsuMQPTYWaqp2lTcxi4qKgo+PD1QqFQ/IJB1vYkZEdH/W1tYYNmwYpk2bhhdeeIHHbDIoXtZNxo6FmmpUu3btMHHiRISFhaFu3bo8SJN0lZeS6XQ6bNmyRXYcIiJpGjRogAkTJmDKlClo1qwZj9FkMJXH4lmzZmHXrl2y4xA9FRZqMghbW1v4+vrijTfegLu7Ow/apAiVNzFLSkpCQUGB7DhERAbRoUMHhIeHIywsDLVq1eIxmQzm6tWrYsGCBbxajEwKCzUZXN++fREREYGRI0fy+1mkCLm5uWLBggWYP38+jh8/LjsOEVG1U6vVGDJkCKKjo9G/f38ee8mgfv/9dzFnzhwsX74cpaWlsuMQVSsWapKmUaNGCA4ORkREBJo3b86DOykCb2JGRKakTp068PPzw/Tp09GxY0cea8lgysrKxNq1a/kVKzJp9vb2LNQkn5WVFYYPH46IiAj069ePB3tShPPnz4u4uDgkJSXh2rVrsuMQET2R5s2bY+rUqQgLC4OTkxOPrWQw165dE/Hx8YiLi8OlS5dkxyGqUS1btmShJmXp0KEDQkJCMGnSJC4ASBF4EzMiMiY9e/ZEdHQ0H3tFBrdnzx4RFxeHtLQ0FBUVyY5DZBAjRoxgoSZlcnBwQGBgICIiItCpUycuCEgR9uzZI2JiYpCeno7CwkLZcYiIAAAWFhYYMWIEpk+fzsdekUGVl5eL1atXY86cOcjMzJQdh8jgvvzySxZqUj5PT09ER0dj+PDh/LSdFCEvL08sXboUs2fPxuHDh2XHISIzZW9vj5CQEEyfPh0tW7bk8ZEMJjc3VyxcuBAzZ87E+fPnZcchkkKtVuPMmTMs1GQ8XF1dMWnSJISGhqJx48ZcOJB0er1ebN68GbGxsdi4cSMqKipkRyIiM9CqVStERUVhwoQJcHBw4PGQDGbv3r1i7ty5WLJkCYqLi2XHIZLq1VdfxXfffadioSajY21tjWHDhkGr1cLLywsqlYqLCZLu0qVLQqfTITY2FtevX5cdh4hMkIeHB6KiouDn5wdLS0se+8gg9Hq92LhxI+bMmYOtW7dCCFYHIgDYsWMHXnzxRRZqMm5du3ZFREQEAgICUKdOHS4uSLqSkhKxfPlyxMbG4pdffpEdh4iMnJWVFUaPHo3p06fj2Wef5XGODObWrVsiISEBsbGxvKyb6H8MGzYMa9euVQF8DjWZCHt7e4wfPx5TpkxBt27duOAgRdi9e7eIj4/H4sWLUVBQIDsOERkRBwcHBAcH44033kDz5s15XCODOXbsmIiNjUVSUhKPXUT34ejoiIMHD8LV1ZWFmkxTv379EBERwZuYkWLcunVLpKSkIC4uDidPnpQdh4gUrF27doiOjkZQUBCvvCKDqaioEBs2bMDcuXOxbds22XGIFC01NRUajebu/pmFmkyWi4sLwsLCoNVq4eLiwkUJSafX68UPP/yAmJgYfPvtt9Dr9bIjEZFCvPTSS3j99dfh4+MDtVrNYxYZRE5OjkhKSkJsbCzOnDkjOw6R4kVERCAmJuZP+2gWajJ5lpaWGD58OCIiItCvXz/exIwU4cyZMyIuLg7Jycm4ceOG7DhEJIGlpSVGjx6NN954A8888wyPTWQwhw8fFnPnzkVaWhov6yZ6TP3798emTZv+cgUsCzWZlfbt22PChAkICwtD3bp1uXgh6UpKSsT69evx9ddf4+eff5Ydh4gMoE6dOvDarIvQAABv7ElEQVTz88Obb76Jdu3a8VhEBqHX68W2bdswe/ZsbNy4kXfrJnoC7u7u+PHHH+Hk5PSXfTYLNZmlOnXqwN/fHxEREbyJGSnGrl27xLx587Bq1SqUlpbKjkNE1axp06aIjIzEpEmT7rsoI6oJt2/fFikpKZg3bx5OnTolOw6R0enSpQu2bduGBg0a3He/zUJNZs/DwwNarRYajQZ2dnZc4JB0V69eFQsWLEBMTAwuXLggOw4RPaVu3bphypQpCAwMhK2tLY8zZBAnT54UiYmJiI+PR25uruw4REapZ8+e2LRpE+rXr//AfbfKzs5OFBUVyc5KJF2jRo0QGhoKrVbLR5SQIpSVlYlVq1Zh3rx5yMzMlB2HiJ6ASqXCwIED8eabb8Lb25v37yCD0Ov14vvvv8ecOXPwww8/8LJuoqfQt29frF+/Ho6Ojg/df6uaN28u+LB2ov/PwsICQ4YMQXh4OAYOHMhFECnCnj17xLx585Ceng5+CEqkXNbW1hg3bhzeeOMNfqWIDObOnTtiwYIFmDt3Lk6cOCE7DpHRCwwMhE6ng42NzaP346+99prAfy/75nA4/zPt27cXM2fOFLdu3RJCCHA4sufGjRvi888/Fy1btpS+fXA4nP8/Tk5OYsaMGSI7O5vHC47B5vjx4yIqKko4ODhI3wY4HFMYtVotPv30U6HX6x97X44vv/xSenAOR+lTq1YtMXHiRJGVlcWFEkcRU15eLtauXSu8vb2FSqWSvo1wOOY6LVu2FF9//bXIy8vj8YFjkNHr9WLTpk1i8ODBQq1WS98GOBxTmXr16onvvvvuifflqosXL4qWLVuivLwcRPRovXr1QkREBHx9fXlzGVKEI0eOiHnz5iEtLQ137tyRHYfILDzzzDN48803MWrUKFhaWvJYQDUuPz9fpKamYu7cuTh69KjsOEQm5ZlnnsGKFSvQsmXLJ9+fCyHg6+sr/RMBDsfYpn79+uJvf/ubOH36NM9KcBQxt2/fFnPmzBEdOnSQvn1wOKY4KpVKDBo0SPz444/c73MMNqdOnRKvv/66cHR0lL4NcDimNhYWFuKdd94RJSUlVd6vQwiBEydOCBsbG+kviMMxxlGr1cLb21ssX75clJeXc5HFUcTs3LlT+Pr6CktLS+nbCIdj7KNWq4WPj4/47bffuI/ncD/O4ZjItGrVSvz0009PvV+/+zdvvvmm9BfF4Rj7tG7dWnzxxRfixo0bXHRxFDGnTp0Sb775pnB2dpa+fXA4xjZ2dnZiypQpvBKJY7ApKCgQcXFxonPnztJ//jkcUx2VSiXCw8NFfn5+tezbVUIIAEBJSYno3bs39uzZAyJ6OjY2Nhg6dCi0Wi28vb353TqSrqSkRCxbtgwzZ87Evn37ZMchUjQHBwcEBwfj7bffRpMmTbgPpxp36dIlodPpMG/ePNy8eVN2HCKT1bhxYyQkJMDHx6f69u33tuujR4/y+xkcTjWPh4eHSEpKEoWFhTzDwVHE/PTTT8LX11dYWVlJ3z44HCWNq6ur+Oqrr8SdO3e4v+YYZLZv3y5GjhwpLCwspP/8czimPCqVSgQHB9fIo3Dvu2Hz+9QcTvWPo6Oj0Gq14tChQ1yocRQxly9fFp999plwdXWVvn1wODKnTZs2YtasWaKoqIj7Z06NT3FxsVi4cKFwd3eX/rPP4ZjDdOvWTezcubPG9u/3/YeLFy/mJ2UcTg2NWq0Wr7zyili3bh1vYsZRxBQXF4u0tDTx/PPPS98+OBxDTq9evcSaNWtERUUF98WcGp/z58+Lt99+W9SrV0/6zz6HYw7j4OAgZs2aJcrKymp0H//Af7Fs2TJeDsjh1PC4uLiIGTNmiAsXLnAxx1HE/PHHH0Kr1Qo7Ozvp2weHU1Pj6ekp1q9fz/0ux2D7VY1Gw3U1h2PA8fHxEefPnzfIfv6h/3LVqlXC1tZW+hvC4Zj62NjYCD8/P5GRkcEFHkcRc+3aNfHpp5+KZs2aSd8+OJzqGLVaLcaOHSv27t3L/Synxqe4uFikpKSIHj16SP/Z53DMadzc3MT27dsNup9/5C/IzMwUDRo0kP7mcDjmMu7u7iI+Pr7abuXP4TzNlJWViZUrV4p+/fpJ3zY4nKqMhYWF8PPzE4cPH+Y+lVPjk52dLd59912unTkcA0/9+vXFrFmzRGlpqcH39Y/1i06ePMnn4XE4Bh5HR0cRFRUljhw5wkUgRxGzf/9+MWnSJFGrVi3p2weH86ixsLAQAQEB3IdyDDK7du0S48aN42XdHI6Bx87OTrz99tsiNzdX2r7+sX9hfn6+8Pf3l/6mcTjmNiqVSnh5eYmVK1fW+E0VOJzHmZs3b4rPPvuMl4NzFDmWlpYiMDBQHDt2jPtLTo1OSUmJSE1NFc/+v/buOzzKMt0f+HcmFQgk9NCkSG8qcRUINkAUjCAgaJBAgGTSJ7QVj7v78+yuxwUF0ifJQIBQAyiQQLBQRA0CahBQIASRDiHUhED63L8/9oSjKyUh5Zny/VzX97rOcSk38M79PPfMO8/7pz8pv+4Zxtai1WrF19fXLM4hqvJPiIuL42E1DKMobdq0kb///e9y4cIF5c2DYUpLS2Xt2rUyYMAA5a8NhrG3txdfX185fvw4+yNTq7l48aK899574u7urvy6ZxhbzMsvvywHDx40m17/UD/pyJEj0q9fP+V/mQxjq7GzsxMvLy/Ztm2bmEwms2kojO0mMzNTdDodD7Jk6jwODg7i4+Mj2dnZ7IVMrabiKQjscwyjJr169ZItW7aYXa9/6J9YXFwsc+bMEXt7e+V/uQxjy+nZs6fExsZKXl6e2TUYxvZy/vx5effdd6VZs2bKXxuMdcfR0VH8/f3l5MmT7H1MraWkpERWr14t/fv3V37NM4ytpmfPnrJmzRopLy83y35f7V/g4MGDbDIMYwZxcXERnU7HR8IwZpGioiJJTk6WPn36KH9tMNaVik+keWs3U5u5dOkSz4pgGMXp1auXJCcnS1lZmVn3+xr5RcrLyyUxMVEaNWqk/C+eYRiIh4eHJCYmyu3bt826ATG2kW+++UbGjRsndnZ2yl8bjOWGgzRTF9m/f7/odDqeF8QwCtOnTx+LGKQrUqO/2Llz52Ts2LHK/xEYhvl3WrZsKX/5y1/kzJkzFtGQGOtOdna2hIaGiouLi/LXBmM5cXBwED8/P97azdRaKg5Y9PT0VH69M4wt58knn5TU1FSLOx+oVn7RtLQ0ad++vfJ/FIZh/h07Ozt57bXX5PPPP7e4JsVYX65duyYffPABT8hl7hsHBweZNm2a/Prrr+xZTK3k8uXL8sEHH0jbtm2VX+8MY8t5+umnJT093WJ7fa39wsXFxRIZGSmurq7K/5EYhvm/dO7cWebOnStXrlyx2MbFWEeKi4slOTlZevXqpfx1wZhPeGo3U9v58ccfRafTSf369ZVf7wxjyxk4cKCkpaVZfK+v9d8gNzdXQkJCxMHBQfk/GsMw/5f69evLtGnT5IcffrD4RsZYdsrLyyU1NVWeeeYZ5a8LRl3q1asngYGBcuLECfYkpsZTVlYmH3/8sTz33HPKr3WGsfW8+OKLsmPHDqvp9XX2Gx07dkzGjRsnGo1G+T8iwzC/T8UhZrdu3bKa5sZYZjIzM8XHx4ePZLShuLq6il6vl/Pnz7P/MDWeGzduSGRkpHTo0EH5tc4wthytViteXl6yd+9eq+v1df4b7t27VwYNGqT8H5VhmD/Gzc1N9Ho9PyFilOfEiROi1+t5S6YVp0OHDhIZGSkFBQXsN0yN59ixY6LX66VBgwbKr3WGseU4OTmJj4+PZGVlWW2vV/KbmkwmWb9+Pb83xzBmGq1WKyNGjJAtW7ZIeXm51TZAxvyTm5sr7733njRr1kz564KpmTzxxBOyevVqKS0tZW9hajTl5eWyadMmGTx4sPLrnGFsPY0bN5a//vWvcunSJavv9cobX0pKCgdrhjHjdOzYUebOnSu5ublW3xAZ882tW7ckLi5OOnfurPw1wVQ9Go1GXnzxRfniiy/YR5gaz40bN2TBggXSsWNH5dc6w9h62rVrJwsXLpSbN2/aTL9XXoDIvwfrtLQ0efzxx5VfBAzD3D2Ojo4ybtw42bZtm800SMb8UrFeDBw4UPlrgnlwGjVqJDqdTg4dOsS+wdR4fvnlF5kzZ464ubkpv9YZxtbTuXNniYyMlMLCQpvr98oL+M+N0po1a6Rnz57KLwqGYe6dJ554QhYtWsRDzBil+frrr2XkyJGi1WqVvyaY38fDw0MWL17MHsHUeEwmk3zxxRfyyiuv8LXPMGaQQYMGSVpamphMJpvt9xoRgbkxmUyydu1avP/++zhy5IjqcojoHtzc3ODr64vAwEB069ZNo7oesk2nTp0So9GIJUuW4NKlS6rLsVn16tXDm2++icDAQDz11FPsB1Sjbt++LStXrkRUVBT3hkSKabVaeHl5Yc6cORg4cKDN93uzHKgrmEwm2bx5Mz766CPs3r1bdTlEdA8ajQZDhgxBcHAwXn31Vdjb29t8c6W6V1JSIps2bUJCQgJ27doFc17frEn37t2h0+ng6+uLxo0b87VPNers2bNiMBhgNBpx7do11eUQ2TRnZ2f4+PhgxowZ6NGjB/v9/zLrgfq3MjMzJSoqCqtXr0Z5ebnqcojoHlq1aoVJkyYhJCQE7dq1Y7MlJY4fPy5JSUlISkrClStXVJdjdZo2bYqxY8fCx8cHgwYN4uucalzFvi8lJQWlpaWqyyGyac2bN8fUqVOh1+vRunVr9vz/YDEDdYXs7GxZsGABli9fjqKiItXlENE9ODo6YvTo0QgODsazzz7L5ktKFBYWSmpqKtasWYPPPvsMJSUlqkuyWA0bNsSYMWPw1ltvYfDgwbCzs+PrmmpUSUmJfPzxx4iMjMT333+vuhwim9etWzfMmDEDkyZNQr169djz78HiBuoKly9flri4OMTGxuLq1auqyyGi++jWrRumTJkCnU7HW0JJmRs3bkhaWhrWr1+Pzz77DGVlZapLMnt2dnZ44YUX4OPjgzFjxsDFxYWvX6pxly9fliVLliAuLg5nz55VXQ6RzfP09ER4eDjGjBnDN08rwWIH6goFBQWSlJSEyMhInDp1SnU5RHQfDRs2hI+PD4KCgtC7d282aFLm/PnzsnbtWqxevRqZmZmqyzErzZo1w8svvwwvLy8MGzaMb4JRrTl06JBER0dj1apVvOuQSDEHBwe8/vrrmDVrFjw8PNj3q8DiB+oKZWVlsn79eixYsICbIyIL8NxzzyEoKAijR4+Go6MjGzcpc/bsWfn000/x6aefYvv27SgoKFBdUp177LHHMGLECHh5eeHpp5/mJxJUayoOnI2OjsbOnTtVl0Nk81xdXeHv74+wsDA88sgj7P0PwWoG6t/KyMiQyMhIbNq0iQeYEZk5d3d3+Pn5ISAgAG3btmUjJ6VKSkrk66+/xqeffoqtW7ciKytLdUm1wt3dHQMHDsSLL76IV155hQcIUq3Lz8+XJUuWIDY2FidOnFBdDpHNa9++PfR6Pfz8/NCoUSOuAdVglQN1hZMnT0psbCySkpKQl5enuhwiug97e3u8+uqrCA4OxpAhQ6DRaNjcSblTp05JRkYG9u3bh7179+LgwYMWd+KwVqtFr1694OnpiYEDB8LT0xOdOnXi64vqxC+//CIxMTFYtmwZ8vPzVZdDZPOefPJJzJo1C6+//jofc1pDrHqgrnDz5k1ZunQpoqOj+a4okQXo1q0bAgMD4evrCzc3NzZ7MhuFhYWSmZmJffv2Yc+ePcjMzMSZM2dgMplUlwYAcHJyQteuXdG9e3f07NkT/fv3x4ABA+Dq6srXEdWpHTt2SFRUFNLT083m9UFkq7RaLby8vDBr1iw+eaUW2MRAXaHieztRUVH48ssvVZdDRA9Qv359TJgwASEhIXj88ce5AJBZKioqkuPHj+M/k52djZycnBr//RwcHNCyZUu0b98e3bp1Q7du3dCjRw/06NEDHTt25PefSZnCwkJZtWoVoqOj8dNPP6kuh8jmNWjQAJMmTcL06dPRtWtXrg21xKYG6t86cOCAREZGIiUlBcXFxarLIaIHGDhwIEJCQjB27Fg4OTlxUSCLUFJSIrm5ubh06RIuXbqEvLw83Lx5E3l5eSgoKLjr+qPRaODm5gaNRoPGjRvfSbNmzdCyZUu0bNmSX4kgs3L+/HkxGAwwGo24cuWK6nKIbF6bNm0QGhoKnU6HJk2acL2oZTY7UFfIzc2VpUuXIiYmBufPn1ddDhE9QIsWLTBlyhQEBgaiQ4cOXCSIiBTJzMyUqKgopKSkWNzZAkTW6IknnsD06dPh7e0NBwcH7pHqiM0P1BVKSkokJSUFCxYswKFDh1SXQ0QPoNVqMXjwYOj1enh5efETOyKiOmAymSQ9PR3R0dHYvn276nKIbJ5Wq8WIESMQHh6OoUOHci+kAAfqu/jyyy8lNjYWqampfOwWkQXo1q0bgoKC4Ovry8OXiIhqwdWrV8VoNMJgMODcuXOqyyGyeY0aNcK0adMQFhaGjh07cu+jEAfq+7hw4YIYjUbExcXxO0FEFsDZ2Rnjxo3DzJkzeYgZEVENyM7Olri4OCxevBi3b99WXQ6RzevYsSMCAgKg0+nQuHFj7nXMAAfqSigqKpLVq1cjNjYWP/74o+pyiKgSPD097xxi5ujoyAWHiKiSTCaTbN26FVFRUdixYwe4VyRSb9CgQZg+fTpee+01Ps3BjNy8eVM4UFcRD+AgsiwtW7aEr68vgoKC0L59ey5ARET3UFBQIKtXr0ZkZCSOHj2quhwim2dnZ4fhw4fj3XffxYABA7iHMUP79u3jQP2wLly4IPHx8Vi0aBEuXbqkuhwiegB7e3uMHDkSwcHBGDx4MA8xIyL6X7/++qvExsZiyZIlyMvLU10Okc1r0qQJdDodQkND0aZNG+5XzNjy5cs5UFdXSUmJpKamIioqCrt371ZdDhFVQpcuXTBt2jT4+/vz+YxEZLMyMjIkOjoaGzduRFlZmepyiGxe586dERoaCj8/PzRo0ID7Ewvg4+PDgbomfffddxITE4P169ejuLhYdTlE9AAuLi546623EBwcjL59+3LhIiKrV1RUJGvWrEFUVBQOHjyouhwiAjB06FBMnz4dw4cPh1ar5X7EQty+fVvatWvHQ8lqw6VLl8RoNCIhIQEXLlxQXQ4RVcIzzzyD4OBgjBkzhoeYEZHVycnJEYPBgMTEROTm5qouh8jm1atXDxMnToRer0fv3r2577BARqNRAgICOFDXpvLyctm6dSuio6Oxfft21eUQUSXwEDMisiYHDx4Ug8GAFStWoLCwUHU5RDbP3d0dAQEBCA0NRbNmzbjPsFBFRUXSo0cPnDp1igN1Xfnxxx8lNjYWq1evRlFRkepyiOgB7O3tMWrUKAQHB+OFF17gIWZEZDEqHnsVERGBnTt3qi6HiAAMGDAA4eHhGDt2LOzt7bmnsHAffPCB/OUvfwHA51DXuby8PFm2bBkiIyNx6tQp1eUQUSV07doVU6dOhU6nQ+PGjbkIEpFZKi4ulrVr12LevHk4cuSI6nKIbJ6joyNGjRqF6dOnY+DAgdw/WInDhw/Ln/70pzt3/XCgVqS8vFxSU1MRGxuLL7/8UnU5RFQJDRs2xMSJExEcHMzvOxGR2Th//rzExsbCaDTi2rVrqsshsnktWrRAQEAAgoKC0KpVK+4XrMjt27flqaeewuHDh+/8Nw7UZuDYsWNiMBiQlJSEW7duqS6HiCrBw8MDer0e3t7ecHBw4GJJRHXuxx9/lISEBCxfvpxfJyMyA48//jiCgoLg4+ODevXqcW9gZUwmk7z++uvYuHHj7/47B2ozcuPGDUlKSoLBYMCvv/6quhwiqoRWrVpBp9NBp9OhdevWXDyJqFaZTCZJTU1FREQEvvnmG9XlENk8Ozs7jBo1Cnq9Hs899xz3AVZs5syZEhER8Yf/zoHaDJlMJtm5cyeioqKQnp4O/hsRmT87OzsMHz4c4eHhGDJkCA8xI6IaVVBQIKtXr0ZERASysrJUl0Nk8xo1agRfX1/MmDEDHTp04Jpv5f7f//t/8s9//vOu/xsHajOXlZUlcXFxSE5Oxs2bN1WXQ0SV0LNnT4SEhMDHxwcNGzbkIktED+306dMSGxuLRYsWIS8vT3U5RDavW7du0Ov1mDRpElxcXLjG24C//e1v8v7779/zf9eUlJQIv/9n/vLz8yU5ORmxsbHIzs5WXQ4RVULDhg3h4+OD4OBg9OrVi32WiCpt7969EhERgQ0bNqCsrEx1OUQ2TaPR4KWXXkJ4eDheeukl3oVmI8rLy0Wv18NgMNz3x2lOnDghnTp14kVhIUREvvjiC8TExODTTz+FyWRSXRIRVcLzzz+P4OBgvPbaazzEjIjuqqysTDZu3IiIiAjs2bNHdTlENq9BgwaYNGkS9Ho9unfvzrXbhty+fVsmTZqETz755IE/VrN582bx8vLiBWKBTpw4IXFxcVi6dClu3LihuhwiqoTWrVvfOcSMj9IgIuDfd6EtXrwY0dHROH36tOpyiGxehw4dEBISAj8/P7i5uXGttjHHjx+X119/HYcOHarUj9eEhYVJdHQ0LxQLduvWLVmxYgViY2N/90w0IjJfDg4OGD16NEJCQvDss8+yBxPZoHPnzkl0dDSMRiO/H01kBp577jno9XqMGjUKdnZ2XJtt0KZNm8TX17dKPVnTpk0bOXnyJG9BtBK7du0Sg8GATZs2obS0VHU5RFQJffv2RWhoKN566y3Ur1+fvZjIyh04cEAWLFiAtWvXcq0mUszJyQne3t4IDw/H448/zjXYRpWVlclf//pXfPjhh1V+wpIGgKxevRre3t68gKzIhQsXJDExEYsWLcLFixdVl0NEldC4cWNMnToVwcHB4NkWRNZFROTzzz/HggULsH37dtXlENm8Vq1aISgoCAEBAWjRogXXXBuWk5MjEyZMwJdffvlQP18DQHr06IGDBw/yU2orVF5eLlu3bkV0dDR27NjBZ1oTWQCtVovBgwdDr9fDy8uLp4kSWbCSkhJJSUnBRx99hJ9//ll1OUQ2r1+/fggICMCkSZPg7OzM9dXGrV+/XoKDg3HlypWH/jU0AAQAPvroI8yePZsXlRU7dOiQGAwGrFq1CgUFBarLIaJK6Nq1K0JCQuDr64tGjRqxRxNZiOvXr0tCQgJiYmJ4pxiRYvb29hg7diz0ej0GDhzItZSQk5MjwcHB2LhxY7V/rTsDtbOzM/bt24e+ffvyIrNy+fn5kpKSgpiYGL5bTmQhXFxcMGHCBISGhqJPnz7s00Rm6tSpU5KQkICEhAQeNEakmKurKyZPnoxZs2bhkUce4dpJAGrmU+nfujNQA0CvXr3w3Xff8VAcGyEisn37dhgMBmzevBnl5eWqSyKiB9BoNBg8eDBCQ0Px6quv8hRSIjPx3Xffyfz587Fhwwaup0SK9e7dG3q9HhMnTkS9evW4ThKAf38qHRQUhE2bNtXor/u7gRoARo0ahU8++YSbNBtz5swZSUhIQFJSEnJzc1WXQ0SV0L59ewQFBcHPzw9NmzZlzyaqYyaTSTZv3owFCxbgm2++UV0OkU3TarV45ZVXEB4ejsGDB/P8EbqjvLxcjEYj/vrXv+LatWs1/uv/YaAGgKCgIBgMBl6ENqi4uFjWr1+PuLg47N27V3U5RFQJzs7OmDBhAkJCQtCvXz/2bqJaVlhYKMuXL8fChQuRnZ2tuhwim9aoUSNMmTIFoaGh6Ny5M9dA+p2MjAwJCwvDgQMHau33uOtADQDh4eGIiIjguzs2bP/+/RIXF4c1a9agsLBQdTlEVAmenp4IDQ3F2LFj+eQGohp2/fp1iYuLQ0xMDO/mIlKsc+fOCA0NxZQpU3hoJ/3B+fPnZc6cOVi9enWtP+XongM18O9PqmNjY6HVanmR2rBr167J0qVLER8fjxMnTqguh4gqoVWrVggICIBOp0OrVq3Yw4mq4dy5cxIREQGj0cinZBAppNFoMGTIEOj1erzyyiucUegPSkpKJCIiAu+//36d9ev7DtQAMHbsWKxYsYJf6CeYTCb5/PPPERcXh08//RQmk0l1SUT0AI6Ojhg7dixCQ0P5qBCiKjp69Kh89NFHWLVqFUpKSlSXQ2Sz6tevj7feegt6vR69e/fmWkZ3lZ6eLjNnzqzzr+I8cKAGgKeffhqbNm2Cu7s7L2ACAPz666+SkJCAJUuW4OrVq6rLIaJK6NevH0JDQ+Ht7Q1nZ2f2c6J72Lt3r8ybNw9paWl885hIoUceeQQhISHw8/NDkyZNuG7RXe3bt0/eeecd7Nq1S8nvX6mBGgBat26NdevWwdPTkxcz3VFcXCxpaWmIiorC7t27VZdDRJVQ8VzOGTNmoEOHDuzpRP8rIyND5s2bhy1btqguhcimeXh4QK/XY8KECbC3t+c6RXd17Ngx+dvf/oaPP/641r8n/SBS2Tg4OEhERISYTCYRETDMb7N3717x8fERJyenSl9TDMOoi52dnbz22muyfft29nXGZlNaWiqrVq2Sxx57TPlrkmFsOc7OzjJ16lQ5cOAA1yPmvjl//rwEBASIvb298usWgFT6E+rfGjZsGJYuXYrWrVvzHSP6gxs3bkhycjKioqJw8uRJ1eUQUSV07doVU6dORUBAANzc3NjbyeoVFxfL2rVr8T//8z989BWRQq1atYJOp0NoaCiaNWvG9YfuqaCgQOLi4vA///M/uHnzpupy7niogRoAWrRogaSkJHh5efHCp7sqLy+X9PR0xMXFYdu2bRB5qEuNiOpQo0aN4Ovri5CQEHTt2pX9nawOH31FZB4GDRqEsLAwjBkzhrd1033dunVL4uPjMXfuXLM8u+mhB+oKb731FhYuXIgWLVrwhUD3lJ2dLfHx8Vi2bBlu3LihuhwiegCNRoNhw4YhNDQUI0aM4KNJyOLl5ubK/PnzER8fz0dfESni5OSEN998E3q9Hv369eO6QvdVUFAgBoMB8+fPx+XLl1WXc0/VHqgBwM3NDf/93/+NsLAwbrrovoqKimTdunWIiIjAgQMHVJdDRJXQqVMn6HQ6+Pn5oWnTpuzxZFEuX74scXFxiIiIQH5+vupyiGySu7s7Jk+ejLCwMLRp04brCN1XQUGBJCUlYe7cucjJyVFdzgPVyEBd4dlnn0ViYiK6d+/OFwo9UEZGhsTFxWHDhg18vieRBeBzQMmSXLx4UT788EMYjUbcvn1bdTlENql///4IDw/H2LFj4eDgwHWD7uvGjRsSHR2NyMhIXL9+XXU5VVKjp5w5ODjInDlzpLCwkCf0MZVKTk6OzJ07V9q3b6/8lD6GYSoXT09PWbdunZSVlbHXM2aVS5cuyZw5c6RevXrKXycMY4txdHSUcePGye7du7k+MJVKXl6ezJ07Vxo3bqz8+n2Y1Ogn1L/VpUsXzJs3D6NHj+a7UVQpZWVlkpqairi4OOzatQsitXJpElEN6tKlC/R6PXx9feHi4sJ+T8qcO3dO5s2bh8WLF6OoqEh1OUQ2x93dHYGBgQgICIC7uzvXA3qgK1euyMKFCxEbG2tWp3ZXVa0N1BUGDRqE+fPn4+mnn+YLiyrtyJEjYjAYsGLFCn7njcgCuLq6Ytq0aQgNDUXHjh3Z76nOnDlzRubNm4ekpCQUFxerLofI5vzpT3+CXq/H+PHj4ejoyP5PD3Tx4kWJiIiwqkMia/9jcI1G3njjDTlx4gRv/WCqlPz8fImLi5OePXsqv52DYZgHx87OTsaMGSNfffUV+z1Tqzl16pQEBASIo6Oj8uueYWwtDg4O4u3tLXv27GGvZyqdY8eOiZ+fnzg5OSm/hms4dfebOTk5ycyZM+XatWt88TFVzs6dO+X1118Xe3t71S8ahmEqkSeeeEKSk5OlqKiIPZ+psXCQZhh1adGihfztb3+T8+fPs68zlc7evXtlzJgxotVqlV/DtZFav+X7bpo0aYJ3330XQUFBqF+/Pm8NoSq5cOGCGI1GLFq0CBcuXFBdDhE9QMX36gIDA9GyZUv2fHooZ86ckX/9619YsmQJnwxBVMc8PDwQFhaGN998E05OTuzj9EAiIp999hk+/PBD7Nq1S3U5tf/nVZWWLVvKggUL5NatW3yXi6lySkpKZN26dfL8888rf2eKYZgHx8nJSXx9feXAgQPs+Uylc+bMGQkKCuIn0gxTx3FwcJDx48dLRkYGezZT6ZSWlsrKlSulb9++yq/hOozyAqR58+Yyd+5cDtbMQ+fYsWMyZ84cadKkifLrmWGYB8fT01PS0tLEZDKx7zN3zZkzZ0Sv14uzs7Py65VhbClubm6i1+vl9OnT7M9MpVNUVCTJycnSpUsX5ddwXUfJLd/30rx5c8yaNQthYWG8FZweSkFBgaxevRoGgwEHDx5UXQ4RPcBjjz2GmTNnwtvbGw4ODuz7hHPnzslHH30Eo9HIx18R1aHHH38cQUFBmDhxIvfhVGlXrlyRpKQkREZGIicnR3U5yiif6v8zvBWcqYl8/fXX8uabb/I2QYaxgLRv314iIiLk5s2b7Ps2mqNHj1rr6a8MY7axt7eXsWPH8skMTJVz8uRJCQsLkwYNGii/jlXHrD6h/k8tWrRAWFgYgoOD0aRJE75TRg8lJydHFi9eDKPRiLNnz6ouh4juo3HjxggMDIRer4e7uzv7vg349ttv5cMPP8TmzZthMplUl0NkE5o2bQo/Pz8EBwfjkUceYa+lStu/f78sWLAA69atQ1lZmepyzIbyqf5BadCggej1ejl58iTfPWMeOmVlZbJhwwYZOnSoaDQa5dc1wzD3jpOTk/j5+cmRI0fY960w5eXlsmnTJvH09FR+rTGMLaVPnz5iNBrl9u3b7K1MpWMymWTz5s3ywgsvKL+GzTTKC6h0tFqteHl5yd69e9kEmGrl+PHjMmfOHGnatKny65phmHtHo9HI0KFDJS0tjX3fClJcXCzJycnSs2dP5dcWw9hKtFrtnT7KgyCZqqTioLFevXopv47NOWZ9y/f9DBkyBH/+858xbNgwaDQa3qpCD+X27dt3DjH78ccfVZdDRPfx9NNPY/bs2Rg9ejTs7OzY9y3I1atXZdGiRYiOjsbFixdVl0NkExo3boxp06YhJCQEHTp0YM+kSsvNzRWDwYD4+Hjk5uaqLsfsWexAXaFPnz4IDQ3F5MmT+aB5qpbMzEwxGo1YsWIFCgsLVZdDRPfQsWNHhIeHw8/PDw0aNGDfN2MVfXXlypW4ffu26nKIbELXrl0RHBzMHklV9ssvv0hMTAwWL17Mnl0FFj9QV2jXrh2mT58OPz8/NGrUiM2DHtrly5clKSkJiYmJOHXqlOpyiOgemjVrhuDgYAQEBKB169bs+2ai4vGF8fHxOHDggOpyiGyCVqvFK6+8Ar1ejyFDhvDuTaqSL7/8UhYuXIitW7fycMiHpPy+85pMw4YNRafTSVZWFr8jwlQr5eXlsm3bNhk3bpzY2dkpv7YZhrl77Ozs+P1AM0hWVpbMmTNHmjRpovyaYBhbSaNGjUSn08nRo0fZ+5gq73PT0tKkf//+yq9jS4/VfEL9n+zs7DBy5EhMnz4dzz77LN+lo2o5ceKEJCQkYMmSJbh27ZrqcojoHrp06QKdTocpU6agadOm7P21rKCgQDZt2oRFixbh66+/Vl0Okc3o3r07wsLCMGnSJLi4uLDXUaXl5eWJ0WhETEwMHydbQ6x2oP6tfv36Yfr06XjjjTfg6OjIpkMPrbCwUNauXQuDwYDvv/9edTlEdA/Ozs54/fXXERgYCE9PT/b9GlRWViZffPEFVq9ejU2bNuHWrVuqSyKyCVqtFi+//DL0ej0P5aUqO336tERFRWHx4sW4efOm6nKsik0M1BVatWp15/t2zZs3ZxOiavn+++/FYDBg7dq1PMSMyIx16dIF3t7emDBhArp168be/5D27t0rq1evxtq1a3nqK1EdatSoEXx9fREaGoouXbqwh1GVfPfdd7Jw4UJ88sknKCsrU12OVbKpgbqCs7MzJk6ciPDwcPTu3ZuNiarl2rVrsmTJEiQkJODEiROqyyGi++jXrx8mTJiAN954A23btmX/f4CsrCxJSUnBqlWr8Msvv6guh8imdOnSBaGhofD19eWBu1Ql5eXlsnHjRkRERODbb79VXY7Vs8mB+s4fXqPBkCFDMH36dAwfPhxarZbNih6ayWSSL774AgaDAenp6TwlkciMabVaPPvss/D29saoUaPQsmVL9n8AJSUl8tVXXyE9PR3p6ekcoonqmEajwYsvvgi9Xs+9KVVZXl6eLF68GLGxsXxSTR2y6YH6tx599FGEhYXxmX1UIy5cuCBGoxHx8fG8NZLIAvTs2ROvvvoqhg4diueeew4ODg42sw5cvnxZdu3ahc2bNyMtLQ15eXmqSyKyOS4uLpgwYQL0ej169eplM/2HasbJkyclMTERiYmJuHHjhupybA4H6v/QuHFj+Pn5ITg4GB06dGBDo2opLi6W9evXw2AwYM+eParLIaJKaNq0KV566SWMGDECL730Epo1a2ZVa8HVq1dlz549+Pbbb7Ft2zZkZmZChFsBIhU6deqEkJAQTJs2Da6urlbVa6j2ff311xIZGYnU1FTeGakQB+p70Gq1GDx4MPR6Pby8vHiSIlXb0aNHJSEhAUlJSTwVl8iCdOrUCZ6envDw8ICHhweeeuopi3pixIULF2T37t3IyMjA7t278eOPP3LjRaSYp6cnwsPDMXr0aNjb21tMPyH1SktLZdOmTVi4cCH27t2ruhwCB+pK6dmzJ0JDQ+Hj48Nn/VG13bhxQ5YtW4aEhAQcO3ZMdTlEVEUuLi548skn0b9/fzz55JPo2rUrOnfujHr16ildH27cuCHHjh3DkSNHkJWVhSNHjmDfvn24fPmy6r8yIgJQv359TJw4kbd100O5evWqJCYmIi4uDhcuXFBdDv0GB+oqcHV1xZQpUxAcHMzHFlC1iYjs2LEDBoMBmzdv5qMMiCyYRqNBu3bt0KVLlzvp2rUr2rdvj+bNm6N58+aws7Or1rpRWloqly5dwrlz55CTk4MzZ84gKysLx44dw9GjR3Hx4kXVfw1EdBft27e/c1t3kyZNuH+kKsnKypLIyEisWLECt2/fVl0O3QUH6oeg1Wrx0ksvQa/XY9iwYTyBkart7NmzYjQasXjxYuTk5Kguh4hqmEajQYsWLdCoUaM7cXFxgbOz8x9+bHl5OfLz82EymXD9+vU74WFhRJbl+eefR1hYGEaNGlXtN9TItoiIbN++HREREfjss894zoWZ40BdTY8++ij8/f3h7+/Pdx2p2kpKSiQ1NRVGoxE7duxgAyUiIrIgTk5OGD9+PGbNmoXHHnuM+0KqkuLiYlm7di3mz5+Pn376SXU5VEkcqGtIxeMOwsLC0Lt3bzZQqrZjx47J0qVL+QgEIiIiM9eqVSvodDqEhoZa3ZMBqPbl5ubK0qVLER0dze9HWyAO1DVMo9FgyJAhCAsLg5eXF28Hp2rLz8+XFStWwGAw4MiRI6rLISIiov81aNAg6PV6ntZND2X//v0SHR2NlJQUFBcXqy6HHhIH6lrUpk0b+Pn5ISwsDE2bNmWTpWrLzMyUqKgopKSkoLS0VHU5RERENsfR0RGjRo3CjBkzMGDAAO7vqEpMJpOkp6cjOjoa27dvV10O1QAO1HWA36ehmpaTkyPJyckwGAw4c+aM6nKIiIisnru7OyZPnoywsDC0adOG+zmqkvz8fFm6dCkiIyNx6tQp1eVQDeJAXcc8PDyg1+vh7e0NBwcHNmOqFpPJJDt37kRUVBTS09N5iBkREVEN496NquP48eMSGxuLpKQk3Lp1S3U5VAs4UCtScXhFSEgImjdvzuZM1Xb8+HFJSkrCokWLcO3aNdXlEBERWayK27rDw8Ph6enJfRpViYjIjh07+IGHjeBArZiTkxNGjhzJ7+FQjSkqKpJ169YhIiICBw4cUF0OERGRxWjRogWmTJmC0NBQtG3blvsyqpKCggJZvXo1oqKieJCsDeFAbUY8PDyg0+kwadIkODs7s4lTtWVmZorRaMSKFStQWFiouhwiIiKz1K9fPwQEBMDHxwf16tXjHoyq5OTJk5KYmMi7BG0UB2oz1LJlS/j6+vLdUaoxFc83TEhI4EEYREREAOzs7DB8+HCEh4dj6NCh3G9RlWVkZEh0dDQ2btyIsrIy1eWQIhyozVjF93d0Oh0bPdWIikPMjEYjNmzYgPLyctUlERER1anmzZtj6tSpCA4OxiOPPML9FVVJcXGxrF27FgsXLsTBgwdVl0NmgAO1heCtSFTTTpw4IYsWLUJSUhKuXLmiuhwiIqJa9fjjjyMoKAgTJ05E/fr1uZeiKsnJyZGEhAQYDAZcvnxZdTlkRjhQW5iKwzL4rirVlOLiYklLS0NUVBR2796tuhwiIqIao9VqMWLECN7WTQ8tMzNToqKikJKSgtLSUtXlkBniQG2hfrtADBkyBBqNhosEVVvFIWYrV67E7du3VZdDRET0UFxdXTF58mTMnDkT7du35x6JqqS8vFy2bt2K6OhobN++XXU5ZOY4UFuB7t27IzAwEH5+fmjQoAEXDaq2vLw8Wbt2LSIjI3H06FHV5RAREVVKt27dEBQUBH9/f97WTVV248YNSU5OxsKFC3HmzBnV5ZCF4EBtRZo0aYKpU6ciMDAQjz76KBcRqjaTySSff/45DAYDtm7dCpPJpLokIiKi37Gzs8PIkSMRFhaGF154gfsfqrJDhw5JdHQ0Vq1ahaKiItXlkIXhQG2FtFotBg8eDJ1OhzFjxsDOzo6LC1XbhQsXxGg0Ij4+Hrm5uarLISIiG9ewYUN4e3tj5syZ6NatG/c6VCUVTz6JiopCeno6RDgS0cPhQG3lOnXqBJ1Oh2nTpqFZs2ZcbKjaSkpKJDU1FUajkd8rIiKiOvfoo4/C398fAQEBcHNz496GquTmzZuyZs0aREREICsrS3U5ZAU4UNsIJycnjBw5EtOnT8fAgQO5+FCNOHr0qCQkJGDJkiUoKChQXQ4REVkxT09PhIeH8+47eigVjwtNTEzEjRs3VJdDVoQDtQ3y8PCATqfjM62pxuTn50tKSgpiYmLw888/qy6HiIishJOTE8aPH48///nP6NOnD/csVGUZGRkSHR2NDRs2oLy8XHU5ZIU4UNswNzc3TJo0CTNmzECHDh24SFGNqFi4Nm3axOc1EhHRQ3F3d0dAQABCQ0P5lTWqsuLiYlm7di0++ugjvtFPtY4DNd05xEyv18PLy4vPtKYacfHiRVm+fDni4uJw9uxZ1eUQEZEF8PDwgF6vh7e3NxwcHLgfoSq5ePGiJCYmIjY2FlevXlVdDtkIDtT0O507d4afnx/8/f3RpEkTLmRUbeXl5bJ161ZER0djx44dPEWTiIh+x87ODsOHD8c777wDT09P7j2oyjIzMyUqKgpr1qxBWVmZ6nLIxnCgprtydnbGuHHjMHPmTDz++ONc3KhGHDt2TJYuXQqj0Yjr16+rLoeIiBRydXXF5MmTMWvWLDzyyCPca1CVVDx1JCIiAnv27FFdDtkwDtT0QBWHmE2aNAnOzs5c8KjaKh5ZERcXh0OHDqkuh4iI6lDXrl0RHBwMf39/1K9fn/sKqpLc3FxZunQpYmNjce7cOdXlEHGgpspzd3e/89zHNm3acAGkGvHVV19JfHw8NmzYwEPMiIislFarxYgRIxAeHo4hQ4bwvBaqsszMTImOjsbatWtRXFysuhyiOzhQU5VxUaTacOnSJVm2bBni4+Nx+vRp1eUQEVENcHFxwYQJEzB9+nT06NGD+wWqEpPJJOnp6YiOjsb27dtVl0N0VxyoqVq6du2KqVOnQqfToXHjxlwoqdpMJpPs3LkTUVFRSE9P5yFmREQWqGPHjggICOD+gB7KjRs3JDk5GQsXLsSZM2dUl0N0XxyoqUY0bNgQkyZNQnBwMHr27MmFk2rEsWPHJD4+HsuWLUNeXp7qcoiI6AGef/55hIeHY+TIkdBqtdwPUJUcOHBAYmJisHr1ahQVFakuh6hSOFBTjeMzJKmmFRUVybp16xAREYEDBw6oLoeIiH7D0dERo0aNwqxZs/D0009z3acq+e1t3Xy8JlkiDtRUa1q1aoVJkyYhJCQE7dq14wJLNSIzM1OMRiOWL1/Od6+JiBRq2bIlfH19odfr0bp1a67zVCV5eXmybNkyRERE8OwUsmgcqKnWVbxzrdPpeIgZ1RgeYkZEpEa/fv0QEBDAx2nSQzl27JgYDAYkJSXh1q1bqsshqjYO1FSnunfvjsDAQEybNg0uLi5chKnaeIgZEVHt++0TPoYOHcr1m6qEazVZMw7UpISbmxt8fX0RFBSErl27cmGmGnH06FGJj49HcnIy8vPzVZdDRGTxGjduDH9/f4SEhOCRRx7hek1Vcv36dUlKSoLBYMDJkydVl0NU4xwcHDhQk3qenp4IDw/H6NGjYW9vz8Waqq3iELOFCxfi4MGDqsshIrI4Xbp0QUhICPz8/NCgQQOuzVQl2dnZEhcXx9u6yeq5u7tzoCbz0b59+zu3gzdv3pyLN9WIr7/+WuLi4rBx40aUlpaqLoeIyGxpNBq89NJLmD59OoYNG8YzT6hKeFo32aIBAwZwoCbz89tDzPg9LaopFYeYGQwGnDlzRnU5RERmw9nZGePGjcOcOXPQq1cvrrtUJfn5+ZKSkoKIiAhkZWWpLoeoTs2aNYsDNZm3ipNEJ06ciPr163ORp2rjO+hERP/WqlUr6HQ6hIWFoWnTplxjqUp++eUXWbx4MRITE3Hjxg3V5RApsXPnTg7UZBmaNGmCqVOnIigoCJ06deKiTzXiyJEjEhcXhxUrVuDmzZuqyyEiqhODBg26c3aJnZ0d11SqNJPJJJ999hmio6PxxRdf8E1psmnt27fHr7/+yoGaLItWq8XLL7+M4OBgDB8+HFqtlhsBqrabN2/KihUrYDAYcPjwYdXlEBHVOEdHR7zxxhsIDw+Hh4cH106qkvz8fFm2bBliY2Nx/Phx1eUQmYWoqCjo9XoNB2qyWB07dkRgYCCmTp2KZs2acXNANWLXrl0SFxeH1NRUHmJGRBavWbNmCAgIQEhICFq1asW1kqrk+PHjEhsbi2XLlvFxlES/0a5dO2RnZ8PZ2ZkDNVk+JycnjBw5koeYUY3KycmR5ORkxMXF4ezZs6rLISKqks6dOyM0NBT+/v48g4SqLCMjQ6Kjo7FhwwaUl5erLofI7GzYsAGjR4/WAOAt32Rd+vXrh+DgYHh7e3MDQTWitLRUNm7cCIPBgK+++kp1OURE9zV06FDMmDEDw4cP52OvqEoKCgpk+fLliImJ4WndRPfh7e2N1atX3+mvHKjJKjVq1Ahvvvkm9Ho9HwFCNebYsWOydOlSnmhKRGal4vvRs2fPRt++fbnmUZX8+uuvYjQasWjRIly7dk11OURmrWvXrvjuu+/g6urKgZpsg0ajwYsvvoigoCC8+uqrPM2UakR+fr4sX74cBoMBR48eVV0OEdmoFi1aIDAwEMHBwWjZsiXXN6o0EZEdO3YgOjoa6enpMJlMqksiMnuNGjXC3r170aNHj9/1Ww7UZDNatWqFSZMmITQ0FG3btuXGg2pExffMNm3axEPMiKhOdOnSBSEhIfx+NFVZUVGRrFu3DvPnz8dPP/2kuhwii+Ho6IjNmzdj2LBhf+i5HKjJ5jg6OmLs2LEIDg7GoEGDuBGhGnHu3DlJTEzE4sWLkZOTo7ocIrIyGo0Gw4YNw8yZM/Hiiy/y+9FUJadOnZK4uDgkJSXh+vXrqsshsij29vZYv349Xnvttbv2XQ7UZNO6d++OwMBATJs2DS4uLtycULWVlJRIamoqjEYjduzYARG2WCJ6eE5OThg/fjzefvtt9O7dm+sUVUnFXVQbN25EWVmZ6nKILI6joyNWr16NsWPH3rP/auzs7ITH4ZOtc3V1xaRJkxAUFPSH70UQPaxDhw5JXFwcVq1ahVu3bqkuh4gsiLu7O4KDgxEYGIjmzZtzXaJKKywslJUrVyImJoa3dRNVQ7169fDJJ59g+PDh9+3BmubNm8vly5dV10tkNjw8PKDX6+Ht7Q0HBwduYqja8vPzJSUlBTExMfj5559Vl0NEZqxv374ICQmBj48P6tWrxzWIKu3ixYuSmJiIuLg4XLlyRXU5RBatadOm2LhxI5555pkH9mHNk08+KT/88IPqmonMTps2beDv7w9/f3+0bt2amxqqtopTVePi4rB582bw7iAiAv79/ejhw4dj5syZGDJkCNcbqpKvv/76zuGYXFeIqq93797YvHkzOnToULl+PHPmTMG/v0fNMMxd4uDgIOPGjZMvv/xSRAQMUxM5ffq0vPvuu9KiRQvl1zjDMGri5OQk06ZNk8OHD3N9YaqUwsJCSUpKkscff1z5dcww1pSxY8dKXl5elXoydu7cqbxwhrGU9OzZU2JjY6v8QmOYe6WoqEiWL18uTz31lPLrm2GYukmTJk3kL3/5i1y8eJFrCVOlnD17Vt59911p1qyZ8uuYYawp9vb28tFHH4nJZKpyX4bJZJIePXoo/0MwjCWlYcOGEhQUJIcOHeJmiKmx7Nu3T3x8fMTJyUn5Nc4wTM2nU6dOEhMTIwUFBVw7mColIyNDxo8fLw4ODsqvY4axtnTs2FG+/vrrh+7LEBEsX75c+R+EYSw1zz77rKxZs0aKi4u5QWJqJJcuXZL3339f2rZtq/z6Zhim+unfv7+sX79eysrKuE4wlU5RUZEkJyeLh4eH8muYYaw106ZNk/z8/Gr1ZogITCaTeHp6Kv8DMYwlp2XLljJnzhw5deoUN0xMjaS8vFzS0tJk6NChotFolF/jDMNUPlqtVry8vGTbtm1cE5gqJScnR+bOnStt2rRRfh0zjLWmRYsWsmnTphrpz3f+j0OHDomzs7PyPxzDWHrs7e1l9OjRsm3btof6HgbD3C0HDx4Uf39/qV+/vvJrnGGYe6devXoSGBgo2dnZ7P9MlbJ3716ZMGGCODo6Kr+OGcaaM3bsWLl8+XKN9ejf/T8Gg0H5H5BhrCndunWTyMhIuX79OjdWTI3k2rVrMn/+fOnUqZPy65thmP9LixYt5L//+78lNzeX/Z6pdIqLi2XVqlU8mJJh6iCNGzeWFStW1HiP/sN/CA4OVv6HZRhri7Ozs/j4+Mj+/fu50WJqJOXl5bJt2zbx8vLi7eAMozCPPvqoREZGyq1bt9jfmUrn0qVLMnfuXGnXrp3ya5hhrD0ajUZ8fHwkJyenVvr0H/5DaWmpjBgxQvkfnGGsNQMGDJAVK1ZIUVERN19MjSQrK0vCwsKkUaNGyq9vhrGVPPPMM5Kamirl5eXs5Uyl88MPP8ikSZP4NAeGqaP07dtXvvnmm1rt03f9j7du3ZIXX3xR+V8Aw1hzmjdvLu+8846cPHmSmzGmRpKfny+xsbF8FCLD1FK0Wq2MGTNG9u3bx77NVDolJSWSkpIiAwcOVH4NM4ytpFGjRhIRESGlpaW13q/v+T8UFhbK8OHDlf9lMIy1R6vVyquvviqffvopP+lgaiQmk0m2bdsmo0aNEjs7O+XXOMNYehwdHWXq1KmSlZXFHs1UOrm5ufI///M/PK2bYeo4EyZMkAsXLtRZv77v/1hcXCy+vr7K/1IYxlbSuXNn+eijj+Tq1avctDE1kpMnT8rbb78tTZs2VX59M4ylpWHDhjJr1iw5d+4cezJT6fz4448ydepUPj2HYeo4ffr0kZ07d9Z5v67UD/rnP//JQ28Ypg5Tr149mTJlinz33XfcxDE1ktu3b8vixYvliSeeUH59M4y5p0WLFvL+++/LtWvX2IOZSqW0tFQ+/vhjefbZZ5Vfvwxja2nbtq0sWbJEysrKlPTsSv/ATZs2iaurq/K/MIaxtfzpT3+SpUuXSmFhITd2TI3km2++kTfeeEMcHByUX98MY07p2LGjxMbGyu3bt9lvmUrl6tWrMnfuXHnkkUeUX78MY2txdXWVDz74QHnPrtIPPn78uDz22GPK//IYxhbj6uoqOp1ODh8+zI0eUyO5ePGizJ07V9q2bav8+mYYlenTp48kJyfXyeE1jHUkKytL9Hq9NGjQQPn1yzC2FgcHB9HpdLX2GKyqpso/obCwUObMmSNarVb5XybD2GK0Wq0MHTpU1q1bx80fUyMpLi6WdevWydChQ5Vf3wxTl/H09JS0tDQxmUzspcwDU15eLtu2bRMvLy9+FZJhFMXLy0uOHz9uVj37oX/iZ599Jq1atVL+l8owtpwOHTrIv/71L8nNzTWrxsJYbn744Qfx9fXlYTqM1Uaj0cjIkSPl22+/Zd9kKpXr16/L/PnzpWPHjsqvX4ax1bzwwgtm+8jCav3kq1evytSpU/kuHcMojpOTk7z11luye/dus2w0jOUlNzdXPvjgA34vkLGa2NnZycSJE/m1GabSOXLkiAQGBvK2boZRmCFDhshXX31l1n27Rn6Rb775Rnr16qX8L5xhGEiPHj0kMjJSbt68adbNh7GM8BZHxtKj1Wpl3LhxfIY0w57HMBYUT09P2bFjh0X07Rr7hYqLi+Uf//gHbxNkGDOJq6ur6PV6OXr0qEU0I8b889NPP/HTGsZiYm9vL5MnT5bs7Gz2QOaBycvLk4iICOncubPya5dhbDkjRoyQPXv2WFTfrvFf8JdffpFhw4Yp/8dgGOb/4unpKevWrZOSkhKLalCMeSYvL08iIyOlffv2yq9thvnPVHwifezYMfY75oE5fvy4zJkzR9zc3JRfuwxjyxk6dKjZfkf6QamVX9RkMsnKlSv53TuGMbO0adNG/vGPf8iFCxcssmEx5pXS0lJZt26dDBw4UPm1zTAODg4ydepUOXHiBPsbc9+YTCb59NNP5eWXX+Zt3QyjMBqNRl577TXJzMy06L5dq794YWGhzJ07l+/6MYyZxcHBQcaPHy+7du2y6AbGmE++++47mTBhgjg6Oiq/vhnbioODg/j5+cmvv/7KfsbcN/n5+RITEyPdunVTft0yjC1Hq9XK2LFj5cCBA1bRt+vkN7l69arMmTNHnJyclP8DMgzz+3Tt2lXmzp0r165ds4qmxqhNTk6OvPfee9K8eXPl1zZj3XFwcBAfHx+zex4pY345ceKEzJkzRxo3bqz8umUYW46jo6P4+PjIkSNHrKpv1+lvdvr0afHx8eHtNQxjhmnYsKHodDqrebeQUZuioiJJTk6Wvn37Kr+2GesKB2mmsvnmm29k3LhxYmdnp/y6ZRhbTsOGDUWv18vZs2etsm8r+U337NkjzzzzjPJ/XIZh7p5nn31W1qxZI8XFxVbZ+Ji6i8lkku3bt4uXl5dotVrl1zZjuXFwcBB/f385efIk+xJzzxQUFEh8fLz07NlT+TXLMLYed3d3+de//iU3btyw6r6t9Dffvn07B2uGMeO4u7vLX//6Vzlz5oxVN0KmbpKdnS2hoaHi4uKi/NpmLCcV35HmIM3cLydPnpTZs2fz3B6GMYN06dJFEhMTpbCw0Cb6tvICRP59S86QIUOU/+MzDHP3aLVaGTp0qKSlpYnJZLKJ5sjUXioeu9W2bVvl1zZjvqm4tZvPkWbulx9++EF8fHzE3t5e+TXLMLaexx9/XJKTk6W0tNSm+rbyAn4bDtYMY/7p3LmzzJ07V65cuWJTzZKp+RQXF0tycrL06tVL+XXNmE84SDOV6R3r1q2T/v37K79eGYaBeHp6Slpams32bOUF3C1ffvmlPPfcc8ovDoZh7p369euLn5+fxT87kFGf8vJySU1N5VeAbDz16tWTwMBAPkeauWcuXrwo7733nrRs2VL59cowth47Ozt54403ZP/+/Tbfs5UXcL/s2rVLhg8fzlPBGcbM079/f1m+fLkUFRXZfFNlqpc9e/bI2LFjeYCZDaVp06byt7/9TS5dusT+wdw1mZmZMmnSJD5+lWHMIPXr15fg4GC++fmbKC+gMjl06JDodDpxdnZWfhExDHPvuLm5iV6vZ5Nlqp0TJ06IXq+X+vXrK7+umdpJhw4dJDIyUgoKCtgvmD+kvLxc0tLSZOjQocqvVYZhIC1atJD33ntPLl++zJ79H9GICCxFTk6OJCQkICoqCjdu3FBdDhHdg1arxeDBg6HT6TBmzBjY2dlpVNdElunKlSuSlJSEqKgoXLx4UXU5VAMee+wxzJw5ExMmTIC9vT17A/1Ofn6+LF26FJGRkTh16pTqcohsXpcuXRASEgKdTod69eqxZ9+N6on+YXL9+nX517/+Ja1atVL+bg3DMPdPp06d5MMPP+Q7mky1cuvWLYmLi5POnTsrv6aZqkej0ciLL74oX3zxBfsAc9dkZWVJcHAwH6vHMGaSIUOGyNatW/l0l0pEeQHVScUJsT179lR+0TEMc/84OTnJuHHjZNu2bWzMzEOn4jbQgQMHKr+mmQenUaNGotPp5NChQ3zdM3fNN998I+PGjRM7Ozvl1yvD2HocHBxk3Lhxsm/fPvbsKkR5ATWR8vJy2bRpk3h6eiq/EBmGeXA8PDwkKSlJbt26xYbNPHS+/vprGTlyJA8wM8N4eHjI4sWL+Rpn7ppbt25JfHy89OjRQ/m1yjDMv8/Aefvtt+XcuXPs2Q8Ri/oOdWVkZmZKVFQUUlJSUFpaqrocIroPV1dXvPHGG9Dr9ejVqxe/l0MP5fz587Jy5UrExsbi3LlzqsuxWU5OThg5ciR0Oh2GDh3K1zP9wcWLFyUxMRGxsbG4evWq6nKIbF6HDh0QGBiIgIAAuLm5sW8/JKsbqCucPXtW4uLiYDQacf36ddXlENF9aDQavPjiiwgKCsKrr77KQ8zooZSUlMimTZuQkJCAXbt2wVrXN3PTvXt36HQ6+Pr6onHjxnzt0h98++23EhkZiY0bN6KsrEx1OUQ276mnnsKsWbMwduxY7rlqgNUO1BWKiopk3bp1mDdvHo4cOaK6HCJ6gFatWmHSpEkIDQ1F27Zt2eTpoRw/flySkpKQlJSEK1euqC7H6jRt2hRjx46Fj48PBg0axNcp/UFJSYmkpqYiMjIS3377repyiGyeVqvFiBEjEB4ezruIapjVD9QVTCaTfPbZZ4iMjMT27dv5yQWRmXN0dMTYsWMRHBzMDTs9tMLCQklNTcWaNWvw2WefoaSkRHVJFqthw4YYM2YM3nrrLQwePJifatBdXb58WRITE2EwGPioOyIzUL9+fUyePBkzZsxAly5d2Ldrgc0M1L+VnZ0tcXFxWLx4MW7fvq26HCJ6gO7duyMwMBDTpk2Di4sLFwN6KDdu3JC0tDSsX78en332GW89rQQ7Ozu88MIL8PHxwZgxY/j6o3s6ePCgGAwGrFy5knsrIjPg7u6OgIAAhIaGolmzZuzdtcgmB+oKfBeVyLK4urrC19cXQUFB6NatGxcHemjnz5+XtWvXYvXq1cjMzFRdjllp1qwZXn75ZXh5eWHYsGH8XjTdk8lkks2bNyMqKgpffvml6nKICICHhwdmzJiB8ePHw8HBgf27Dtj0QF2h4ns+CxcuxN69e1WXQ0SV4OnpifDwcIwePRr29vZcMOihXbp0ST7//HNs2bIFX3zxBfLy8lSXVOc6deoELy8vvPrqq3juuee4CaP7unnzpqxZswYRERHIyspSXQ6RzeP3o9XiQP0fvvrqK4mKikJaWhrKy8tVl0NED/DII48gICAAfn5+aNGiBRcRqpaSkhL5+uuv8emnn2Lr1q1WOyy4u7tj4MCBePHFF/HKK6+gXbt2fO3QA/3yyy8SExODpUuX4ubNm6rLIbJ5DRs2xNSpU6HX69GpUyf2cUU4UN/D6dOnJT4+HosXL+azEoksgJOTE8aOHYuQkBAMHDiQiwrViFOnTklGRgb27duHvXv34uDBgygtLVVdVpVotVr06tULnp6eGDhwIDw9PbnxoirZsWOHREVFIT09HSaTSXU5RDavQ4cOCA0NhZ+fH1xdXdnPFeNA/QCFhYWyZs0axMTE4MCBA6rLIaJKeOKJJxAcHIwJEyagfv36XGioxhQWFkpmZib27duHPXv2IDMzE2fOnDGbIcPJyQldu3ZF9+7d0bNnT/Tv3x8DBgzghouqrLCwUFatWoXo6Gj89NNPqsshIgADBw7EjBkzMHr0aD5pwYxwoK6Cb775RmJjY7Fx40aL+4SCyBa5ublhypQpCAoK4qMiqNYUFRXJ8ePH8Z/Jzs5GTk5Ojf9+Dg4OaNmyJdq3b49u3bqhW7du6NGjB3r06IGOHTtyk0XVcv78eTEYDDAajXyGO5EZsLe3x+uvv44ZM2bgqaeeYn83QxyoH8L58+clPj4eixYtQm5urupyiOgBNBoNhg0bhuDgYLzyyiscOKjOlJSUSG5uLi5duoRLly4hLy8PN2/eRF5eHgoKClBcXPyHn6PRaODm5gaNRoPGjRvfSbNmzdCyZUu0bNkSGo2G1zDVqO+++04iIyPx8ccf80MDIjPg5uYGnU6H0NBQnnNh5jhQV0PF6eBRUVHYvXu36nKIqBJat24Nf39/hISEoHnz5lygiMhmmUwmSU9PR3R0NLZv3666HCIC8Oijj8Lf3x+BgYH8uo6F4EBdQzIzM8VoNGL58uUoKipSXQ4RPYCjoyNGjRoFnU7HR0wQkU3Jy8uTZcuWYeHChThz5ozqcogI//c40DFjxvBOOgvDgbqG5eTkSGJiIhITE3Hx4kXV5RBRJXh4eCA4OBje3t6oV68eFzEiskqHDx+W6OhorFixAoWFharLIbJ5Tk5O8Pb2Rnh4OB5//HHuPywUB+paUnE7uNFo5G1URBbC1dUVb7zxBqZPn44ePXpwYSMiq5CRkSHz5s1Deno6uO8jUq9ly5bw9fVFWFgY2rRpw/2GheNAXQf2798viYmJfEeYyEJotVoMHjwYOp0Oo0ePhr29PRc7IrIoxcXFsnbtWnz00Uf4+eefVZdDRAD69euHgIAATJo0Cc7OztxbWAkO1HXo8uXLsmTJEsTHx+P06dOqyyGiSmjTpg38/Px4iBkRWYTc3FxZunQpoqOjceHCBdXlENk8rVaLESNGIDw8nGe2WCkO1Ar89lTNHTt28PYrIgvg5OSEkSNH8hAzIjJLBw8eFIPBwLvhiMyEq6srJk+ejJkzZ6J9+/bcN1gxDtSKZWVlSXx8PJKSknDr1i3V5RBRJXh4eECn02HixImoX78+F0kiUkJEZMeOHYiKiuL3o4nMRNeuXREcHAw/Pz80aNCAewQbwIHaTFQ8wiIyMhKnTp1SXQ4RVULFu8/h4eHo1KkTF00iqhMV34+eN28ejhw5orocIptXcfaKXq+Hl5cXNBoN9wQ2hAO1mTGZTLJz506+20xkQX57iBmfH0lEteXSpUsSHx+PuLg4XLlyRXU5RDbPxcUFEyZM4NNBbBwHajOWnZ0tcXFxWLJkCQoKClSXQ0SV0KlTJ+h0OkybNg3NmjXj4kpE1XbgwAGJj4/H8uXLUVRUpLocIptXsdbrdDo0btyYa72N40BtAfLz8yUlJQWRkZE4evSo6nKIqBIqDjGbPn06Bg4cyMWWiKrkt3esbdmyRXU5RATA09MT4eHhfKQm/Q4HagvC28GJLBMPMSOiyiooKJDVq1fzTXQiM+Hk5ITx48dj9uzZ6Nu3L9dw+gMO1Bbq2LFjEhsbi+XLlyM/P191OURUCc2aNcO0adMQGBiIDh06cFEmojvOnTsnMTExMBqNuHHjhupyiGxemzZtEBwcDJ1Ox69w0X1xoLZwN2/elDVr1iA6OhqHDx9WXQ4RVQIPMSOiChXPj05OTkZxcbHqcohsnoeHB/R6Pby9veHg4MD1mR6IA7WVEBHZtm0b4uLikJ6ejvLyctUlEVEldOnSBSEhIfD19YWrqysXbiIbICLy+eefY8GCBdi+fbvqcohsnoODA15//XWEh4fj6aef5lpMVcKB2gpduHBBjEYjDAYDLl++rLocIqoEZ2dnjBs3Dn/+85/Rp08fLuZEVqikpERSUlIwf/58/PTTT6rLIbJ5bm5umDRpEmbPno127dpx7aWHwoHaihUXF0taWhqMRiPfASeyIDxFlMi65Ofny9KlSzF//nycO3dOdTlENq9bt24ICgqCv78/DwulauNAbSMyMzPFaDRi5cqVuH37tupyiKgSWrduDX9/f4SEhKB58+Zc8IkszKlTpyQhIQEJCQnIy8tTXQ6RTas4v0Sv18PLywsajYbrKtUIDtQ2Ji8vT5YtW4bo6Gj8+uuvqsshokqoeKb1jBkzMGDAAG4AiMzcjz/+KBEREVizZg3KyspUl0Nk0xo2bAhvb2/MmDED3bt35xpKNY4DtY2qeKa10WjEhg0beIgZkYWoeKb1pEmT4OzszI0BkZkQEdmxYweioqKwZcsW1eUQ2bxHH30U/v7+CAgIgJubG9dLqjUcqAknTpyQRYsWYfHixbh69arqcoioElq2bAlfX1+EhITwIBUihYqLi2Xt2rWYN28ejhw5orocIptXcQ4JH0tJdYUDNd1RcYhZREQE9uzZo7ocIqoEBwcHvPbaa9DpdBg6dCg3DkR15MqVK5KUlITo6GhcuHBBdTlENs3JyQnjx4/H22+/jd69e3MtpDrFgZruas+ePRIXF4ePP/4YxcXFqsshokro168fQkJCMGHCBN4OTlRLfv31V5k/fz6Sk5N5yCeRYu3atUNISAj8/f3RpEkTrnukBAdquq/c3FxZunQpEhIScOrUKdXlEFEluLq6YvLkyZgxYwY6dOjADQZRDTh06JDMnz+fB40RmQEPDw/o9Xp4e3vDwcGB6xwpxYGaKqXiELOoqCikp6eD1w2R+eMjQoiqLyMjQ+bNm8e1j0gxR0dHjBo1ik+8ILPDgZqq7NixY2IwGJCcnMznahJZiJ49eyI0NBQ+Pj5wcXHhRoToPkwmk6SmpmLevHnYt2+f6nKIbJq7uzsCAgIQGBgId3d3rl9kdjhQ00MrKiqSdevWYeHChTh48KDqcoioEiqex6nX69GrVy9uTIh+o7S0VNasWcMTu4nMQL9+/RAQEAAfHx/Uq1eP6xWZLQ7UVCMyMzMlKioKKSkpKC0tVV0OET2ARqPBkCFDoNPp+GgRsnkFBQWSlJSEBQsW4OzZs6rLIbJZdnZ2GD58OMLDw/nkCrIYHKipRuXk5EhycjIMBgPOnDmjuhwiqoROnTpBp9PBz88PTZs25QaGbMaVK1ckNjYWMTExuHbtmupyiGxW8+bNMXXqVISEhKBdu3Zch8iicKCmWlFeXi5bt25FdHQ0duzYwYNciCyAs7Mzxo0bh9mzZ6Nv377c0JDVOn36tCxcuBCLFy/mo6+IFHriiScQGBjI27rJonGgplr3888/i8FgwIoVK1BQUKC6HCKqhOeffx4hISF47bXXYG9vz00OWYXDhw/L3LlzkZKSwkdfESlib2+P0aNHQ6/XY9CgQVxfyOJxoKY6c/PmTVmzZg1iYmLw888/qy6HiCqhVatWmDRpEsLCwtCmTRtufMgiHT58WObNm4fVq1ejvLxcdTlENsnV1RWTJ0/GzJkz0b59e64nZDU4UFOdExHZuXMnDAYD0tLS+CkBkQVwcnLCG2+8gdDQUPzpT3/iRogswqFDh+Sf//wnNmzYAJPJpLocIpv02GOPISwsDBMmTOBt3WSVOFCTUhcvXpTly5cjNjYW586dU10OEVWCh4cH9Ho9vL294eDgwM0RmZ2ff/5ZPvzwQ34iTaSIVqvFiBEjEB4ejiFDhkCj0XCtIKvFgZrMQklJiaSmpsJoNGL79u2qyyGiSmjVqhV0Oh3CwsJ4OjiZhZ9++kk++ugjrFq1ip9IEylQcVv3jBkz0KFDB64LZBM4UJPZOXr0qCQkJCApKQm3bt1SXQ4RPYCTkxPGjx+Pt99+G7179+YGiurcTz/9JP/85z/x8ccf86kSRAp07doVwcHB8PPzQ4MGDbgOkE3hQE1mKz8/X1JSUhAVFYUjR46oLoeIKsHT0xNz5syBl5cXb/GjWnfo0CF5//33OUgTKaDVajF48GDo9Xr2fLJpHKjJ7JlMJtm2bRvi4uKQnp7O2/iILED37t0RHh4OHx8fflpBNe6HH36Qv//970hPT+cgTVTH3NzcMHXqVISEhKBTp07s72TzOFCTRTl16pQkJCRgyZIluHz5supyiOgBGjduDH9/f4SEhOCRRx7hxouqJTMzU/7+979jy5YtHKSJ6liPHj0QFhYGHx8fuLi4sJ8T/S8O1GSReIgZkWX57YmvQ4cO5UaMqoTfkSZSg7d1Ez0YB2qyeD/++KMYDAasXr0at2/fVl0OET1A//79MXv2bIwePRparZabM7qnH3/8Uf7+978jLS2NgzRRHWrUqBGmTJmC0NBQdO7cmX2a6D44UJPVqDjELDo6GocPH1ZdDhE9QKdOnaDX6+Hv74/69etzw0Z3/Pzzz/KPf/yDn0gT1bHOnTvDz88PAQEBcHNzY18mqgQO1GR1RES2b9+O+Ph4pKWloby8XHVJRHQfzZs3R0hICEJCQtCsWTNu4GzY999/Lx988AFSU1M5SBPVEY1Gg5deegl6vR4vvfQS7xwiqiIO1GTVLl68KMuXL0dsbCzOnTunuhwiuo+K51n/5S9/Qbdu3bihsyEZGRkyb948bNmyRXUpRDbDxcUFEyZMgF6vR69evdhziR4SB2qyCb89xGzHjh385IPIjFUcYPbuu+9iwIAB3ORZqdLSUlmzZg0++ugj/Pzzz6rLIbIZnTp1gk6ng7+/P5o0acIeS1RNHKjJ5vz0009iMBiwcuVKFBQUqC6HiO7jueeew+zZs/HKK6/wdFkrcfPmTTEajYiMjOSdQ0R1RKPRYOjQodDr9RgxYgRv6yaqQRyoyWbdvHlT1qxZg7i4OBw6dEh1OUR0H507d0ZoaCh0Oh3q1avHjaAFys3NFYPBgJiYGFy7dk11OUQ2wdnZGePGjcPbb7+N3r17s3cS1QIO1EQAdu3aJQaDAZs2bUJpaanqcojoHlq1aoWwsDAEBgaicePG3BxagIyMDImPj8cnn3yC4uJi1eUQ2YSOHTsiJCQE06ZN42ndRLWMAzXRb+Tk5EhycjIMBgPOnDmjuhwiuoeKw3Rmz56NLl26cLNoZiruADIYDDh48KDqcohshqenJ8LDwzF69GjY29uzNxLVAQ7URHdhMpkkPT0d0dHRPMSMyIxptVoMHjwYOp0OY8aMgZ2dHTeQCmVlZcmyZctgNBpx/fp11eUQ2YSKJyTMnj0bffv2ZQ8kqmMcqIkeIDs7W5YsWYJFixbxe39EZqxt27aYNm0agoOD0aJFC24q68hvn6Kwfft21eUQ2YxWrVpBp9MhNDQUzZo1Y88jUoQDNVElFRQUyKpVq2AwGHiIGZEZc3JywtixYxEYGIhnnnmGm8xaICLyzTffYNWqVVi/fj0/jSaqQ8899xzCwsLw2muv8a4cIjPAgZroIWRkZIjBYMAnn3yCkpIS1eUQ0T307NkTU6ZMwRtvvIF27dpx41lNP//8s6xatQqrV6/mORNEdcjZ2RkTJkyAXq/HY489xl5GZEY4UBNVQ25urixduhQJCQk4deqU6nKI6B60Wi0GDBiAcePGwdvbm7eEV8H58+fl448/xvr167F7927V5RDZFHd3dwQEBPC2biIzxoGaqAaUl5fL5s2bER8fj23btvEQMyIz5uDggJdeegne3t4YNWoUGjRowE3qfzh69Khs2bIFW7ZsQUZGBkwmk+qSiGyKp6cn9Ho9xowZw9O6icwcB2qiGpadnS0JCQlYtmwZv1dIZOYaNGiAF198EcOHD8fw4cNt9rbw4uJi+eqrr7Blyxakp6fj119/VV0Skc1xcnLCm2++ibCwMHh4eNhkLyKyRByoiWrJ7du37zyHdf/+/arLIaJK6NOnD4YPH44RI0bA09PTqj8ZOnXqlGzfvh3p6enYtm0bbt26pbokIpvUunVrBAYGIiAggF9HIbJAHKiJ6sDevXvFYDBg/fr1KCoqUl0OEVWCq6srhg4dikGDBuHpp59Gv3794OTkZJGb3bKyMvnxxx/x7bffYvfu3di9ezcuXLiguiwim9a/f3/o9Xq8/vrrcHBwsMjeQkQcqInq1JUrV2TJkiVISEjAyZMnVZdDRFXg6OiIJ554Av3798fTTz+NAQMGoEOHDma3CTaZTHLq1CkcPnwY+/btQ0ZGBr7//nvcvn1bdWlENs/R0RHjxo2DXq/HU089ZXb9g4iqjgM1kQImk0k+/fRTGAwGfPbZZzzwh8hCNW3aFF27dkXXrl3RpUuX38XFxaVWN8tFRUVy7NgxZGVlISsrC0ePHkVWVhaOHTvGO2GIzEzFad2BgYFwd3fnIE1kRThQEyn266+/SkJCApYsWYKrV6+qLoeIakjr1q3Rvn17NG/eHC1btoS7uzsaNWqERo0awdXVFS4uLnBycvrDzxMR3LhxAyaTCTdu3MD169dx/fp1XLlyBZcuXcK5c+eQk5ODS5cuqf4jEtED/OlPf4Jer8f48ePh6OjIQZrICnGgJjITxcXFkpaWBqPRiO3bt6suh4iIiB6CnZ0dhg8fjvDwcAwdOpRDNJGV40BNZIb2798viYmJWLVqFU/eJSIisgAtWrTAlClTEBISYrOP4COyRRyoicxYXl6erF27FlFRUThy5IjqcoiIiOg/PPHEEwgMDISPjw/q1avHQZrIxnCgJrIAIiI7duyA0WjExo0bUVZWprokIiIim6XVajFixAje1k1EHKiJLM2FCxdkxYoViI2Nxblz51SXQ0REZDNcXV0xefJkzJw5E+3bt+cgTUQcqIksVUlJiaSmpsJoNGLHjh3ga5mIiKh2dOvWDUFBQfD390f9+vU5SBPRHRyoiaxAVlaWxMfHY8mSJSgoKFBdDhERkcX77W3dQ4YMgUaj4SBNRH/AgZrIity8eVPWrFmD2NhY/PTTT6rLISIisjgVt3XPmDEDHTp04BBNRPfFgZrISmVmZkpUVBRSUlJQWlqquhwiIiKz1rVrVwQHB8PPzw8NGjTgIE1ElcKBmsjK5eTkSHJyMgwGA86cOaO6HCIiIrOh1WoxePBg6PV6eHl58bZuIqoyDtRENsJkMkl6ejqio6N5iBkREdm0Ro0a4c0338SMGTPQvXt3DtFE9NA4UBPZoOzsbFmyZAkWLVqEa9euqS6HiIioTnTp0gUhISGYNm0aXFxcOEgTUbVxoCayYUVFRbJu3TpERETgwIEDqsshIiKqcbytm4hqEwdqIgLw70PMjEYjVqxYgcLCQtXlEBERVUvDhg3h7e2N6dOno0ePHhyiiahWcKAmot/Jzc2VpUuXIiEhAadOnVJdDhERUZV07twZfn5+0Ol0aNy4MQdpIqpVHKiJ6K5MJpPs3LkTRqMRGzZsQHl5ueqSiIiI7kqj0WDIkCHQ6XQYM2YM7OzsOEgTUZ3gQE1ED3TixAlZtGgRkpKScOXKFdXlEBERAQCcnZ0xbtw4zJkzB7169eIQTUR1jgM1EVVacXGxpKWlISoqCrt371ZdDhER2ajWrVvD398fer0eTZo04SBNRMpwoCaih1JxiNnKlStx+/Zt1eUQEZEN8PDwgF6vx4QJE2Bvb89BmoiU40BNRNWSl5cna9euRVRUFI4cOaK6HCIisjKOjo4YNWoUZs6cif79+3OIJiKzwoGaiGrEbw8x27hxI8rKylSXREREFqxFixaYMmUKQkND0bZtWw7SRGSWOFATUY27cOGCGI1GxMfHIzc3V3U5RERkQR5//HEEBQXBx8cH9erV4yBNRGaNAzUR1ZqSkhJJTU2F0WjE9u3bVZdDRERmSqvVYsSIEQgPD8fQoUM5RBORxeBATUR1IisrS+Lj47FkyRIUFBSoLoeIiMxAo0aN4OvrixkzZqBDhw4cpInI4nCgJqI6lZ+fLykpKYiJicHPP/+suhwiIlKgc+fO8PPzQ0BAANzc3DhIE5HF4kBNRMpkZGRIdHQ0Nm3ahNLSUtXlEBFRLfP09ER4eDjGjBkDOzs7DtJEZPE4UBORcjk5OZKcnIy4uDicPXtWdTlERFSDnJycMH78eLz99tvo3bs3h2gisiocqInIbJSXl8vWrVsRHR2NHTt2gP2JiMhytWrVCjqdDmFhYWjatCkHaSKyShyoicgsHTlyRAwGA1asWIH8/HzV5RARUSUNHDjwzm3d9vb2HKSJyKpxoCYis1ZQUCCrV69GXFwcDh06pLocIiK6C0dHR4waNQrTp0/HwIEDOUQTkc3gQE1EFiMzM1OioqKQkpLCQ8yIiMxA8+bNMXXqVISEhKBdu3YcpInI5nCgJiKLU3GImcFgwJkzZ1SXQ0Rkcx577DEEBwdj4sSJqF+/PgdpIrJZHKiJyGLxEDMiorqj1WoxePBg6PV6eHl5QaPRcJAmIpvHgZqIrEJ2drYsWbIERqMR169fV10OEZHVaNiwIby9vTFjxgx0796dQzQR0W9woCYiq3Lz5k1Zs2YNDzEjIqqmRx99FP7+/ggICICbmxsHaSKiu+BATURWi4eYERFVnaen553HXtnZ2XGQJiK6Dw7URGT1Kg4xi4uLw9mzZ1WXQ0RkdpycnDB+/Hj8+c9/Rp8+fThEExFVEgdqIrIZPMSMiOj33N3dERAQgNDQUDRr1oyDNBFRFXGgJiKbdOzYMVm6dCkSExNx48YN1eUQEdUpDw8P6PV6eHt7w8HBgYM0EdFD4kBNRDat4hCz2NhY/PTTT6rLISKqNXZ2dhg+fDjeeecdeHp6cogmIqoBHKiJiACIiHz55ZcwGAxITU1FWVmZ6pKIiGpEkyZNoNPpEBoaijZt2nCQJiKqQRyoiYj+w8WLF2X58uU8xIyILNqjjz6KsLAw+Pn5oUGDBhykiYhqAQdqIqJ7KCkpkdTUVBiNRh5iRkQWg4+9IiKqOxyoiYgqISsrS+Lj47FkyRIUFBSoLoeI6HccHR0xatQozJ49G0899RSHaCKiOsKBmoioCvLz8yUlJQUxMTH4+eefVZdDRDauefPmmDp1KkJDQ9G2bVsO0kREdYwDNRHRQ8rIyJDo6Ghs3LiRh5gRUZ3q0qULQkJC4O/vj/r163OQJiJShAM1EVE1VRxiFhsbi3Pnzqkuh4ismKenJ+bMmQMvLy9oNBoO0kREinGgJiKqIb89xGz79u2qyyEiK+Hk5ITx48fj7bffRu/evTlEExGZEQ7URES1gIeYEVF1tWjRAlOmTIFer0fr1q05SBMRmSEO1EREtajiELPo6GgcPnxYdTlEZAH69u2LkJAQ+Pj4oF69ehykiYjMGAdqIqI6wkPMiOheNBoNhgwZAr1ez+9HExFZEA7URER17MKFC7JixQrExMTg/PnzqsshIoUqvh/9zjvvoGfPnhyiiYgsDAdqIiJFiouL5eOPP0ZsbCz27t2ruhwiqkPNmjVDcHAwQkJC0KJFCw7SREQWigM1EZEZ2L9/vyQmJmLlypW4ffu26nKIqJZ06tQJer2ez48mIrISHKiJiMzIjRs3JDk5GRERETh9+rTqcoiohnh4eECv1+Ott96CnZ0dB2kiIivBgZqIyAyZTCZJT09HdHQ0duzYAfZqIsuj1WoxYsQI/Nd//RcGDhzIIZqIyApxoCYiMnPHjh0Tg8HAZ1oTWQhnZ2eMGzcOf/nLX9CtWzcO0kREVowDNRGRhah4pnVUVBSOHDmiuhwi+g8tWrRAUFAQwsLC0LRpUw7SREQ2gAM1EZGFMZlMsnPnThiNRmzYsAHl5eWqSyKyaV26dEFISAh0Oh3q1avHQZqIyIZwoCYismAnTpyQRYsWYdGiRbh27ZrqcohsiqenJ+bMmQMvLy9oNBoO0kRENogDNRGRFSgoKJCVK1ciNjYWhw8fVl0OkdWyt7fH+PHjMXv2bDzxxBMcoomIbBwHaiIiK5ORkSHR0dHYuHEjysrKVJdDZBWcnJwwfvx4/PWvf0XXrl05SBMREQAO1EREVuvixYuSmJgIg8GAy5cvqy6HyCI1atQIvr6+eOedd9CqVSsO0kRE9DscqImIrFxxcbGkpaUhMjIS3377repyiCyCu7s7AgICMGPGDLi6unKQJiKiu+JATURkQzIzM8VoNGLFihUoLCxUXQ6R2Xn00UcRFhaGgIAAODs7c5AmIqL74kBNRGSDLl26JMuWLYPBYMCZM2dUl0OkXL9+/RAeHo633noLdnZ2HKSJiKhSOFATEdmw8vJy2bp1K6Kjo7F9+3bV5RDVuYpHX7366qscoomIqMo4UBMREQAgKytL4uPjkZSUhFu3bqkuh6jWaLVajBgxAu+99x6efPJJDtJERPTQOFATEdHvXLt2TZKSkhAfH4+TJ0+qLoeoxtSrVw/Tpk3DrFmz0KFDBw7SRERUbRyoiYjorkwmk+zcuRNRUVFIT08H1wuyVPXr14efnx/mzJmD1q1bc5AmIqIaw4GaiIge6Pjx45KUlASj0Yjr16+rLoeoUho0aIBp06bxGdJERFRrOFATEVGl3bx5U5YuXYqYmBj88ssvqsshuisXFxeEhIRg1qxZaN68OQdpIiKqNRyoiYioyng7OJkjFxcXTJ06Ff/1X/8Fd3d3DtJERFTrOFATEVG1ZGdnS1xcHBYvXozbt2+rLodsUMUg/e6776Jly5YcpImIqM5woCYiohpx48YNSU5OxoIFC3D27FnV5ZANaNiwIYKDg/H222+jSZMmHKSJiKjOcaAmIqIaVVJSIuvXr0dUVBS+//571eWQFXJzc8P06dMRHh4ONzc3DtJERKQMB2oiIqo1mZmZEhUVhZSUFJSWlqouhyxcxSfSc+bMQePGjTlIExGRchyoiYio1l28eFESExMRGxuLq1evqi6HLEzFqd0cpImIyNxwoCYiojpz69YtSU5OxsKFC3HixAnV5ZCZc3V1RXh4OKZPn85BmoiIzBIHaiIiqnMmk0nS09Pxr3/9C3v27FFdDpmZik+kedgYERGZOw7URESk1FdffSXz58/n86wJbm5uCA0NxYwZMzhIExGRReBATUREZuGXX36RmJgYLFq0CIWFharLoTrk7u6OgIAATJ8+nad2ExGRReFATUREZiU3N1cMBgNiYmJw7do11eVQLerTpw9CQ0MxadIkODs7c5AmIiKLw4GaiIjM0s2bN2Xx4sWIjIzEmTNnVJdDNej555/Hn//8ZwwfPhwajYaDNBERWSwO1EREZNYqDjB7//338d1336kuhx6SVqvFiBEj8Je//AX9+/fnEE1ERFaBAzUREVmMbdu2yfz587Ft2zYeYGYhmjRpAl9fXwQHB+PRRx/lIE1ERFaFAzUREVmcQ4cOSVxcHJYvX46ioiLV5dBdeHh4QKfTYeLEiahfvz4HaSIiskocqImIyGKdO3dOEhMTkZSUhIsXL6oux+Y1aNAA3t7eCAwMhIeHB4doIiKyehyoiYjI4pWXl8uXX36JqKgoPs9aga5du2Lq1Knw9/fn86OJiMimcKAmIiKrkp2dLYmJiUhOTsbVq1dVl2O1GjdujHHjxmHixIkYNGgQT+smIiKbxIGaiIisUlFRkaxfvx7Lli3Drl27YDKZVJdk8ZydneHl5YW33noLw4cPh5OTE4doIiKyaRyoiYjI6l24cEHWr1+P9evX49tvv+Ut4VWg1WoxYMCAO59GN23alEM0ERHR/+JATURENiU7O1vWrFmDNWvW4NixY6rLMUsODg545pln4OXlhfHjx6NNmzYcoomIiO6CAzUREdms/fv3y8aNG/Hpp59i//79Nv3JdYsWLTB8+HC88sorGDZsGFxdXTlEExERPQAHaiIiIgBXrlyRL7/8Eps3b8aWLVtw/fp11SXVup49e+LVV1/F0KFD8fzzz8Pe3p5DNBERURVwoCYiIvoPZWVlsmfPHnz66afIyMhAZmYmbt++rbqsanF2dsaTTz4JT09PeHp6YsCAAWjWrBkHaCIiomrgQE1ERPQAZWVlcujQIezduxd79+7Fvn37kJ2drbqs+2rdujWefvppDBo0CAMGDICHhwccHR05QBMREdUgDtREREQP4erVq5KZmYns7GxkZ2fj+PHjOH78OE6fPo2ysrI6qcHOzg4dO3ZEjx490L17d3Tv3h09e/ZEt27d0LhxYw7PREREtYwDNRERUQ0qKSmRkydPIjs7G6dPn8bly5dx6dIl5OTkID8/H/n5+cjLy8OtW7dQVFT0h5+v1Wrh6uoKrVaLxo0b30nTpk3RsmVLtGvXDu7u7njkkUfQuXNnPguaiIhIof8PxfQy+YRzTlgAAAAldEVYdGRhdGU6Y3JlYXRlADIwMTctMDYtMTJUMDM6MzQ6NDQrMDg6MDAaCCwPAAAAJXRFWHRkYXRlOm1vZGlmeQAyMDE2LTA0LTE5VDE1OjE0OjE2KzA4OjAw6OtFGAAAAFR0RVh0c3ZnOmJhc2UtdXJpAGZpbGU6Ly8vaG9tZS9kYi9zdmdfaW5mby9zdmcvZWEvZTMvZWFlM2MyOWFmMzAxZGEyYjgxZTZjNTAwOGU5NDBmMDIuc3Zn79zNeQAAAABJRU5ErkJggg==;" parent="1" vertex="1">
          <mxGeometry x="1040" y="65" width="140" height="120" as="geometry" />
        </mxCell>
        <mxCell id="ZFrBuDhP7MVDR-RA8Mfw-50" value="" style="endArrow=classic;html=1;rounded=0;exitX=0.75;exitY=0;exitDx=0;exitDy=0;entryX=0.25;entryY=0;entryDx=0;entryDy=0;strokeWidth=2;" parent="1" source="ZFrBuDhP7MVDR-RA8Mfw-3" target="ZFrBuDhP7MVDR-RA8Mfw-48" edge="1">
          <mxGeometry width="50" height="50" relative="1" as="geometry">
            <mxPoint x="880" y="50" as="sourcePoint" />
            <mxPoint x="930" as="targetPoint" />
          </mxGeometry>
        </mxCell>
        <mxCell id="ZFrBuDhP7MVDR-RA8Mfw-51" value="" style="endArrow=classic;html=1;rounded=0;entryX=0.75;entryY=1;entryDx=0;entryDy=0;exitX=0.25;exitY=1;exitDx=0;exitDy=0;strokeWidth=2;" parent="1" source="ZFrBuDhP7MVDR-RA8Mfw-48" target="ZFrBuDhP7MVDR-RA8Mfw-3" edge="1">
          <mxGeometry width="50" height="50" relative="1" as="geometry">
            <mxPoint x="870" y="900" as="sourcePoint" />
            <mxPoint x="920" y="850" as="targetPoint" />
          </mxGeometry>
        </mxCell>
        <mxCell id="ZFrBuDhP7MVDR-RA8Mfw-52" value="&lt;b&gt;Data response&lt;/b&gt;" style="text;html=1;align=center;verticalAlign=middle;whiteSpace=wrap;rounded=0;" parent="1" vertex="1">
          <mxGeometry x="900" y="730" width="120" height="30" as="geometry" />
        </mxCell>
        <mxCell id="ZFrBuDhP7MVDR-RA8Mfw-53" value="&lt;b&gt;Request data by key&lt;/b&gt;" style="text;html=1;align=center;verticalAlign=middle;whiteSpace=wrap;rounded=0;" parent="1" vertex="1">
          <mxGeometry x="840" y="10" width="133" height="30" as="geometry" />
        </mxCell>
        <mxCell id="ZFrBuDhP7MVDR-RA8Mfw-54" value="JSON format" style="rounded=1;whiteSpace=wrap;html=1;fillColor=#1ba1e2;fontColor=#ffffff;strokeColor=#006EAF;fontStyle=1" parent="1" vertex="1">
          <mxGeometry x="860" y="770" width="160" height="40" as="geometry" />
        </mxCell>
        <mxCell id="ZFrBuDhP7MVDR-RA8Mfw-55" value="Key" style="rounded=1;whiteSpace=wrap;html=1;fillColor=#1ba1e2;fontColor=#ffffff;strokeColor=#006EAF;fontStyle=1" parent="1" vertex="1">
          <mxGeometry x="840" y="50" width="160" height="40" as="geometry" />
        </mxCell>
        <mxCell id="GXvS0G71m_cW6vkP2CwH-1" value="Redis Status Key" style="rounded=1;whiteSpace=wrap;html=1;fontStyle=1" vertex="1" parent="1">
          <mxGeometry x="414" y="130" width="200" height="40" as="geometry" />
        </mxCell>
        <mxCell id="GXvS0G71m_cW6vkP2CwH-3" value="" style="endArrow=classic;html=1;rounded=0;exitX=1;exitY=0.5;exitDx=0;exitDy=0;entryX=0;entryY=0.5;entryDx=0;entryDy=0;fillColor=#60a917;strokeColor=#2D7600;strokeWidth=2;" edge="1" parent="1" source="ZFrBuDhP7MVDR-RA8Mfw-38" target="GXvS0G71m_cW6vkP2CwH-1">
          <mxGeometry width="50" height="50" relative="1" as="geometry">
            <mxPoint x="370" y="210" as="sourcePoint" />
            <mxPoint x="424" y="160" as="targetPoint" />
          </mxGeometry>
        </mxCell>
      </root>
    </mxGraphModel>
  </diagram>
</mxfile>
